<svg version="1.1" viewBox="0.0 0.0 939.2047244094488 824.8372703412074" fill="none" stroke="none" stroke-linecap="square" stroke-miterlimit="10" xmlns:xlink="http://www.w3.org/1999/xlink" xmlns="http://www.w3.org/2000/svg"><clipPath id="p.0"><path d="m0 0l939.2047 0l0 824.8373l-939.2047 0l0 -824.8373z" clip-rule="nonzero"/></clipPath><g clip-path="url(#p.0)"><path fill="#000000" fill-opacity="0.0" d="m0 0l939.2047 0l0 824.8373l-939.2047 0z" fill-rule="evenodd"/><path fill="#000000" fill-opacity="0.0" d="m344.7595 114.12437c34.117615 0 51.176422 -10.758934 68.23523 -21.517868c17.058807 -10.758942 34.117615 -21.517876 68.23526 -21.517876" fill-rule="evenodd"/><path stroke="#a4c2f4" stroke-width="16.0" stroke-linejoin="round" stroke-linecap="butt" d="m344.7595 114.12437c34.117615 0 51.176422 -10.758934 68.23523 -21.517868c17.058807 -10.758942 34.117615 -21.517876 68.23526 -21.517876" fill-rule="evenodd"/><path fill="#000000" fill-opacity="0.0" d="m344.7595 114.12437c34.117615 0 51.176422 10.758934 68.23523 21.517876c17.058807 10.758926 34.117615 21.517868 68.23526 21.517868" fill-rule="evenodd"/><path stroke="#a4c2f4" stroke-width="16.0" stroke-linejoin="round" stroke-linecap="butt" d="m344.7595 114.12437c34.117615 0 51.176422 10.758934 68.23523 21.517876c17.058807 10.758926 34.117615 21.517868 68.23526 21.517868" fill-rule="evenodd"/><path fill="#ea9999" d="m288.07642 141.90152c-12.404083 6.444092 -27.227905 3.5331573 -36.063126 -7.0816803c-8.835205 -10.614838 -9.45163 -26.254196 -1.4996185 -38.04711c7.9520264 -11.792915 22.46524 -16.762657 35.307465 -12.090279z" fill-rule="evenodd"/><path stroke="#b6d7a8" stroke-width="1.0" stroke-linejoin="round" stroke-linecap="butt" d="m288.07642 141.90152c-12.404083 6.444092 -27.227905 3.5331573 -36.063126 -7.0816803c-8.835205 -10.614838 -9.45163 -26.254196 -1.4996185 -38.04711c7.9520264 -11.792915 22.46524 -16.762657 35.307465 -12.090279z" fill-rule="evenodd"/><path fill="#ea9999" d="m280.79752 83.32117l63.95981 23.940659l0 14.9629135l-62.655487 22.44323z" fill-rule="evenodd"/><path stroke="#b6d7a8" stroke-width="1.0" stroke-linejoin="round" stroke-linecap="butt" d="m280.79752 83.32117l63.95981 23.940659l0 14.9629135l-62.655487 22.44323z" fill-rule="evenodd"/><path fill="#ea9999" d="m248.28835 158.25146l0 0c-17.085526 -8.353043 -27.927795 -25.326187 -28.073837 -43.9485c-0.14604187 -18.622322 10.428757 -35.754868 27.381271 -44.361237l5.9322205 11.089554l0 0c-12.832581 6.402031 -20.850006 19.22596 -20.74022 33.17417c0.10978699 13.948219 8.328125 26.652977 21.26001 32.865883z" fill-rule="evenodd"/><path stroke="#b6d7a8" stroke-width="1.0" stroke-linejoin="round" stroke-linecap="butt" d="m248.28835 158.25146l0 0c-17.085526 -8.353043 -27.927795 -25.326187 -28.073837 -43.9485c-0.14604187 -18.622322 10.428757 -35.754868 27.381271 -44.361237l5.9322205 11.089554l0 0c-12.832581 6.402031 -20.850006 19.22596 -20.74022 33.17417c0.10978699 13.948219 8.328125 26.652977 21.26001 32.865883z" fill-rule="evenodd"/><path fill="#ea9999" d="m229.56122 169.76505l0 0c-18.67537 -10.306641 -30.3806 -33.126083 -29.680008 -57.861412c0.7005768 -24.735336 13.669708 -46.540215 32.88478 -55.288895l3.7675323 12.012825l0 0c-14.143631 7.1719437 -23.620377 24.289963 -24.159332 43.63942c-0.5389404 19.349457 7.96167 37.27707 21.670853 45.703323z" fill-rule="evenodd"/><path stroke="#b6d7a8" stroke-width="1.0" stroke-linejoin="round" stroke-linecap="butt" d="m229.56122 169.76505l0 0c-18.67537 -10.306641 -30.3806 -33.126083 -29.680008 -57.861412c0.7005768 -24.735336 13.669708 -46.540215 32.88478 -55.288895l3.7675323 12.012825l0 0c-14.143631 7.1719437 -23.620377 24.289963 -24.159332 43.63942c-0.5389404 19.349457 7.96167 37.27707 21.670853 45.703323z" fill-rule="evenodd"/><path fill="#ea9999" d="m207.64673 177.22668l0 0c-19.02855 -12.731949 -30.258896 -41.0941 -27.979614 -70.66221c2.2792969 -29.568108 17.567856 -53.851 38.090332 -60.49903l1.9167786 11.807495l0 0c-15.166199 5.858246 -26.398483 25.584923 -28.207764 49.539795c-1.8092804 23.954865 6.1822357 47.136368 20.069138 58.215927z" fill-rule="evenodd"/><path stroke="#b6d7a8" stroke-width="1.0" stroke-linejoin="round" stroke-linecap="butt" d="m207.64673 177.22668l0 0c-19.02855 -12.731949 -30.258896 -41.0941 -27.979614 -70.66221c2.2792969 -29.568108 17.567856 -53.851 38.090332 -60.49903l1.9167786 11.807495l0 0c-15.166199 5.858246 -26.398483 25.584923 -28.207764 49.539795c-1.8092804 23.954865 6.1822357 47.136368 20.069138 58.215927z" fill-rule="evenodd"/><path fill="#000000" fill-opacity="0.0" d="m344.7595 605.8786c34.117615 0 51.176422 -10.758911 68.23523 -21.517822c17.058807 -10.758972 34.117615 -21.517883 68.23526 -21.517883" fill-rule="evenodd"/><path stroke="#a4c2f4" stroke-width="16.0" stroke-linejoin="round" stroke-linecap="butt" d="m344.7595 605.8786c34.117615 0 51.176422 -10.758911 68.23523 -21.517822c17.058807 -10.758972 34.117615 -21.517883 68.23526 -21.517883" fill-rule="evenodd"/><path fill="#000000" fill-opacity="0.0" d="m344.7595 605.8786c34.117615 0 51.176422 10.758972 68.23523 21.517883c17.058807 10.758972 34.117615 21.517883 68.23526 21.517883" fill-rule="evenodd"/><path stroke="#a4c2f4" stroke-width="16.0" stroke-linejoin="round" stroke-linecap="butt" d="m344.7595 605.8786c34.117615 0 51.176422 10.758972 68.23523 21.517883c17.058807 10.758972 34.117615 21.517883 68.23526 21.517883" fill-rule="evenodd"/><path fill="#ea9999" d="m288.07642 633.65576c-12.404083 6.444092 -27.227905 3.533142 -36.063126 -7.081665c-8.835205 -10.614807 -9.45163 -26.254211 -1.4996185 -38.04712c7.9520264 -11.792908 22.46524 -16.762634 35.307465 -12.090271z" fill-rule="evenodd"/><path stroke="#b6d7a8" stroke-width="1.0" stroke-linejoin="round" stroke-linecap="butt" d="m288.07642 633.65576c-12.404083 6.444092 -27.227905 3.533142 -36.063126 -7.081665c-8.835205 -10.614807 -9.45163 -26.254211 -1.4996185 -38.04712c7.9520264 -11.792908 22.46524 -16.762634 35.307465 -12.090271z" fill-rule="evenodd"/><path fill="#ea9999" d="m280.79752 575.07544l63.95981 23.940674l0 14.962891l-62.655487 22.443237z" fill-rule="evenodd"/><path stroke="#b6d7a8" stroke-width="1.0" stroke-linejoin="round" stroke-linecap="butt" d="m280.79752 575.07544l63.95981 23.940674l0 14.962891l-62.655487 22.443237z" fill-rule="evenodd"/><path fill="#ea9999" d="m248.28835 650.00574l0 0c-17.085526 -8.353027 -27.927795 -25.326172 -28.073837 -43.948486c-0.14604187 -18.622375 10.428757 -35.754883 27.381271 -44.361267l5.9322205 11.089539l0 0c-12.832581 6.4020386 -20.850006 19.225952 -20.74022 33.174194c0.10978699 13.948242 8.328125 26.652954 21.26001 32.865906z" fill-rule="evenodd"/><path stroke="#b6d7a8" stroke-width="1.0" stroke-linejoin="round" stroke-linecap="butt" d="m248.28835 650.00574l0 0c-17.085526 -8.353027 -27.927795 -25.326172 -28.073837 -43.948486c-0.14604187 -18.622375 10.428757 -35.754883 27.381271 -44.361267l5.9322205 11.089539l0 0c-12.832581 6.4020386 -20.850006 19.225952 -20.74022 33.174194c0.10978699 13.948242 8.328125 26.652954 21.26001 32.865906z" fill-rule="evenodd"/><path fill="#ea9999" d="m229.56122 661.5193l0 0c-18.67537 -10.306641 -30.3806 -33.126038 -29.680008 -57.86139c0.7005768 -24.735352 13.669708 -46.540222 32.88478 -55.28888l3.7675323 12.012817l0 0c-14.143631 7.171936 -23.620377 24.289917 -24.159332 43.639404c-0.5389404 19.349487 7.96167 37.27704 21.670853 45.70331z" fill-rule="evenodd"/><path stroke="#b6d7a8" stroke-width="1.0" stroke-linejoin="round" stroke-linecap="butt" d="m229.56122 661.5193l0 0c-18.67537 -10.306641 -30.3806 -33.126038 -29.680008 -57.86139c0.7005768 -24.735352 13.669708 -46.540222 32.88478 -55.28888l3.7675323 12.012817l0 0c-14.143631 7.171936 -23.620377 24.289917 -24.159332 43.639404c-0.5389404 19.349487 7.96167 37.27704 21.670853 45.70331z" fill-rule="evenodd"/><path fill="#ea9999" d="m207.64673 668.98096l0 0c-19.02855 -12.731934 -30.258896 -41.094116 -27.979614 -70.66223c2.2792969 -29.568115 17.567856 -53.851013 38.090332 -60.499023l1.9167786 11.807495l0 0c-15.166199 5.8582764 -26.398483 25.5849 -28.207764 49.539795c-1.8092804 23.954895 6.1822357 47.136353 20.069138 58.215942z" fill-rule="evenodd"/><path stroke="#b6d7a8" stroke-width="1.0" stroke-linejoin="round" stroke-linecap="butt" d="m207.64673 668.98096l0 0c-19.02855 -12.731934 -30.258896 -41.094116 -27.979614 -70.66223c2.2792969 -29.568115 17.567856 -53.851013 38.090332 -60.499023l1.9167786 11.807495l0 0c-15.166199 5.8582764 -26.398483 25.5849 -28.207764 49.539795c-1.8092804 23.954895 6.1822357 47.136353 20.069138 58.215942z" fill-rule="evenodd"/><path fill="#000000" fill-opacity="0.0" d="m564.06036 155.57349l0 0c30.113586 0 58.993774 11.96257 80.28723 33.256073c21.293518 21.293503 33.256104 50.173676 33.256104 80.28723l-113.543335 0z" fill-rule="evenodd"/><path fill="#000000" fill-opacity="0.0" d="m564.06036 155.57349l0 0c30.113586 0 58.993774 11.96257 80.28723 33.256073c21.293518 21.293503 33.256104 50.173676 33.256104 80.28723" fill-rule="evenodd"/><path stroke="#b6d7a8" stroke-width="16.0" stroke-linejoin="round" stroke-linecap="butt" d="m564.06036 155.57349l0 0c30.113586 0 58.993774 11.96257 80.28723 33.256073c21.293518 21.293503 33.256104 50.173676 33.256104 80.28723" fill-rule="evenodd"/><path fill="#000000" fill-opacity="0.0" d="m677.6037 447.7126l0 0c0 30.113556 -11.962585 58.993744 -33.256104 80.28723c-21.293457 21.293518 -50.173645 33.256104 -80.28723 33.256104l0 -113.543335z" fill-rule="evenodd"/><path fill="#000000" fill-opacity="0.0" d="m677.6037 447.7126l0 0c0 30.113556 -11.962585 58.993744 -33.256104 80.28723c-21.293457 21.293518 -50.173645 33.256104 -80.28723 33.256104" fill-rule="evenodd"/><path stroke="#b6d7a8" stroke-width="16.0" stroke-linejoin="round" stroke-linecap="butt" d="m677.6037 447.7126l0 0c0 30.113556 -11.962585 58.993744 -33.256104 80.28723c-21.293457 21.293518 -50.173645 33.256104 -80.28723 33.256104" fill-rule="evenodd"/><path fill="#000000" fill-opacity="0.0" d="m677.6037 269.1168l0 178.58267" fill-rule="evenodd"/><path stroke="#b6d7a8" stroke-width="16.0" stroke-linejoin="round" stroke-linecap="butt" d="m677.6037 269.1168l0 178.58267" fill-rule="evenodd"/><path fill="#000000" fill-opacity="0.0" d="m564.06036 155.57349l-82.04724 0" fill-rule="evenodd"/><path stroke="#b6d7a8" stroke-width="16.0" stroke-linejoin="round" stroke-linecap="butt" d="m564.06036 155.57349l-82.04724 0" fill-rule="evenodd"/><path fill="#000000" fill-opacity="0.0" d="m564.06036 561.2559l-82.04724 0" fill-rule="evenodd"/><path stroke="#b6d7a8" stroke-width="16.0" stroke-linejoin="round" stroke-linecap="butt" d="m564.06036 561.2559l-82.04724 0" fill-rule="evenodd"/><path fill="#000000" fill-opacity="0.0" d="m616.00006 71.09025l0 0c102.62201 0 185.8136 72.00788 185.8136 160.8341l-185.8136 0z" fill-rule="evenodd"/><path fill="#000000" fill-opacity="0.0" d="m616.00006 71.09025l0 0c102.62201 0 185.8136 72.00788 185.8136 160.8341" fill-rule="evenodd"/><path stroke="#b6d7a8" stroke-width="16.0" stroke-linejoin="round" stroke-linecap="butt" d="m616.00006 71.09025l0 0c102.62201 0 185.8136 72.00788 185.8136 160.8341" fill-rule="evenodd"/><path fill="#000000" fill-opacity="0.0" d="m801.81366 484.9053l0 0c0 42.655853 -19.576721 83.564606 -54.423523 113.7269c-34.8468 30.162231 -82.10925 47.107178 -131.39008 47.107178l0 -160.83408z" fill-rule="evenodd"/><path fill="#000000" fill-opacity="0.0" d="m801.81366 484.9053l0 0c0 42.655853 -19.576721 83.564606 -54.423523 113.7269c-34.8468 30.162231 -82.10925 47.107178 -131.39008 47.107178" fill-rule="evenodd"/><path stroke="#b6d7a8" stroke-width="16.0" stroke-linejoin="round" stroke-linecap="butt" d="m801.81366 484.9053l0 0c0 42.655853 -19.576721 83.564606 -54.423523 113.7269c-34.8468 30.162231 -82.10925 47.107178 -131.39008 47.107178" fill-rule="evenodd"/><path fill="#000000" fill-opacity="0.0" d="m801.81366 231.92435l0 252.96237" fill-rule="evenodd"/><path stroke="#b6d7a8" stroke-width="16.0" stroke-linejoin="round" stroke-linecap="butt" d="m801.81366 231.92435l0 252.96237" fill-rule="evenodd"/><path fill="#000000" fill-opacity="0.0" d="m616.00006 71.09025l-134.27032 0" fill-rule="evenodd"/><path stroke="#b6d7a8" stroke-width="16.0" stroke-linejoin="round" stroke-linecap="butt" d="m616.00006 71.09025l-134.27032 0" fill-rule="evenodd"/><path fill="#000000" fill-opacity="0.0" d="m616.00006 645.7394l-134.27032 0" fill-rule="evenodd"/><path stroke="#b6d7a8" stroke-width="16.0" stroke-linejoin="round" stroke-linecap="butt" d="m616.00006 645.7394l-134.27032 0" fill-rule="evenodd"/><path fill="#000000" fill-opacity="0.0" d="m344.7595 114.12437c34.117615 0 51.176422 -10.758934 68.23523 -21.517868c17.058807 -10.758942 34.117615 -21.517876 68.23526 -21.517876" fill-rule="evenodd"/><path stroke="#a4c2f4" stroke-width="16.0" stroke-linejoin="round" stroke-linecap="butt" d="m344.7595 114.12437c34.117615 0 51.176422 -10.758934 68.23523 -21.517868c17.058807 -10.758942 34.117615 -21.517876 68.23526 -21.517876" fill-rule="evenodd"/><path fill="#000000" fill-opacity="0.0" d="m344.7595 114.12437c34.117615 0 51.176422 10.758934 68.23523 21.517876c17.058807 10.758926 34.117615 21.517868 68.23526 21.517868" fill-rule="evenodd"/><path stroke="#a4c2f4" stroke-width="16.0" stroke-linejoin="round" stroke-linecap="butt" d="m344.7595 114.12437c34.117615 0 51.176422 10.758934 68.23523 21.517876c17.058807 10.758926 34.117615 21.517868 68.23526 21.517868" fill-rule="evenodd"/><path fill="#000000" fill-opacity="0.0" d="m344.7595 605.8786c34.117615 0 51.176422 -10.758911 68.23523 -21.517822c17.058807 -10.758972 34.117615 -21.517883 68.23526 -21.517883" fill-rule="evenodd"/><path stroke="#a4c2f4" stroke-width="16.0" stroke-linejoin="round" stroke-linecap="butt" d="m344.7595 605.8786c34.117615 0 51.176422 -10.758911 68.23523 -21.517822c17.058807 -10.758972 34.117615 -21.517883 68.23526 -21.517883" fill-rule="evenodd"/><path fill="#000000" fill-opacity="0.0" d="m344.7595 605.8786c34.117615 0 51.176422 10.758972 68.23523 21.517883c17.058807 10.758972 34.117615 21.517883 68.23526 21.517883" fill-rule="evenodd"/><path stroke="#a4c2f4" stroke-width="16.0" stroke-linejoin="round" stroke-linecap="butt" d="m344.7595 605.8786c34.117615 0 51.176422 10.758972 68.23523 21.517883c17.058807 10.758972 34.117615 21.517883 68.23526 21.517883" fill-rule="evenodd"/><path fill="#000000" fill-opacity="0.0" d="m37.879265 302.5853l218.83463 0l0 95.3071l-218.83463 0z" fill-rule="evenodd"/><path stroke="#ea9999" stroke-width="4.0" stroke-linejoin="round" stroke-linecap="butt" d="m37.879265 302.5853l218.83463 0l0 95.3071l-218.83463 0z" fill-rule="evenodd"/><path fill="#ea9999" d="m98.94502 329.47717l9.0625 0l0 11.84375q-2.203125 0.71875 -4.15625 1.0q-1.9375 0.296875 -3.96875 0.296875q-5.171875 0 -7.90625 -3.03125q-2.71875 -3.046875 -2.71875 -8.734375q0 -5.53125 3.15625 -8.625q3.171875 -3.09375 8.78125 -3.09375q3.515625 0 6.78125 1.40625l-1.609375 3.875q-2.5 -1.25 -5.203125 -1.25q-3.140625 0 -5.03125 2.109375q-1.890625 2.109375 -1.890625 5.671875q0 3.71875 1.515625 5.6875q1.53125 1.953125 4.4375 1.953125q1.515625 0 3.078125 -0.3125l0 -4.765625l-4.328125 0l0 -4.03125zm23.875 -4.96875q0.96875 0 1.609375 0.140625l-0.359375 4.46875q-0.578125 -0.15625 -1.40625 -0.15625q-2.28125 0 -3.5625 1.171875q-1.265625 1.171875 -1.265625 3.28125l0 8.890625l-4.765625 0l0 -17.46875l3.609375 0l0.703125 2.9375l0.234375 0q0.8125 -1.46875 2.1875 -2.359375q1.390625 -0.90625 3.015625 -0.90625zm15.875 17.796875l-0.921875 -2.375l-0.125 0q-1.203125 1.515625 -2.484375 2.109375q-1.265625 0.578125 -3.3125 0.578125q-2.515625 0 -3.96875 -1.4375q-1.4375 -1.4375 -1.4375 -4.09375q0 -2.78125 1.9375 -4.09375q1.953125 -1.328125 5.875 -1.46875l3.03125 -0.09375l0 -0.765625q0 -2.65625 -2.71875 -2.65625q-2.09375 0 -4.921875 1.265625l-1.578125 -3.21875q3.015625 -1.578125 6.6875 -1.578125q3.515625 0 5.390625 1.53125q1.875 1.53125 1.875 4.65625l0 11.640625l-3.328125 0zm-1.40625 -8.09375l-1.84375 0.0625q-2.078125 0.0625 -3.09375 0.75q-1.015625 0.6875 -1.015625 2.09375q0 2.015625 2.3125 2.015625q1.65625 0 2.640625 -0.953125q1.0 -0.953125 1.0 -2.53125l0 -1.4375zm17.0 4.609375q1.25 0 3.0 -0.546875l0 3.546875q-1.78125 0.796875 -4.375 0.796875q-2.859375 0 -4.171875 -1.4375q-1.296875 -1.453125 -1.296875 -4.34375l0 -8.421875l-2.28125 0l0 -2.015625l2.625 -1.59375l1.375 -3.6875l3.046875 0l0 3.71875l4.890625 0l0 3.578125l-4.890625 0l0 8.421875q0 1.015625 0.5625 1.5q0.578125 0.484375 1.515625 0.484375zm6.328125 -18.5q0 -2.328125 2.59375 -2.328125q2.59375 0 2.59375 2.328125q0 1.109375 -0.65625 1.734375q-0.640625 0.609375 -1.9375 0.609375q-2.59375 0 -2.59375 -2.34375zm4.96875 21.984375l-4.765625 0l0 -17.46875l4.765625 0l0 17.46875zm21.125015 0l-4.765625 0l0 -10.203125q0 -1.890625 -0.671875 -2.828125q-0.671875 -0.953125 -2.140625 -0.953125q-2.0 0 -2.890625 1.34375q-0.890625 1.328125 -0.890625 4.421875l0 8.21875l-4.765625 0l0 -17.46875l3.640625 0l0.640625 2.234375l0.265625 0q0.796875 -1.265625 2.1875 -1.90625q1.40625 -0.65625 3.1875 -0.65625q3.046875 0 4.625 1.65625q1.578125 1.640625 1.578125 4.75l0 11.390625zm20.109375 -17.46875l0 2.421875l-2.734375 0.703125q0.75 1.171875 0.75 2.625q0 2.8125 -1.96875 4.390625q-1.953125 1.5625 -5.4375 1.5625l-0.859375 -0.046875l-0.703125 -0.078125q-0.734375 0.5625 -0.734375 1.25q0 1.03125 2.625 1.03125l2.96875 0q2.875 0 4.375 1.234375q1.515625 1.234375 1.515625 3.625q0 3.0625 -2.5625 4.75q-2.546875 1.6875 -7.328125 1.6875q-3.65625 0 -5.59375 -1.28125q-1.921875 -1.265625 -1.921875 -3.5625q0 -1.578125 0.984375 -2.640625q0.984375 -1.0625 2.890625 -1.515625q-0.734375 -0.3125 -1.28125 -1.015625q-0.546875 -0.71875 -0.546875 -1.515625q0 -1.0 0.578125 -1.65625q0.578125 -0.671875 1.671875 -1.3125q-1.375 -0.59375 -2.1875 -1.90625q-0.796875 -1.3125 -0.796875 -3.09375q0 -2.859375 1.859375 -4.421875q1.859375 -1.5625 5.3125 -1.5625q0.734375 0 1.734375 0.140625q1.015625 0.125 1.296875 0.1875l6.09375 0zm-13.484375 19.9375q0 0.984375 0.9375 1.546875q0.953125 0.5625 2.65625 0.5625q2.5625 0 4.015625 -0.703125q1.453125 -0.703125 1.453125 -1.921875q0 -0.984375 -0.859375 -1.359375q-0.859375 -0.375 -2.65625 -0.375l-2.46875 0q-1.3125 0 -2.203125 0.609375q-0.875 0.625 -0.875 1.640625zm1.734375 -14.21875q0 1.421875 0.640625 2.25q0.65625 0.828125 1.984375 0.828125q1.34375 0 1.96875 -0.828125q0.625 -0.828125 0.625 -2.25q0 -3.15625 -2.59375 -3.15625q-2.625 0 -2.625 3.15625z" fill-rule="nonzero"/><path fill="#ea9999" d="m89.577835 361.16467q-2.734375 0 -4.234375 2.0625q-1.5 2.046875 -1.5 5.71875q0 7.640625 5.734375 7.640625q2.40625 0 5.828125 -1.203125l0 4.0625q-2.8125 1.171875 -6.28125 1.171875q-4.984375 0 -7.625 -3.015625q-2.640625 -3.03125 -2.640625 -8.6875q0 -3.5625 1.296875 -6.234375q1.296875 -2.6875 3.71875 -4.109375q2.4375 -1.4375 5.703125 -1.4375q3.328125 0 6.6875 1.609375l-1.5625 3.9375q-1.28125 -0.609375 -2.578125 -1.0625q-1.296875 -0.453125 -2.546875 -0.453125zm14.109375 10.375q0 2.59375 0.84375 3.921875q0.859375 1.328125 2.78125 1.328125q1.90625 0 2.734375 -1.3125q0.84375 -1.328125 0.84375 -3.9375q0 -2.59375 -0.84375 -3.890625q-0.84375 -1.296875 -2.765625 -1.296875q-1.90625 0 -2.75 1.296875q-0.84375 1.28125 -0.84375 3.890625zm12.078125 0q0 4.265625 -2.25 6.671875q-2.25 2.40625 -6.265625 2.40625q-2.515625 0 -4.4375 -1.09375q-1.921875 -1.109375 -2.953125 -3.171875q-1.03125 -2.0625 -1.03125 -4.8125q0 -4.28125 2.234375 -6.65625q2.234375 -2.375 6.28125 -2.375q2.515625 0 4.4375 1.09375q1.921875 1.09375 2.953125 3.140625q1.03125 2.046875 1.03125 4.796875zm16.3125 8.765625l-0.640625 -2.234375l-0.25 0q-0.765625 1.21875 -2.171875 1.890625q-1.40625 0.65625 -3.203125 0.65625q-3.078125 0 -4.640625 -1.640625q-1.5625 -1.65625 -1.5625 -4.75l0 -11.390625l4.765625 0l0 10.203125q0 1.890625 0.671875 2.84375q0.671875 0.9375 2.140625 0.9375q2.0 0 2.890625 -1.328125q0.890625 -1.34375 0.890625 -4.4375l0 -8.21875l4.765625 0l0 17.46875l-3.65625 0zm18.25 0.3125q-3.078125 0 -4.828125 -2.234375l-0.25 0q0.25 2.1875 0.25 2.53125l0 7.078125l-4.765625 0l0 -25.15625l3.875 0l0.671875 2.265625l0.21875 0q1.671875 -2.59375 4.953125 -2.59375q3.09375 0 4.84375 2.390625q1.75 2.390625 1.75 6.640625q0 2.796875 -0.828125 4.859375q-0.8125 2.0625 -2.328125 3.140625q-1.515625 1.078125 -3.5625 1.078125zm-1.40625 -14.296875q-1.765625 0 -2.578125 1.09375q-0.8125 1.078125 -0.84375 3.578125l0 0.515625q0 2.8125 0.828125 4.03125q0.84375 1.21875 2.65625 1.21875q3.203125 0 3.203125 -5.28125q0 -2.578125 -0.796875 -3.859375q-0.78125 -1.296875 -2.46875 -1.296875zm16.828125 13.984375l-4.765625 0l0 -24.3125l4.765625 0l0 24.3125zm12.23439 -14.40625q-1.515625 0 -2.375 0.96875q-0.859375 0.953125 -0.984375 2.71875l6.6875 0q-0.03125 -1.765625 -0.921875 -2.71875q-0.890625 -0.96875 -2.40625 -0.96875zm0.671875 14.71875q-4.21875 0 -6.59375 -2.328125q-2.375 -2.328125 -2.375 -6.59375q0 -4.390625 2.1875 -6.78125q2.203125 -2.40625 6.078125 -2.40625q3.703125 0 5.765625 2.109375q2.0625 2.109375 2.0625 5.828125l0 2.3125l-11.265625 0q0.078125 2.03125 1.203125 3.171875q1.125 1.140625 3.15625 1.140625q1.578125 0 2.984375 -0.328125q1.40625 -0.328125 2.9375 -1.046875l0 3.6875q-1.25 0.625 -2.671875 0.921875q-1.421875 0.3125 -3.46875 0.3125zm20.75 -18.109375q0.96875 0 1.609375 0.140625l-0.359375 4.46875q-0.578125 -0.15625 -1.40625 -0.15625q-2.28125 0 -3.5625 1.171875q-1.265625 1.171875 -1.265625 3.28125l0 8.890625l-4.765625 0l0 -17.46875l3.609375 0l0.703125 2.9375l0.234375 0q0.8125 -1.46875 2.1875 -2.359375q1.390625 -0.90625 3.015625 -0.90625zm16.96875 12.609375q0 2.6875 -1.875 4.09375q-1.859375 1.40625 -5.578125 1.40625q-1.90625 0 -3.25 -0.265625q-1.34375 -0.25 -2.515625 -0.75l0 -3.9375q1.328125 0.625 2.984375 1.046875q1.671875 0.421875 2.9375 0.421875q2.59375 0 2.59375 -1.5q0 -0.5625 -0.34375 -0.90625q-0.34375 -0.359375 -1.1875 -0.796875q-0.84375 -0.453125 -2.25 -1.046875q-2.015625 -0.84375 -2.96875 -1.5625q-0.9375 -0.71875 -1.375 -1.640625q-0.421875 -0.9375 -0.421875 -2.296875q0 -2.328125 1.796875 -3.59375q1.8125 -1.28125 5.125 -1.28125q3.15625 0 6.140625 1.375l-1.4375 3.4375q-1.3125 -0.5625 -2.453125 -0.921875q-1.140625 -0.359375 -2.328125 -0.359375q-2.109375 0 -2.109375 1.140625q0 0.640625 0.671875 1.109375q0.6875 0.46875 2.984375 1.390625q2.046875 0.828125 3.0 1.546875q0.953125 0.71875 1.40625 1.65625q0.453125 0.9375 0.453125 2.234375z" fill-rule="nonzero"/><path fill="#000000" fill-opacity="0.0" d="m344.75854 317.53018l199.59052 0l0 65.41733l-199.59052 0z" fill-rule="evenodd"/><path stroke="#a4c2f4" stroke-width="4.0" stroke-linejoin="round" stroke-linecap="butt" d="m344.75854 317.53018l199.59052 0l0 65.41733l-199.59052 0z" fill-rule="evenodd"/><path fill="#a4c2f4" d="m372.9991 343.81268l4.765625 -9.40625l5.21875 0l-7.578125 13.953125l0 8.890625l-4.8125 0l0 -8.734375l-7.578125 -14.109375l5.25 0l4.734375 9.40625zm10.9375 6.8125l0 -3.90625l8.390625 0l0 3.90625l-8.390625 0zm24.03125 1.4375q0 2.6875 -1.875 4.09375q-1.859375 1.40625 -5.578125 1.40625q-1.90625 0 -3.25 -0.265625q-1.34375 -0.25 -2.515625 -0.75l0 -3.9375q1.328125 0.625 2.984375 1.046875q1.671875 0.421875 2.9375 0.421875q2.59375 0 2.59375 -1.5q0 -0.5625 -0.34375 -0.90625q-0.34375 -0.359375 -1.1875 -0.796875q-0.84375 -0.453125 -2.25 -1.046875q-2.015625 -0.84375 -2.96875 -1.5625q-0.9375 -0.71875 -1.375 -1.640625q-0.421875 -0.9375 -0.421875 -2.296875q0 -2.328125 1.796875 -3.59375q1.8125 -1.28125 5.125 -1.28125q3.15625 0 6.140625 1.375l-1.4375 3.4375q-1.3125 -0.5625 -2.453125 -0.921875q-1.140625 -0.359375 -2.328125 -0.359375q-2.109375 0 -2.109375 1.140625q0 0.640625 0.671875 1.109375q0.6875 0.46875 2.984375 1.390625q2.046875 0.828125 3.0 1.546875q0.953125 0.71875 1.40625 1.65625q0.453125 0.9375 0.453125 2.234375zm13.3125 5.5q-3.078125 0 -4.828125 -2.234375l-0.25 0q0.25 2.1875 0.25 2.53125l0 7.078125l-4.765625 0l0 -25.15625l3.875 0l0.671875 2.265625l0.21875 0q1.671875 -2.59375 4.953125 -2.59375q3.09375 0 4.84375 2.390625q1.75 2.390625 1.75 6.640625q0 2.796875 -0.828125 4.859375q-0.8125 2.0625 -2.328125 3.140625q-1.515625 1.078125 -3.5625 1.078125zm-1.40625 -14.296875q-1.765625 0 -2.578125 1.09375q-0.8125 1.078125 -0.84375 3.578125l0 0.515625q0 2.8125 0.828125 4.03125q0.84375 1.21875 2.65625 1.21875q3.203125 0 3.203125 -5.28125q0 -2.578125 -0.796875 -3.859375q-0.78125 -1.296875 -2.46875 -1.296875zm16.828125 13.984375l-4.765625 0l0 -24.3125l4.765625 0l0 24.3125zm4.796875 -21.984375q0 -2.328125 2.59375 -2.328125q2.59375 0 2.59375 2.328125q0 1.109375 -0.65625 1.734375q-0.640625 0.609375 -1.9375 0.609375q-2.59375 0 -2.59375 -2.34375zm4.96875 21.984375l-4.765625 0l0 -17.46875l4.765625 0l0 17.46875zm12.359375 -3.484375q1.25 0 3.0 -0.546875l0 3.546875q-1.78125 0.796875 -4.375 0.796875q-2.859375 0 -4.171875 -1.4375q-1.296875 -1.453125 -1.296875 -4.34375l0 -8.421875l-2.28125 0l0 -2.015625l2.625 -1.59375l1.375 -3.6875l3.046875 0l0 3.71875l4.890625 0l0 3.578125l-4.890625 0l0 8.421875q0 1.015625 0.5625 1.5q0.578125 0.484375 1.515625 0.484375zm13.890625 0q1.25 0 3.0 -0.546875l0 3.546875q-1.78125 0.796875 -4.375 0.796875q-2.859375 0 -4.171875 -1.4375q-1.296875 -1.453125 -1.296875 -4.34375l0 -8.421875l-2.28125 0l0 -2.015625l2.625 -1.59375l1.375 -3.6875l3.046875 0l0 3.71875l4.890625 0l0 3.578125l-4.890625 0l0 8.421875q0 1.015625 0.5625 1.5q0.578125 0.484375 1.515625 0.484375zm13.765625 -10.921875q-1.515625 0 -2.375 0.96875q-0.859375 0.953125 -0.984375 2.71875l6.6875 0q-0.03125 -1.765625 -0.921875 -2.71875q-0.890625 -0.96875 -2.40625 -0.96875zm0.671875 14.71875q-4.21875 0 -6.59375 -2.328125q-2.375 -2.328125 -2.375 -6.59375q0 -4.390625 2.1875 -6.78125q2.203125 -2.40625 6.078125 -2.40625q3.703125 0 5.765625 2.109375q2.0625 2.109375 2.0625 5.828125l0 2.3125l-11.265625 0q0.078125 2.03125 1.203125 3.171875q1.125 1.140625 3.15625 1.140625q1.578125 0 2.984375 -0.328125q1.40625 -0.328125 2.9375 -1.046875l0 3.6875q-1.25 0.625 -2.671875 0.921875q-1.421875 0.3125 -3.46875 0.3125zm20.75 -18.109375q0.96875 0 1.609375 0.140625l-0.359375 4.46875q-0.578125 -0.15625 -1.40625 -0.15625q-2.28125 0 -3.5625 1.171875q-1.265625 1.171875 -1.265625 3.28125l0 8.890625l-4.765625 0l0 -17.46875l3.609375 0l0.703125 2.9375l0.234375 0q0.8125 -1.46875 2.1875 -2.359375q1.390625 -0.90625 3.015625 -0.90625zm16.96878 12.609375q0 2.6875 -1.875 4.09375q-1.859375 1.40625 -5.578125 1.40625q-1.90625 0 -3.25 -0.265625q-1.34375 -0.25 -2.5156555 -0.75l0 -3.9375q1.3281555 0.625 2.9844055 1.046875q1.671875 0.421875 2.9375 0.421875q2.59375 0 2.59375 -1.5q0 -0.5625 -0.34375 -0.90625q-0.34375 -0.359375 -1.1875 -0.796875q-0.84375 -0.453125 -2.25 -1.046875q-2.015625 -0.84375 -2.96875 -1.5625q-0.9375 -0.71875 -1.375 -1.640625q-0.42190552 -0.9375 -0.42190552 -2.296875q0 -2.328125 1.7969055 -3.59375q1.8125 -1.28125 5.125 -1.28125q3.15625 0 6.140625 1.375l-1.4375 3.4375q-1.3125 -0.5625 -2.453125 -0.921875q-1.140625 -0.359375 -2.328125 -0.359375q-2.109375 0 -2.109375 1.140625q0 0.640625 0.671875 1.109375q0.6875 0.46875 2.984375 1.390625q2.046875 0.828125 3.0 1.546875q0.953125 0.71875 1.40625 1.65625q0.453125 0.9375 0.453125 2.234375z" fill-rule="nonzero"/><path fill="#000000" fill-opacity="0.0" d="m619.40155 702.12335l227.08661 0l0 65.41736l-227.08661 0z" fill-rule="evenodd"/><path stroke="#b6d7a8" stroke-width="4.0" stroke-linejoin="round" stroke-linecap="butt" d="m619.40155 702.12335l227.08661 0l0 65.41736l-227.08661 0z" fill-rule="evenodd"/><path fill="#b6d7a8" d="m662.41364 741.8434l-5.515625 0l-3.09375 -12.0q-0.171875 -0.640625 -0.59375 -2.640625q-0.40625 -2.015625 -0.46875 -2.703125q-0.09375 0.84375 -0.46875 2.71875q-0.375 1.859375 -0.578125 2.65625l-3.078125 11.96875l-5.5 0l-5.828125 -22.84375l4.765625 0l2.921875 12.46875q0.765625 3.453125 1.109375 5.984375q0.09375 -0.890625 0.421875 -2.75q0.34375 -1.875 0.640625 -2.90625l3.328125 -12.796875l4.578125 0l3.328125 12.796875q0.21875 0.859375 0.546875 2.625q0.328125 1.765625 0.5 3.03125q0.15625 -1.21875 0.5 -3.03125q0.34375 -1.828125 0.625 -2.953125l2.90625 -12.46875l4.765625 0l-5.8125 22.84375zm19.40625 0l-0.921875 -2.375l-0.125 0q-1.203125 1.515625 -2.484375 2.109375q-1.265625 0.578125 -3.3125 0.578125q-2.515625 0 -3.96875 -1.4375q-1.4375 -1.4375 -1.4375 -4.09375q0 -2.78125 1.9375 -4.09375q1.953125 -1.328125 5.875 -1.46875l3.03125 -0.09375l0 -0.765625q0 -2.65625 -2.71875 -2.65625q-2.09375 0 -4.921875 1.265625l-1.578125 -3.21875q3.015625 -1.578125 6.6875 -1.578125q3.515625 0 5.390625 1.53125q1.875 1.53125 1.875 4.65625l0 11.640625l-3.328125 0zm-1.40625 -8.09375l-1.84375 0.0625q-2.078125 0.0625 -3.09375 0.75q-1.015625 0.6875 -1.015625 2.09375q0 2.015625 2.3125 2.015625q1.65625 0 2.640625 -0.953125q1.0 -0.953125 1.0 -2.53125l0 -1.4375zm13.796875 8.09375l-6.65625 -17.46875l4.984375 0l3.375 9.953125q0.5625 1.890625 0.703125 3.578125l0.09375 0q0.078125 -1.5 0.703125 -3.578125l3.359375 -9.953125l4.984375 0l-6.65625 17.46875l-4.890625 0zm21.28125 -14.40625q-1.515625 0 -2.375 0.96875q-0.859375 0.953125 -0.984375 2.71875l6.6875 0q-0.03125 -1.765625 -0.921875 -2.71875q-0.890625 -0.96875 -2.40625 -0.96875zm0.671875 14.71875q-4.21875 0 -6.59375 -2.328125q-2.375 -2.328125 -2.375 -6.59375q0 -4.390625 2.1875 -6.78125q2.203125 -2.40625 6.078125 -2.40625q3.703125 0 5.765625 2.109375q2.0625 2.109375 2.0625 5.828125l0 2.3125l-11.265625 0q0.078125 2.03125 1.203125 3.171875q1.125 1.140625 3.15625 1.140625q1.578125 0 2.984375 -0.328125q1.40625 -0.328125 2.9375 -1.046875l0 3.6875q-1.25 0.625 -2.671875 0.921875q-1.421875 0.3125 -3.46875 0.3125zm26.203125 -17.78125l0 2.421875l-2.734375 0.703125q0.75 1.171875 0.75 2.625q0 2.8125 -1.96875 4.390625q-1.953125 1.5625 -5.4375 1.5625l-0.859375 -0.046875l-0.703125 -0.078125q-0.734375 0.5625 -0.734375 1.25q0 1.03125 2.625 1.03125l2.96875 0q2.875 0 4.375 1.234375q1.515625 1.234375 1.515625 3.625q0 3.0625 -2.5625 4.75q-2.546875 1.6875 -7.328125 1.6875q-3.65625 0 -5.59375 -1.28125q-1.921875 -1.265625 -1.921875 -3.5625q0 -1.578125 0.984375 -2.640625q0.984375 -1.0625 2.890625 -1.515625q-0.734375 -0.3125 -1.28125 -1.015625q-0.546875 -0.71875 -0.546875 -1.515625q0 -1.0 0.578125 -1.65625q0.578125 -0.671875 1.671875 -1.3125q-1.375 -0.59375 -2.1875 -1.90625q-0.796875 -1.3125 -0.796875 -3.09375q0 -2.859375 1.859375 -4.421875q1.859375 -1.5625 5.3125 -1.5625q0.734375 0 1.734375 0.140625q1.015625 0.125 1.296875 0.1875l6.09375 0zm-13.484375 19.9375q0 0.984375 0.9375 1.546875q0.953125 0.5625 2.65625 0.5625q2.5625 0 4.015625 -0.703125q1.453125 -0.703125 1.453125 -1.921875q0 -0.984375 -0.859375 -1.359375q-0.859375 -0.375 -2.65625 -0.375l-2.46875 0q-1.3125 0 -2.203125 0.609375q-0.875 0.625 -0.875 1.640625zm1.734375 -14.21875q0 1.421875 0.640625 2.25q0.65625 0.828125 1.984375 0.828125q1.34375 0 1.96875 -0.828125q0.625 -0.828125 0.625 -2.25q0 -3.15625 -2.59375 -3.15625q-2.625 0 -2.625 3.15625zm27.0 11.75l-0.640625 -2.234375l-0.25 0q-0.765625 1.21875 -2.171875 1.890625q-1.40625 0.65625 -3.203125 0.65625q-3.078125 0 -4.640625 -1.640625q-1.5625 -1.65625 -1.5625 -4.75l0 -11.390625l4.765625 0l0 10.203125q0 1.890625 0.671875 2.84375q0.671875 0.9375 2.140625 0.9375q2.0 0 2.890625 -1.328125q0.890625 -1.34375 0.890625 -4.4375l0 -8.21875l4.765625 0l0 17.46875l-3.65625 0zm8.453125 -21.984375q0 -2.328125 2.59375 -2.328125q2.59375 0 2.59375 2.328125q0 1.109375 -0.65625 1.734375q-0.640625 0.609375 -1.9375 0.609375q-2.59375 0 -2.59375 -2.34375zm4.96875 21.984375l-4.765625 0l0 -17.46875l4.765625 0l0 17.46875zm10.53125 0.3125q-3.078125 0 -4.84375 -2.390625q-1.75 -2.390625 -1.75 -6.625q0 -4.296875 1.78125 -6.6875q1.796875 -2.40625 4.9375 -2.40625q3.296875 0 5.03125 2.5625l0.15625 0q-0.359375 -1.953125 -0.359375 -3.484375l0 -5.59375l4.78125 0l0 24.3125l-3.65625 0l-0.921875 -2.265625l-0.203125 0q-1.625 2.578125 -4.953125 2.578125zm1.671875 -3.796875q1.828125 0 2.671875 -1.0625q0.859375 -1.0625 0.9375 -3.609375l0 -0.515625q0 -2.8125 -0.875 -4.03125q-0.859375 -1.21875 -2.8125 -1.21875q-1.59375 0 -2.484375 1.359375q-0.875 1.34375 -0.875 3.921875q0 2.578125 0.890625 3.875q0.890625 1.28125 2.546875 1.28125zm20.28125 -10.921875q-1.515625 0 -2.375 0.96875q-0.859375 0.953125 -0.984375 2.71875l6.6875 0q-0.03125 -1.765625 -0.921875 -2.71875q-0.890625 -0.96875 -2.40625 -0.96875zm0.671875 14.71875q-4.21875 0 -6.59375 -2.328125q-2.375 -2.328125 -2.375 -6.59375q0 -4.390625 2.1875 -6.78125q2.203125 -2.40625 6.078125 -2.40625q3.703125 0 5.765625 2.109375q2.0625 2.109375 2.0625 5.828125l0 2.3125l-11.265625 0q0.078125 2.03125 1.203125 3.171875q1.125 1.140625 3.15625 1.140625q1.578125 0 2.984375 -0.328125q1.40625 -0.328125 2.9375 -1.046875l0 3.6875q-1.25 0.625 -2.671875 0.921875q-1.421875 0.3125 -3.46875 0.3125zm23.1875 -5.5q0 2.6875 -1.875 4.09375q-1.859375 1.40625 -5.578125 1.40625q-1.90625 0 -3.25 -0.265625q-1.34375 -0.25 -2.515625 -0.75l0 -3.9375q1.328125 0.625 2.984375 1.046875q1.671875 0.421875 2.9375 0.421875q2.59375 0 2.59375 -1.5q0 -0.5625 -0.34375 -0.90625q-0.34375 -0.359375 -1.1875 -0.796875q-0.84375 -0.453125 -2.25 -1.046875q-2.015625 -0.84375 -2.96875 -1.5625q-0.9375 -0.71875 -1.375 -1.640625q-0.421875 -0.9375 -0.421875 -2.296875q0 -2.328125 1.796875 -3.59375q1.8125 -1.28125 5.125 -1.28125q3.15625 0 6.140625 1.375l-1.4375 3.4375q-1.3125 -0.5625 -2.453125 -0.921875q-1.140625 -0.359375 -2.328125 -0.359375q-2.109375 0 -2.109375 1.140625q0 0.640625 0.671875 1.109375q0.6875 0.46875 2.984375 1.390625q2.046875 0.828125 3.0 1.546875q0.953125 0.71875 1.40625 1.65625q0.453125 0.9375 0.453125 2.234375z" fill-rule="nonzero"/><path fill="#000000" fill-opacity="0.0" d="m147.29659 302.5853l62.29921 -131.1496" fill-rule="evenodd"/><path stroke="#ea9999" stroke-width="4.0" stroke-linejoin="round" stroke-linecap="butt" stroke-dasharray="16.0,12.0" d="m147.29659 302.5853l62.29921 -131.1496" fill-rule="evenodd"/><path fill="#000000" fill-opacity="0.0" d="m147.28276 397.89667l71.433075 145.82678" fill-rule="evenodd"/><path stroke="#ea9999" stroke-width="4.0" stroke-linejoin="round" stroke-linecap="butt" stroke-dasharray="16.0,12.0" d="m147.28276 397.89667l71.433075 145.82678" fill-rule="evenodd"/><path fill="#000000" fill-opacity="0.0" d="m444.5538 317.53018l-39.370087 -176.8189" fill-rule="evenodd"/><path stroke="#a4c2f4" stroke-width="4.0" stroke-linejoin="round" stroke-linecap="butt" stroke-dasharray="16.0,12.0" d="m444.5538 317.53018l-39.370087 -176.8189" fill-rule="evenodd"/><path fill="#000000" fill-opacity="0.0" d="m444.5538 382.9475l-59.716522 203.62207" fill-rule="evenodd"/><path stroke="#a4c2f4" stroke-width="4.0" stroke-linejoin="round" stroke-linecap="butt" stroke-dasharray="16.0,12.0" d="m444.5538 382.9475l-59.716522 203.62207" fill-rule="evenodd"/><path fill="#000000" fill-opacity="0.0" d="m619.40155 734.83203l-55.338562 -173.57483" fill-rule="evenodd"/><path stroke="#b6d7a8" stroke-width="4.0" stroke-linejoin="round" stroke-linecap="butt" stroke-dasharray="16.0,12.0" d="m619.40155 734.83203l-55.338562 -173.57483" fill-rule="evenodd"/><path fill="#000000" fill-opacity="0.0" d="m846.48816 734.83203l-44.661377 -249.92126" fill-rule="evenodd"/><path stroke="#b6d7a8" stroke-width="4.0" stroke-linejoin="round" stroke-linecap="butt" stroke-dasharray="16.0,12.0" d="m846.48816 734.83203l-44.661377 -249.92126" fill-rule="evenodd"/></g></svg>
