<svg version="1.1" viewBox="0.0 0.0 939.2047244094488 824.8372703412074" fill="none" stroke="none" stroke-linecap="square" stroke-miterlimit="10" xmlns:xlink="http://www.w3.org/1999/xlink" xmlns="http://www.w3.org/2000/svg"><clipPath id="p.0"><path d="m0 0l939.2047 0l0 824.8373l-939.2047 0l0 -824.8373z" clip-rule="nonzero"/></clipPath><g clip-path="url(#p.0)"><path fill="#000000" fill-opacity="0.0" d="m0 0l939.2047 0l0 824.8373l-939.2047 0z" fill-rule="evenodd"/><path fill="#000000" fill-opacity="0.0" d="m277.48035 458.782c91.661285 0 137.49191 -28.905457 183.32257 -57.810944c45.830627 -28.905457 91.661255 -57.810944 183.32257 -57.810944" fill-rule="evenodd"/><path stroke="#a4c2f4" stroke-width="16.0" stroke-linejoin="round" stroke-linecap="butt" d="m277.48035 458.782c91.661285 0 137.49191 -28.905457 183.32257 -57.810944c45.830627 -28.905457 91.661255 -57.810944 183.32257 -57.810944" fill-rule="evenodd"/><path fill="#000000" fill-opacity="0.0" d="m277.48035 458.782c91.661285 0 137.49191 28.905487 183.32257 57.810944c45.830627 28.905457 91.661255 57.810974 183.32257 57.810974" fill-rule="evenodd"/><path stroke="#a4c2f4" stroke-width="16.0" stroke-linejoin="round" stroke-linecap="butt" d="m277.48035 458.782c91.661285 0 137.49191 28.905487 183.32257 57.810944c45.830627 28.905457 91.661255 57.810974 183.32257 57.810974" fill-rule="evenodd"/><path fill="#000000" fill-opacity="0.0" d="m277.5013 451.0l-0.50393677 16.503937" fill-rule="evenodd"/><path stroke="#6aa84f" stroke-width="4.0" stroke-linejoin="round" stroke-linecap="butt" d="m277.5013 451.0l-0.50393677 16.503937" fill-rule="evenodd"/><path fill="#000000" fill-opacity="0.0" d="m645.50134 335.5013l0 16.0" fill-rule="evenodd"/><path stroke="#6aa84f" stroke-width="4.0" stroke-linejoin="round" stroke-linecap="butt" d="m645.50134 335.5013l0 16.0" fill-rule="evenodd"/><path fill="#000000" fill-opacity="0.0" d="m646.0 566.50134l0 17.51178" fill-rule="evenodd"/><path stroke="#6aa84f" stroke-width="4.0" stroke-linejoin="round" stroke-linecap="butt" d="m646.0 566.50134l0 17.51178" fill-rule="evenodd"/><path fill="#000000" fill-opacity="0.0" d="m229.50131 383.0l41.984253 68.0" fill-rule="evenodd"/><path stroke="#6aa84f" stroke-width="1.0" stroke-linejoin="round" stroke-linecap="butt" d="m229.50131 383.0l38.832153 62.894684" fill-rule="evenodd"/><path fill="#6aa84f" stroke="#6aa84f" stroke-width="1.0" stroke-linecap="butt" d="m266.92804 446.76242l3.7895203 2.9936523l-0.9786682 -4.729126z" fill-rule="evenodd"/><path fill="#000000" fill-opacity="0.0" d="m702.0 284.00525l-50.992126 51.496063" fill-rule="evenodd"/><path stroke="#6aa84f" stroke-width="1.0" stroke-linejoin="round" stroke-linecap="butt" d="m702.0 284.00525l-46.770386 47.232605" fill-rule="evenodd"/><path fill="#6aa84f" stroke="#6aa84f" stroke-width="1.0" stroke-linecap="butt" d="m654.0559 330.07565l-2.0194092 4.3868713l4.3667603 -2.0624695z" fill-rule="evenodd"/><path fill="#000000" fill-opacity="0.0" d="m702.25195 602.50134l-51.496033 -18.48822" fill-rule="evenodd"/><path stroke="#6aa84f" stroke-width="1.0" stroke-linejoin="round" stroke-linecap="butt" d="m702.25195 602.50134l-45.849 -16.460754" fill-rule="evenodd"/><path fill="#6aa84f" stroke="#6aa84f" stroke-width="1.0" stroke-linecap="butt" d="m656.9611 584.48596l-4.8292847 0.021118164l3.7130127 3.0880737z" fill-rule="evenodd"/><path fill="#000000" fill-opacity="0.0" d="m194.50131 348.5013l82.99213 0l0 29.007874l-82.99213 0z" fill-rule="evenodd"/><path fill="#000000" d="m208.00131 368.37445l0.921875 0q1.3125 0 1.953125 -0.515625q0.65625 -0.515625 0.65625 -1.5q0 -1.0 -0.546875 -1.46875q-0.546875 -0.46875 -1.703125 -0.46875l-1.28125 0l0 3.953125zm6.375 -2.125q0 2.15625 -1.34375 3.296875q-1.34375 1.140625 -3.8125 1.140625l-1.21875 0l0 4.734375l-2.828125 0l0 -13.3125l4.265625 0q2.421875 0 3.671875 1.046875q1.265625 1.03125 1.265625 3.09375zm4.511688 4.0625q0 1.515625 0.5 2.296875q0.5 0.765625 1.609375 0.765625q1.109375 0 1.59375 -0.765625q0.5 -0.78125 0.5 -2.296875q0 -1.515625 -0.5 -2.265625q-0.484375 -0.765625 -1.609375 -0.765625q-1.109375 0 -1.609375 0.765625q-0.484375 0.75 -0.484375 2.265625zm7.046875 0q0 2.484375 -1.3125 3.890625q-1.3125 1.40625 -3.65625 1.40625q-1.46875 0 -2.59375 -0.640625q-1.109375 -0.65625 -1.71875 -1.84375q-0.59375 -1.203125 -0.59375 -2.8125q0 -2.5 1.296875 -3.875q1.296875 -1.390625 3.65625 -1.390625q1.46875 0 2.59375 0.640625q1.125 0.640625 1.71875 1.828125q0.609375 1.1875 0.609375 2.796875zm7.9727173 -5.265625q0.5625 0 0.9375 0.078125l-0.203125 2.609375q-0.34375 -0.09375 -0.828125 -0.09375q-1.328125 0 -2.078125 0.6875q-0.734375 0.6875 -0.734375 1.90625l0 5.1875l-2.78125 0l0 -10.1875l2.109375 0l0.40625 1.71875l0.140625 0q0.46875 -0.859375 1.265625 -1.375q0.8125 -0.53125 1.765625 -0.53125zm7.0812073 8.34375q0.734375 0 1.75 -0.3125l0 2.0625q-1.046875 0.46875 -2.546875 0.46875q-1.671875 0 -2.4375 -0.84375q-0.75 -0.84375 -0.75 -2.53125l0 -4.90625l-1.34375 0l0 -1.1875l1.53125 -0.921875l0.8125 -2.15625l1.765625 0l0 2.171875l2.859375 0l0 2.09375l-2.859375 0l0 4.90625q0 0.59375 0.328125 0.875q0.34375 0.28125 0.890625 0.28125zm17.178986 -4.625q0 3.484375 -1.140625 5.171875q-1.1406403 1.671875 -3.5312653 1.671875q-2.296875 0 -3.46875 -1.734375q-1.171875 -1.734375 -1.171875 -5.109375q0 -3.53125 1.140625 -5.203125q1.140625 -1.671875 3.5 -1.671875q2.3125 0 3.4843903 1.75q1.1875 1.75 1.1875 5.125zm-6.5156403 0q0 2.453125 0.421875 3.515625q0.421875 1.046875 1.421875 1.046875q0.984375 0 1.421875 -1.0625q0.4375 -1.078125 0.4375 -3.5q0 -2.453125 -0.4375 -3.515625q-0.4375 -1.078125 -1.421875 -1.078125q-0.984375 0 -1.421875 1.078125q-0.421875 1.0625 -0.421875 3.515625z" fill-rule="nonzero"/><path fill="#000000" fill-opacity="0.0" d="m660.0 254.99738l82.99213 0l0 29.007874l-82.99213 0z" fill-rule="evenodd"/><path fill="#000000" d="m673.5 274.87048l0.921875 0q1.3125 0 1.953125 -0.515625q0.65625 -0.515625 0.65625 -1.5q0 -1.0 -0.546875 -1.46875q-0.546875 -0.46875 -1.703125 -0.46875l-1.28125 0l0 3.953125zm6.375 -2.125q0 2.15625 -1.34375 3.296875q-1.34375 1.140625 -3.8125 1.140625l-1.21875 0l0 4.734375l-2.828125 0l0 -13.3125l4.265625 0q2.421875 0 3.671875 1.046875q1.265625 1.03125 1.265625 3.09375zm4.5117188 4.0625q0 1.515625 0.5 2.296875q0.5 0.765625 1.609375 0.765625q1.109375 0 1.59375 -0.765625q0.5 -0.78125 0.5 -2.296875q0 -1.515625 -0.5 -2.265625q-0.484375 -0.765625 -1.609375 -0.765625q-1.109375 0 -1.609375 0.765625q-0.484375 0.75 -0.484375 2.265625zm7.046875 0q0 2.484375 -1.3125 3.890625q-1.3125 1.40625 -3.65625 1.40625q-1.46875 0 -2.59375 -0.640625q-1.109375 -0.65625 -1.71875 -1.84375q-0.59375 -1.203125 -0.59375 -2.8125q0 -2.5 1.296875 -3.875q1.296875 -1.390625 3.65625 -1.390625q1.46875 0 2.59375 0.640625q1.125 0.640625 1.71875 1.828125q0.609375 1.1875 0.609375 2.796875zm7.9726562 -5.265625q0.5625 0 0.9375 0.078125l-0.203125 2.609375q-0.34375 -0.09375 -0.828125 -0.09375q-1.328125 0 -2.078125 0.6875q-0.734375 0.6875 -0.734375 1.90625l0 5.1875l-2.78125 0l0 -10.1875l2.109375 0l0.40625 1.71875l0.140625 0q0.46875 -0.859375 1.265625 -1.375q0.8125 -0.53125 1.765625 -0.53125zm7.081238 8.34375q0.734375 0 1.75 -0.3125l0 2.0625q-1.046875 0.46875 -2.546875 0.46875q-1.671875 0 -2.4375 -0.84375q-0.75 -0.84375 -0.75 -2.53125l0 -4.90625l-1.34375 0l0 -1.1875l1.53125 -0.921875l0.8125 -2.15625l1.765625 0l0 2.171875l2.859375 0l0 2.09375l-2.859375 0l0 4.90625q0 0.59375 0.328125 0.875q0.34375 0.28125 0.890625 0.28125zm14.897705 2.03125l-2.8125 0l0 -7.703125l0.03125 -1.265625l0.046875 -1.390625q-0.703125 0.703125 -0.984375 0.921875l-1.53125 1.234375l-1.34375 -1.703125l4.28125 -3.40625l2.3125 0l0 13.3125z" fill-rule="nonzero"/><path fill="#000000" fill-opacity="0.0" d="m702.0 595.9974l82.99213 0l0 29.007874l-82.99213 0z" fill-rule="evenodd"/><path fill="#000000" d="m715.5 615.8705l0.921875 0q1.3125 0 1.953125 -0.515625q0.65625 -0.515625 0.65625 -1.5q0 -1.0 -0.546875 -1.46875q-0.546875 -0.46875 -1.703125 -0.46875l-1.28125 0l0 3.953125zm6.375 -2.125q0 2.15625 -1.34375 3.296875q-1.34375 1.140625 -3.8125 1.140625l-1.21875 0l0 4.734375l-2.828125 0l0 -13.3125l4.265625 0q2.421875 0 3.671875 1.046875q1.265625 1.03125 1.265625 3.09375zm4.5117188 4.0625q0 1.515625 0.5 2.296875q0.5 0.765625 1.609375 0.765625q1.109375 0 1.59375 -0.765625q0.5 -0.78125 0.5 -2.296875q0 -1.515625 -0.5 -2.265625q-0.484375 -0.765625 -1.609375 -0.765625q-1.109375 0 -1.609375 0.765625q-0.484375 0.75 -0.484375 2.265625zm7.046875 0q0 2.484375 -1.3125 3.890625q-1.3125 1.40625 -3.65625 1.40625q-1.46875 0 -2.59375 -0.640625q-1.109375 -0.65625 -1.71875 -1.84375q-0.59375 -1.203125 -0.59375 -2.8125q0 -2.5 1.296875 -3.875q1.296875 -1.390625 3.65625 -1.390625q1.46875 0 2.59375 0.640625q1.125 0.640625 1.71875 1.828125q0.609375 1.1875 0.609375 2.796875zm7.9726562 -5.265625q0.5625 0 0.9375 0.078125l-0.203125 2.609375q-0.34375 -0.09375 -0.828125 -0.09375q-1.328125 0 -2.078125 0.6875q-0.734375 0.6875 -0.734375 1.90625l0 5.1875l-2.78125 0l0 -10.1875l2.109375 0l0.40625 1.71875l0.140625 0q0.46875 -0.859375 1.265625 -1.375q0.8125 -0.53125 1.765625 -0.53125zm7.081238 8.34375q0.734375 0 1.75 -0.3125l0 2.0625q-1.046875 0.46875 -2.546875 0.46875q-1.671875 0 -2.4375 -0.84375q-0.75 -0.84375 -0.75 -2.53125l0 -4.90625l-1.34375 0l0 -1.1875l1.53125 -0.921875l0.8125 -2.15625l1.765625 0l0 2.171875l2.859375 0l0 2.09375l-2.859375 0l0 4.90625q0 0.59375 0.328125 0.875q0.34375 0.28125 0.890625 0.28125zm17.25708 2.03125l-9.3125 0l0 -1.953125l3.34375 -3.390625q1.484375 -1.515625 1.9375 -2.09375q0.453125 -0.59375 0.65625 -1.09375q0.203125 -0.5 0.203125 -1.046875q0 -0.796875 -0.453125 -1.1875q-0.4375 -0.390625 -1.171875 -0.390625q-0.78125 0 -1.515625 0.359375q-0.71875 0.34375 -1.515625 1.0l-1.53125 -1.8125q0.984375 -0.828125 1.625 -1.171875q0.65625 -0.359375 1.421875 -0.546875q0.765625 -0.1875 1.71875 -0.1875q1.25 0 2.203125 0.46875q0.953125 0.453125 1.484375 1.28125q0.53125 0.8125 0.53125 1.859375q0 0.921875 -0.328125 1.734375q-0.328125 0.796875 -1.015625 1.65625q-0.671875 0.84375 -2.375 2.40625l-1.71875 1.609375l0 0.125l5.8125 0l0 2.375z" fill-rule="nonzero"/></g></svg>
