<?xml version="1.0" encoding="utf-8" standalone="no"?>
<!DOCTYPE svg PUBLIC "-//W3C//DTD SVG 1.1//EN"
  "http://www.w3.org/Graphics/SVG/1.1/DTD/svg11.dtd">
<svg height="280.15625pt" version="1.1" viewBox="0 0 424.590625 280.15625" width="424.590625pt" xmlns="http://www.w3.org/2000/svg" xmlns:xlink="http://www.w3.org/1999/xlink">
 <metadata>
  <rdf:RDF xmlns:cc="http://creativecommons.org/ns#" xmlns:dc="http://purl.org/dc/elements/1.1/" xmlns:rdf="http://www.w3.org/1999/02/22-rdf-syntax-ns#">
   <cc:Work>
    <dc:type rdf:resource="http://purl.org/dc/dcmitype/StillImage"/>
    <dc:date>2021-05-17T10:18:55.282747</dc:date>
    <dc:format>image/svg+xml</dc:format>
    <dc:creator>
     <cc:Agent>
      <dc:title>Matplotlib v3.4.1, https://matplotlib.org/</dc:title>
     </cc:Agent>
    </dc:creator>
   </cc:Work>
  </rdf:RDF>
 </metadata>
 <defs>
  <style type="text/css">*{stroke-linecap:butt;stroke-linejoin:round;}</style>
 </defs>
 <g id="figure_1">
  <g id="patch_1">
   <path d="M 0 280.15625 
L 424.590625 280.15625 
L 424.590625 0 
L 0 0 
z
" style="fill:none;"/>
  </g>
  <g id="axes_1">
   <g id="patch_2">
    <path d="M 48.982813 242.6 
L 406.257812 242.6 
L 406.257812 7.2 
L 48.982813 7.2 
z
" style="fill:#ffffff;"/>
   </g>
   <g id="matplotlib.axis_1">
    <g id="xtick_1">
     <g id="line2d_1">
      <defs>
       <path d="M 0 0 
L 0 3.5 
" id="m4b2c733640" style="stroke:#000000;stroke-width:0.8;"/>
      </defs>
      <g>
       <use style="stroke:#000000;stroke-width:0.8;" x="48.982813" xlink:href="#m4b2c733640" y="242.6"/>
      </g>
     </g>
     <g id="text_1">
      <!-- 1.50 -->
      <g transform="translate(37.85 257.198438)scale(0.1 -0.1)">
       <defs>
        <path d="M 794 531 
L 1825 531 
L 1825 4091 
L 703 3866 
L 703 4441 
L 1819 4666 
L 2450 4666 
L 2450 531 
L 3481 531 
L 3481 0 
L 794 0 
L 794 531 
z
" id="DejaVuSans-31" transform="scale(0.015625)"/>
        <path d="M 684 794 
L 1344 794 
L 1344 0 
L 684 0 
L 684 794 
z
" id="DejaVuSans-2e" transform="scale(0.015625)"/>
        <path d="M 691 4666 
L 3169 4666 
L 3169 4134 
L 1269 4134 
L 1269 2991 
Q 1406 3038 1543 3061 
Q 1681 3084 1819 3084 
Q 2600 3084 3056 2656 
Q 3513 2228 3513 1497 
Q 3513 744 3044 326 
Q 2575 -91 1722 -91 
Q 1428 -91 1123 -41 
Q 819 9 494 109 
L 494 744 
Q 775 591 1075 516 
Q 1375 441 1709 441 
Q 2250 441 2565 725 
Q 2881 1009 2881 1497 
Q 2881 1984 2565 2268 
Q 2250 2553 1709 2553 
Q 1456 2553 1204 2497 
Q 953 2441 691 2322 
L 691 4666 
z
" id="DejaVuSans-35" transform="scale(0.015625)"/>
        <path d="M 2034 4250 
Q 1547 4250 1301 3770 
Q 1056 3291 1056 2328 
Q 1056 1369 1301 889 
Q 1547 409 2034 409 
Q 2525 409 2770 889 
Q 3016 1369 3016 2328 
Q 3016 3291 2770 3770 
Q 2525 4250 2034 4250 
z
M 2034 4750 
Q 2819 4750 3233 4129 
Q 3647 3509 3647 2328 
Q 3647 1150 3233 529 
Q 2819 -91 2034 -91 
Q 1250 -91 836 529 
Q 422 1150 422 2328 
Q 422 3509 836 4129 
Q 1250 4750 2034 4750 
z
" id="DejaVuSans-30" transform="scale(0.015625)"/>
       </defs>
       <use xlink:href="#DejaVuSans-31"/>
       <use x="63.623047" xlink:href="#DejaVuSans-2e"/>
       <use x="95.410156" xlink:href="#DejaVuSans-35"/>
       <use x="159.033203" xlink:href="#DejaVuSans-30"/>
      </g>
     </g>
    </g>
    <g id="xtick_2">
     <g id="line2d_2">
      <g>
       <use style="stroke:#000000;stroke-width:0.8;" x="120.437813" xlink:href="#m4b2c733640" y="242.6"/>
      </g>
     </g>
     <g id="text_2">
      <!-- 1.52 -->
      <g transform="translate(109.305 257.198438)scale(0.1 -0.1)">
       <defs>
        <path d="M 1228 531 
L 3431 531 
L 3431 0 
L 469 0 
L 469 531 
Q 828 903 1448 1529 
Q 2069 2156 2228 2338 
Q 2531 2678 2651 2914 
Q 2772 3150 2772 3378 
Q 2772 3750 2511 3984 
Q 2250 4219 1831 4219 
Q 1534 4219 1204 4116 
Q 875 4013 500 3803 
L 500 4441 
Q 881 4594 1212 4672 
Q 1544 4750 1819 4750 
Q 2544 4750 2975 4387 
Q 3406 4025 3406 3419 
Q 3406 3131 3298 2873 
Q 3191 2616 2906 2266 
Q 2828 2175 2409 1742 
Q 1991 1309 1228 531 
z
" id="DejaVuSans-32" transform="scale(0.015625)"/>
       </defs>
       <use xlink:href="#DejaVuSans-31"/>
       <use x="63.623047" xlink:href="#DejaVuSans-2e"/>
       <use x="95.410156" xlink:href="#DejaVuSans-35"/>
       <use x="159.033203" xlink:href="#DejaVuSans-32"/>
      </g>
     </g>
    </g>
    <g id="xtick_3">
     <g id="line2d_3">
      <g>
       <use style="stroke:#000000;stroke-width:0.8;" x="191.892813" xlink:href="#m4b2c733640" y="242.6"/>
      </g>
     </g>
     <g id="text_3">
      <!-- 1.54 -->
      <g transform="translate(180.76 257.198438)scale(0.1 -0.1)">
       <defs>
        <path d="M 2419 4116 
L 825 1625 
L 2419 1625 
L 2419 4116 
z
M 2253 4666 
L 3047 4666 
L 3047 1625 
L 3713 1625 
L 3713 1100 
L 3047 1100 
L 3047 0 
L 2419 0 
L 2419 1100 
L 313 1100 
L 313 1709 
L 2253 4666 
z
" id="DejaVuSans-34" transform="scale(0.015625)"/>
       </defs>
       <use xlink:href="#DejaVuSans-31"/>
       <use x="63.623047" xlink:href="#DejaVuSans-2e"/>
       <use x="95.410156" xlink:href="#DejaVuSans-35"/>
       <use x="159.033203" xlink:href="#DejaVuSans-34"/>
      </g>
     </g>
    </g>
    <g id="xtick_4">
     <g id="line2d_4">
      <g>
       <use style="stroke:#000000;stroke-width:0.8;" x="263.347813" xlink:href="#m4b2c733640" y="242.6"/>
      </g>
     </g>
     <g id="text_4">
      <!-- 1.56 -->
      <g transform="translate(252.215 257.198438)scale(0.1 -0.1)">
       <defs>
        <path d="M 2113 2584 
Q 1688 2584 1439 2293 
Q 1191 2003 1191 1497 
Q 1191 994 1439 701 
Q 1688 409 2113 409 
Q 2538 409 2786 701 
Q 3034 994 3034 1497 
Q 3034 2003 2786 2293 
Q 2538 2584 2113 2584 
z
M 3366 4563 
L 3366 3988 
Q 3128 4100 2886 4159 
Q 2644 4219 2406 4219 
Q 1781 4219 1451 3797 
Q 1122 3375 1075 2522 
Q 1259 2794 1537 2939 
Q 1816 3084 2150 3084 
Q 2853 3084 3261 2657 
Q 3669 2231 3669 1497 
Q 3669 778 3244 343 
Q 2819 -91 2113 -91 
Q 1303 -91 875 529 
Q 447 1150 447 2328 
Q 447 3434 972 4092 
Q 1497 4750 2381 4750 
Q 2619 4750 2861 4703 
Q 3103 4656 3366 4563 
z
" id="DejaVuSans-36" transform="scale(0.015625)"/>
       </defs>
       <use xlink:href="#DejaVuSans-31"/>
       <use x="63.623047" xlink:href="#DejaVuSans-2e"/>
       <use x="95.410156" xlink:href="#DejaVuSans-35"/>
       <use x="159.033203" xlink:href="#DejaVuSans-36"/>
      </g>
     </g>
    </g>
    <g id="xtick_5">
     <g id="line2d_5">
      <g>
       <use style="stroke:#000000;stroke-width:0.8;" x="334.802813" xlink:href="#m4b2c733640" y="242.6"/>
      </g>
     </g>
     <g id="text_5">
      <!-- 1.58 -->
      <g transform="translate(323.67 257.198438)scale(0.1 -0.1)">
       <defs>
        <path d="M 2034 2216 
Q 1584 2216 1326 1975 
Q 1069 1734 1069 1313 
Q 1069 891 1326 650 
Q 1584 409 2034 409 
Q 2484 409 2743 651 
Q 3003 894 3003 1313 
Q 3003 1734 2745 1975 
Q 2488 2216 2034 2216 
z
M 1403 2484 
Q 997 2584 770 2862 
Q 544 3141 544 3541 
Q 544 4100 942 4425 
Q 1341 4750 2034 4750 
Q 2731 4750 3128 4425 
Q 3525 4100 3525 3541 
Q 3525 3141 3298 2862 
Q 3072 2584 2669 2484 
Q 3125 2378 3379 2068 
Q 3634 1759 3634 1313 
Q 3634 634 3220 271 
Q 2806 -91 2034 -91 
Q 1263 -91 848 271 
Q 434 634 434 1313 
Q 434 1759 690 2068 
Q 947 2378 1403 2484 
z
M 1172 3481 
Q 1172 3119 1398 2916 
Q 1625 2713 2034 2713 
Q 2441 2713 2670 2916 
Q 2900 3119 2900 3481 
Q 2900 3844 2670 4047 
Q 2441 4250 2034 4250 
Q 1625 4250 1398 4047 
Q 1172 3844 1172 3481 
z
" id="DejaVuSans-38" transform="scale(0.015625)"/>
       </defs>
       <use xlink:href="#DejaVuSans-31"/>
       <use x="63.623047" xlink:href="#DejaVuSans-2e"/>
       <use x="95.410156" xlink:href="#DejaVuSans-35"/>
       <use x="159.033203" xlink:href="#DejaVuSans-38"/>
      </g>
     </g>
    </g>
    <g id="xtick_6">
     <g id="line2d_6">
      <g>
       <use style="stroke:#000000;stroke-width:0.8;" x="406.257813" xlink:href="#m4b2c733640" y="242.6"/>
      </g>
     </g>
     <g id="text_6">
      <!-- 1.60 -->
      <g transform="translate(395.125 257.198438)scale(0.1 -0.1)">
       <use xlink:href="#DejaVuSans-31"/>
       <use x="63.623047" xlink:href="#DejaVuSans-2e"/>
       <use x="95.410156" xlink:href="#DejaVuSans-36"/>
       <use x="159.033203" xlink:href="#DejaVuSans-30"/>
      </g>
     </g>
    </g>
    <g id="text_7">
     <!-- Wavelength (um) -->
     <g transform="translate(184.428125 270.876562)scale(0.1 -0.1)">
      <defs>
       <path d="M 213 4666 
L 850 4666 
L 1831 722 
L 2809 4666 
L 3519 4666 
L 4500 722 
L 5478 4666 
L 6119 4666 
L 4947 0 
L 4153 0 
L 3169 4050 
L 2175 0 
L 1381 0 
L 213 4666 
z
" id="DejaVuSans-57" transform="scale(0.015625)"/>
       <path d="M 2194 1759 
Q 1497 1759 1228 1600 
Q 959 1441 959 1056 
Q 959 750 1161 570 
Q 1363 391 1709 391 
Q 2188 391 2477 730 
Q 2766 1069 2766 1631 
L 2766 1759 
L 2194 1759 
z
M 3341 1997 
L 3341 0 
L 2766 0 
L 2766 531 
Q 2569 213 2275 61 
Q 1981 -91 1556 -91 
Q 1019 -91 701 211 
Q 384 513 384 1019 
Q 384 1609 779 1909 
Q 1175 2209 1959 2209 
L 2766 2209 
L 2766 2266 
Q 2766 2663 2505 2880 
Q 2244 3097 1772 3097 
Q 1472 3097 1187 3025 
Q 903 2953 641 2809 
L 641 3341 
Q 956 3463 1253 3523 
Q 1550 3584 1831 3584 
Q 2591 3584 2966 3190 
Q 3341 2797 3341 1997 
z
" id="DejaVuSans-61" transform="scale(0.015625)"/>
       <path d="M 191 3500 
L 800 3500 
L 1894 563 
L 2988 3500 
L 3597 3500 
L 2284 0 
L 1503 0 
L 191 3500 
z
" id="DejaVuSans-76" transform="scale(0.015625)"/>
       <path d="M 3597 1894 
L 3597 1613 
L 953 1613 
Q 991 1019 1311 708 
Q 1631 397 2203 397 
Q 2534 397 2845 478 
Q 3156 559 3463 722 
L 3463 178 
Q 3153 47 2828 -22 
Q 2503 -91 2169 -91 
Q 1331 -91 842 396 
Q 353 884 353 1716 
Q 353 2575 817 3079 
Q 1281 3584 2069 3584 
Q 2775 3584 3186 3129 
Q 3597 2675 3597 1894 
z
M 3022 2063 
Q 3016 2534 2758 2815 
Q 2500 3097 2075 3097 
Q 1594 3097 1305 2825 
Q 1016 2553 972 2059 
L 3022 2063 
z
" id="DejaVuSans-65" transform="scale(0.015625)"/>
       <path d="M 603 4863 
L 1178 4863 
L 1178 0 
L 603 0 
L 603 4863 
z
" id="DejaVuSans-6c" transform="scale(0.015625)"/>
       <path d="M 3513 2113 
L 3513 0 
L 2938 0 
L 2938 2094 
Q 2938 2591 2744 2837 
Q 2550 3084 2163 3084 
Q 1697 3084 1428 2787 
Q 1159 2491 1159 1978 
L 1159 0 
L 581 0 
L 581 3500 
L 1159 3500 
L 1159 2956 
Q 1366 3272 1645 3428 
Q 1925 3584 2291 3584 
Q 2894 3584 3203 3211 
Q 3513 2838 3513 2113 
z
" id="DejaVuSans-6e" transform="scale(0.015625)"/>
       <path d="M 2906 1791 
Q 2906 2416 2648 2759 
Q 2391 3103 1925 3103 
Q 1463 3103 1205 2759 
Q 947 2416 947 1791 
Q 947 1169 1205 825 
Q 1463 481 1925 481 
Q 2391 481 2648 825 
Q 2906 1169 2906 1791 
z
M 3481 434 
Q 3481 -459 3084 -895 
Q 2688 -1331 1869 -1331 
Q 1566 -1331 1297 -1286 
Q 1028 -1241 775 -1147 
L 775 -588 
Q 1028 -725 1275 -790 
Q 1522 -856 1778 -856 
Q 2344 -856 2625 -561 
Q 2906 -266 2906 331 
L 2906 616 
Q 2728 306 2450 153 
Q 2172 0 1784 0 
Q 1141 0 747 490 
Q 353 981 353 1791 
Q 353 2603 747 3093 
Q 1141 3584 1784 3584 
Q 2172 3584 2450 3431 
Q 2728 3278 2906 2969 
L 2906 3500 
L 3481 3500 
L 3481 434 
z
" id="DejaVuSans-67" transform="scale(0.015625)"/>
       <path d="M 1172 4494 
L 1172 3500 
L 2356 3500 
L 2356 3053 
L 1172 3053 
L 1172 1153 
Q 1172 725 1289 603 
Q 1406 481 1766 481 
L 2356 481 
L 2356 0 
L 1766 0 
Q 1100 0 847 248 
Q 594 497 594 1153 
L 594 3053 
L 172 3053 
L 172 3500 
L 594 3500 
L 594 4494 
L 1172 4494 
z
" id="DejaVuSans-74" transform="scale(0.015625)"/>
       <path d="M 3513 2113 
L 3513 0 
L 2938 0 
L 2938 2094 
Q 2938 2591 2744 2837 
Q 2550 3084 2163 3084 
Q 1697 3084 1428 2787 
Q 1159 2491 1159 1978 
L 1159 0 
L 581 0 
L 581 4863 
L 1159 4863 
L 1159 2956 
Q 1366 3272 1645 3428 
Q 1925 3584 2291 3584 
Q 2894 3584 3203 3211 
Q 3513 2838 3513 2113 
z
" id="DejaVuSans-68" transform="scale(0.015625)"/>
       <path id="DejaVuSans-20" transform="scale(0.015625)"/>
       <path d="M 1984 4856 
Q 1566 4138 1362 3434 
Q 1159 2731 1159 2009 
Q 1159 1288 1364 580 
Q 1569 -128 1984 -844 
L 1484 -844 
Q 1016 -109 783 600 
Q 550 1309 550 2009 
Q 550 2706 781 3412 
Q 1013 4119 1484 4856 
L 1984 4856 
z
" id="DejaVuSans-28" transform="scale(0.015625)"/>
       <path d="M 544 1381 
L 544 3500 
L 1119 3500 
L 1119 1403 
Q 1119 906 1312 657 
Q 1506 409 1894 409 
Q 2359 409 2629 706 
Q 2900 1003 2900 1516 
L 2900 3500 
L 3475 3500 
L 3475 0 
L 2900 0 
L 2900 538 
Q 2691 219 2414 64 
Q 2138 -91 1772 -91 
Q 1169 -91 856 284 
Q 544 659 544 1381 
z
M 1991 3584 
L 1991 3584 
z
" id="DejaVuSans-75" transform="scale(0.015625)"/>
       <path d="M 3328 2828 
Q 3544 3216 3844 3400 
Q 4144 3584 4550 3584 
Q 5097 3584 5394 3201 
Q 5691 2819 5691 2113 
L 5691 0 
L 5113 0 
L 5113 2094 
Q 5113 2597 4934 2840 
Q 4756 3084 4391 3084 
Q 3944 3084 3684 2787 
Q 3425 2491 3425 1978 
L 3425 0 
L 2847 0 
L 2847 2094 
Q 2847 2600 2669 2842 
Q 2491 3084 2119 3084 
Q 1678 3084 1418 2786 
Q 1159 2488 1159 1978 
L 1159 0 
L 581 0 
L 581 3500 
L 1159 3500 
L 1159 2956 
Q 1356 3278 1631 3431 
Q 1906 3584 2284 3584 
Q 2666 3584 2933 3390 
Q 3200 3197 3328 2828 
z
" id="DejaVuSans-6d" transform="scale(0.015625)"/>
       <path d="M 513 4856 
L 1013 4856 
Q 1481 4119 1714 3412 
Q 1947 2706 1947 2009 
Q 1947 1309 1714 600 
Q 1481 -109 1013 -844 
L 513 -844 
Q 928 -128 1133 580 
Q 1338 1288 1338 2009 
Q 1338 2731 1133 3434 
Q 928 4138 513 4856 
z
" id="DejaVuSans-29" transform="scale(0.015625)"/>
      </defs>
      <use xlink:href="#DejaVuSans-57"/>
      <use x="92.501953" xlink:href="#DejaVuSans-61"/>
      <use x="153.78125" xlink:href="#DejaVuSans-76"/>
      <use x="212.960938" xlink:href="#DejaVuSans-65"/>
      <use x="274.484375" xlink:href="#DejaVuSans-6c"/>
      <use x="302.267578" xlink:href="#DejaVuSans-65"/>
      <use x="363.791016" xlink:href="#DejaVuSans-6e"/>
      <use x="427.169922" xlink:href="#DejaVuSans-67"/>
      <use x="490.646484" xlink:href="#DejaVuSans-74"/>
      <use x="529.855469" xlink:href="#DejaVuSans-68"/>
      <use x="593.234375" xlink:href="#DejaVuSans-20"/>
      <use x="625.021484" xlink:href="#DejaVuSans-28"/>
      <use x="664.035156" xlink:href="#DejaVuSans-75"/>
      <use x="727.414062" xlink:href="#DejaVuSans-6d"/>
      <use x="824.826172" xlink:href="#DejaVuSans-29"/>
     </g>
    </g>
   </g>
   <g id="matplotlib.axis_2">
    <g id="ytick_1">
     <g id="line2d_7">
      <defs>
       <path d="M 0 0 
L -3.5 0 
" id="m84ddfa25a6" style="stroke:#000000;stroke-width:0.8;"/>
      </defs>
      <g>
       <use style="stroke:#000000;stroke-width:0.8;" x="48.982813" xlink:href="#m84ddfa25a6" y="213.191376"/>
      </g>
     </g>
     <g id="text_8">
      <!-- −60 -->
      <g transform="translate(20.878125 216.990594)scale(0.1 -0.1)">
       <defs>
        <path d="M 678 2272 
L 4684 2272 
L 4684 1741 
L 678 1741 
L 678 2272 
z
" id="DejaVuSans-2212" transform="scale(0.015625)"/>
       </defs>
       <use xlink:href="#DejaVuSans-2212"/>
       <use x="83.789062" xlink:href="#DejaVuSans-36"/>
       <use x="147.412109" xlink:href="#DejaVuSans-30"/>
      </g>
     </g>
    </g>
    <g id="ytick_2">
     <g id="line2d_8">
      <g>
       <use style="stroke:#000000;stroke-width:0.8;" x="48.982813" xlink:href="#m84ddfa25a6" y="177.65622"/>
      </g>
     </g>
     <g id="text_9">
      <!-- −50 -->
      <g transform="translate(20.878125 181.455439)scale(0.1 -0.1)">
       <use xlink:href="#DejaVuSans-2212"/>
       <use x="83.789062" xlink:href="#DejaVuSans-35"/>
       <use x="147.412109" xlink:href="#DejaVuSans-30"/>
      </g>
     </g>
    </g>
    <g id="ytick_3">
     <g id="line2d_9">
      <g>
       <use style="stroke:#000000;stroke-width:0.8;" x="48.982813" xlink:href="#m84ddfa25a6" y="142.121065"/>
      </g>
     </g>
     <g id="text_10">
      <!-- −40 -->
      <g transform="translate(20.878125 145.920284)scale(0.1 -0.1)">
       <use xlink:href="#DejaVuSans-2212"/>
       <use x="83.789062" xlink:href="#DejaVuSans-34"/>
       <use x="147.412109" xlink:href="#DejaVuSans-30"/>
      </g>
     </g>
    </g>
    <g id="ytick_4">
     <g id="line2d_10">
      <g>
       <use style="stroke:#000000;stroke-width:0.8;" x="48.982813" xlink:href="#m84ddfa25a6" y="106.58591"/>
      </g>
     </g>
     <g id="text_11">
      <!-- −30 -->
      <g transform="translate(20.878125 110.385128)scale(0.1 -0.1)">
       <defs>
        <path d="M 2597 2516 
Q 3050 2419 3304 2112 
Q 3559 1806 3559 1356 
Q 3559 666 3084 287 
Q 2609 -91 1734 -91 
Q 1441 -91 1130 -33 
Q 819 25 488 141 
L 488 750 
Q 750 597 1062 519 
Q 1375 441 1716 441 
Q 2309 441 2620 675 
Q 2931 909 2931 1356 
Q 2931 1769 2642 2001 
Q 2353 2234 1838 2234 
L 1294 2234 
L 1294 2753 
L 1863 2753 
Q 2328 2753 2575 2939 
Q 2822 3125 2822 3475 
Q 2822 3834 2567 4026 
Q 2313 4219 1838 4219 
Q 1578 4219 1281 4162 
Q 984 4106 628 3988 
L 628 4550 
Q 988 4650 1302 4700 
Q 1616 4750 1894 4750 
Q 2613 4750 3031 4423 
Q 3450 4097 3450 3541 
Q 3450 3153 3228 2886 
Q 3006 2619 2597 2516 
z
" id="DejaVuSans-33" transform="scale(0.015625)"/>
       </defs>
       <use xlink:href="#DejaVuSans-2212"/>
       <use x="83.789062" xlink:href="#DejaVuSans-33"/>
       <use x="147.412109" xlink:href="#DejaVuSans-30"/>
      </g>
     </g>
    </g>
    <g id="ytick_5">
     <g id="line2d_11">
      <g>
       <use style="stroke:#000000;stroke-width:0.8;" x="48.982813" xlink:href="#m84ddfa25a6" y="71.050754"/>
      </g>
     </g>
     <g id="text_12">
      <!-- −20 -->
      <g transform="translate(20.878125 74.849973)scale(0.1 -0.1)">
       <use xlink:href="#DejaVuSans-2212"/>
       <use x="83.789062" xlink:href="#DejaVuSans-32"/>
       <use x="147.412109" xlink:href="#DejaVuSans-30"/>
      </g>
     </g>
    </g>
    <g id="ytick_6">
     <g id="line2d_12">
      <g>
       <use style="stroke:#000000;stroke-width:0.8;" x="48.982813" xlink:href="#m84ddfa25a6" y="35.515599"/>
      </g>
     </g>
     <g id="text_13">
      <!-- −10 -->
      <g transform="translate(20.878125 39.314818)scale(0.1 -0.1)">
       <use xlink:href="#DejaVuSans-2212"/>
       <use x="83.789062" xlink:href="#DejaVuSans-31"/>
       <use x="147.412109" xlink:href="#DejaVuSans-30"/>
      </g>
     </g>
    </g>
    <g id="text_14">
     <!-- Transmission (dB) -->
     <g transform="translate(14.798438 169.290625)rotate(-90)scale(0.1 -0.1)">
      <defs>
       <path d="M -19 4666 
L 3928 4666 
L 3928 4134 
L 2272 4134 
L 2272 0 
L 1638 0 
L 1638 4134 
L -19 4134 
L -19 4666 
z
" id="DejaVuSans-54" transform="scale(0.015625)"/>
       <path d="M 2631 2963 
Q 2534 3019 2420 3045 
Q 2306 3072 2169 3072 
Q 1681 3072 1420 2755 
Q 1159 2438 1159 1844 
L 1159 0 
L 581 0 
L 581 3500 
L 1159 3500 
L 1159 2956 
Q 1341 3275 1631 3429 
Q 1922 3584 2338 3584 
Q 2397 3584 2469 3576 
Q 2541 3569 2628 3553 
L 2631 2963 
z
" id="DejaVuSans-72" transform="scale(0.015625)"/>
       <path d="M 2834 3397 
L 2834 2853 
Q 2591 2978 2328 3040 
Q 2066 3103 1784 3103 
Q 1356 3103 1142 2972 
Q 928 2841 928 2578 
Q 928 2378 1081 2264 
Q 1234 2150 1697 2047 
L 1894 2003 
Q 2506 1872 2764 1633 
Q 3022 1394 3022 966 
Q 3022 478 2636 193 
Q 2250 -91 1575 -91 
Q 1294 -91 989 -36 
Q 684 19 347 128 
L 347 722 
Q 666 556 975 473 
Q 1284 391 1588 391 
Q 1994 391 2212 530 
Q 2431 669 2431 922 
Q 2431 1156 2273 1281 
Q 2116 1406 1581 1522 
L 1381 1569 
Q 847 1681 609 1914 
Q 372 2147 372 2553 
Q 372 3047 722 3315 
Q 1072 3584 1716 3584 
Q 2034 3584 2315 3537 
Q 2597 3491 2834 3397 
z
" id="DejaVuSans-73" transform="scale(0.015625)"/>
       <path d="M 603 3500 
L 1178 3500 
L 1178 0 
L 603 0 
L 603 3500 
z
M 603 4863 
L 1178 4863 
L 1178 4134 
L 603 4134 
L 603 4863 
z
" id="DejaVuSans-69" transform="scale(0.015625)"/>
       <path d="M 1959 3097 
Q 1497 3097 1228 2736 
Q 959 2375 959 1747 
Q 959 1119 1226 758 
Q 1494 397 1959 397 
Q 2419 397 2687 759 
Q 2956 1122 2956 1747 
Q 2956 2369 2687 2733 
Q 2419 3097 1959 3097 
z
M 1959 3584 
Q 2709 3584 3137 3096 
Q 3566 2609 3566 1747 
Q 3566 888 3137 398 
Q 2709 -91 1959 -91 
Q 1206 -91 779 398 
Q 353 888 353 1747 
Q 353 2609 779 3096 
Q 1206 3584 1959 3584 
z
" id="DejaVuSans-6f" transform="scale(0.015625)"/>
       <path d="M 2906 2969 
L 2906 4863 
L 3481 4863 
L 3481 0 
L 2906 0 
L 2906 525 
Q 2725 213 2448 61 
Q 2172 -91 1784 -91 
Q 1150 -91 751 415 
Q 353 922 353 1747 
Q 353 2572 751 3078 
Q 1150 3584 1784 3584 
Q 2172 3584 2448 3432 
Q 2725 3281 2906 2969 
z
M 947 1747 
Q 947 1113 1208 752 
Q 1469 391 1925 391 
Q 2381 391 2643 752 
Q 2906 1113 2906 1747 
Q 2906 2381 2643 2742 
Q 2381 3103 1925 3103 
Q 1469 3103 1208 2742 
Q 947 2381 947 1747 
z
" id="DejaVuSans-64" transform="scale(0.015625)"/>
       <path d="M 1259 2228 
L 1259 519 
L 2272 519 
Q 2781 519 3026 730 
Q 3272 941 3272 1375 
Q 3272 1813 3026 2020 
Q 2781 2228 2272 2228 
L 1259 2228 
z
M 1259 4147 
L 1259 2741 
L 2194 2741 
Q 2656 2741 2882 2914 
Q 3109 3088 3109 3444 
Q 3109 3797 2882 3972 
Q 2656 4147 2194 4147 
L 1259 4147 
z
M 628 4666 
L 2241 4666 
Q 2963 4666 3353 4366 
Q 3744 4066 3744 3513 
Q 3744 3084 3544 2831 
Q 3344 2578 2956 2516 
Q 3422 2416 3680 2098 
Q 3938 1781 3938 1306 
Q 3938 681 3513 340 
Q 3088 0 2303 0 
L 628 0 
L 628 4666 
z
" id="DejaVuSans-42" transform="scale(0.015625)"/>
      </defs>
      <use xlink:href="#DejaVuSans-54"/>
      <use x="46.333984" xlink:href="#DejaVuSans-72"/>
      <use x="87.447266" xlink:href="#DejaVuSans-61"/>
      <use x="148.726562" xlink:href="#DejaVuSans-6e"/>
      <use x="212.105469" xlink:href="#DejaVuSans-73"/>
      <use x="264.205078" xlink:href="#DejaVuSans-6d"/>
      <use x="361.617188" xlink:href="#DejaVuSans-69"/>
      <use x="389.400391" xlink:href="#DejaVuSans-73"/>
      <use x="441.5" xlink:href="#DejaVuSans-73"/>
      <use x="493.599609" xlink:href="#DejaVuSans-69"/>
      <use x="521.382812" xlink:href="#DejaVuSans-6f"/>
      <use x="582.564453" xlink:href="#DejaVuSans-6e"/>
      <use x="645.943359" xlink:href="#DejaVuSans-20"/>
      <use x="677.730469" xlink:href="#DejaVuSans-28"/>
      <use x="716.744141" xlink:href="#DejaVuSans-64"/>
      <use x="780.220703" xlink:href="#DejaVuSans-42"/>
      <use x="848.824219" xlink:href="#DejaVuSans-29"/>
     </g>
    </g>
   </g>
   <g id="line2d_13">
    <path clip-path="url(#pd9dc63b80b)" d="M 48.982813 155.837444 
L 49.317946 157.082691 
L 49.653122 159.550758 
L 49.98834 163.447367 
L 50.491245 172.639092 
L 51.161932 188.47288 
L 51.32963 188.878484 
L 51.497338 186.192004 
L 52.671591 155.534699 
L 53.175 148.004446 
L 53.678503 143.026711 
L 54.182101 140.05335 
L 54.517886 139.035554 
L 54.853712 138.733087 
L 55.021641 138.842171 
L 55.357531 139.57435 
L 55.693462 140.992387 
L 56.197439 144.423668 
L 56.70151 149.433986 
L 57.541838 160.587566 
L 58.046162 166.701394 
L 58.38243 168.67956 
L 58.55058 168.806195 
L 58.718741 168.414766 
L 59.055094 166.570759 
L 60.064404 159.89708 
L 60.737489 157.02924 
L 61.410743 154.308644 
L 61.915794 151.451046 
L 63.094615 142.687981 
L 63.76846 138.524098 
L 64.273954 136.56935 
L 64.611003 135.938766 
L 64.779543 135.84102 
L 64.948094 135.894095 
L 65.285228 136.46737 
L 65.622404 137.680295 
L 66.128247 140.676962 
L 67.308918 149.110646 
L 67.477628 149.315936 
L 67.646348 148.991791 
L 67.98382 146.860162 
L 68.827686 137.799812 
L 69.50297 131.875245 
L 70.009544 129.288809 
L 70.347312 128.529092 
L 70.516213 128.451061 
L 70.685124 128.582366 
L 71.022977 129.509187 
L 71.360874 131.410394 
L 71.698812 134.449885 
L 72.2058 141.769736 
L 72.712883 154.013841 
L 73.389142 176.387304 
L 73.558233 174.879326 
L 74.573005 141.620323 
L 75.080534 132.676885 
L 75.588159 127.071359 
L 76.095879 123.821932 
L 76.434413 122.693238 
L 76.772989 122.261778 
L 76.942293 122.274916 
L 77.280933 122.686033 
L 77.788973 123.975778 
L 78.466508 125.791449 
L 78.80534 126.159059 
L 78.974772 126.126788 
L 79.313667 125.631552 
L 79.82209 124.144737 
L 80.500137 122.155726 
L 80.839225 121.691043 
L 81.008784 121.668569 
L 81.178355 121.809678 
L 81.517528 122.649446 
L 81.856743 124.348754 
L 82.196001 127.068969 
L 82.704968 133.513868 
L 83.214032 143.32651 
L 83.723191 153.365915 
L 83.892932 154.1016 
L 84.062684 152.559535 
L 84.572004 140.950442 
L 85.251246 127.263942 
L 85.760791 120.864355 
L 86.270431 117.132955 
L 86.610245 115.923926 
L 86.780168 115.680041 
L 86.950101 115.67293 
L 87.120046 115.902769 
L 87.459966 117.0831 
L 87.79993 119.249749 
L 88.309956 124.342836 
L 89.160213 133.997991 
L 89.330296 134.435834 
L 89.500391 133.851094 
L 89.840611 130.056646 
L 91.031721 112.563852 
L 91.542358 107.968524 
L 92.053091 105.258581 
L 92.393634 104.4185 
L 92.563921 104.277601 
L 92.734219 104.320832 
L 93.074847 104.960545 
L 93.415519 106.348938 
L 93.926606 109.886248 
L 94.43779 115.223448 
L 95.971923 134.204847 
L 96.142436 134.563573 
L 96.31296 134.350029 
L 96.65404 132.776808 
L 97.506928 128.15983 
L 97.848158 127.209162 
L 98.360084 126.529416 
L 98.701422 125.97501 
L 99.042804 124.692594 
L 99.384228 122.286744 
L 99.896445 116.800626 
L 101.091996 103.057733 
L 101.775405 97.942268 
L 102.288076 95.827427 
L 102.62991 95.274067 
L 102.800843 95.26542 
L 102.971787 95.443063 
L 103.313707 96.389758 
L 103.655671 98.200471 
L 103.997678 101.005385 
L 104.510769 107.524507 
L 105.023958 117.779835 
L 105.879488 138.887177 
L 106.050627 137.731088 
L 106.564108 124.238352 
L 107.077685 112.604269 
L 107.591361 105.228916 
L 108.105134 101.007046 
L 108.447703 99.607695 
L 108.619004 99.295827 
L 108.790315 99.236742 
L 108.961638 99.431169 
L 109.304316 100.603613 
L 109.647037 102.90357 
L 109.989801 106.507209 
L 110.504029 115.058882 
L 111.018354 128.937427 
L 111.532777 143.736653 
L 111.704273 142.641165 
L 113.076632 106.596557 
L 113.591445 100.219458 
L 114.106357 96.24574 
L 114.621366 94.021525 
L 114.96476 93.29858 
L 115.308197 93.062927 
L 115.651678 93.214285 
L 116.166981 93.935554 
L 118.057261 97.646924 
L 118.573021 99.28149 
L 119.088879 102.074161 
L 119.604835 106.811693 
L 120.120889 114.736884 
L 120.464979 122.960724 
L 120.809113 135.18619 
L 121.325396 154.885151 
L 121.669639 139.654421 
L 122.186086 118.148456 
L 122.70263 105.332624 
L 123.219273 97.157568 
L 123.736014 91.938371 
L 124.252854 88.951979 
L 124.597468 88.042671 
L 124.769792 87.899553 
L 124.942126 87.964732 
L 125.114472 88.241927 
L 125.459195 89.461022 
L 125.803962 91.645604 
L 126.321195 97.084075 
L 126.838527 105.952904 
L 127.355957 119.431736 
L 127.700965 128.911605 
L 127.873485 130.688571 
L 128.046016 128.887585 
L 129.426661 96.34717 
L 129.944584 90.449526 
L 130.462605 86.956 
L 130.808008 85.718375 
L 131.153454 85.266587 
L 131.326193 85.324683 
L 131.671705 86.005459 
L 132.017261 87.456667 
L 132.535677 91.195344 
L 133.054192 97.128268 
L 133.572806 105.952339 
L 134.091519 119.1302 
L 134.956259 148.677171 
L 135.12924 145.782611 
L 135.99431 118.284179 
L 136.513485 108.783877 
L 137.205871 100.497428 
L 137.898433 94.798226 
L 138.764383 89.64941 
L 139.457342 86.799957 
L 139.977177 85.530069 
L 140.323788 85.191702 
L 140.49711 85.1985 
L 140.843788 85.609379 
L 141.19051 86.620666 
L 141.537276 88.336342 
L 142.057507 92.550554 
L 142.577838 99.453299 
L 143.098268 110.656341 
L 143.445277 122.248587 
L 143.965872 145.392887 
L 144.139426 144.112375 
L 145.007362 108.906102 
L 145.528256 97.933122 
L 146.04925 91.152012 
L 146.570343 87.142375 
L 146.917793 85.694962 
L 147.265288 85.131031 
L 147.439052 85.172125 
L 147.612827 85.430305 
L 147.960411 86.621766 
L 148.308039 88.789679 
L 148.655711 92.094406 
L 149.177302 99.868594 
L 149.525084 107.87715 
L 149.872911 120.010842 
L 150.220783 141.946278 
L 150.568698 197.209685 
L 150.916659 137.405159 
L 151.264663 117.700296 
L 151.786753 102.06469 
L 152.308942 92.939524 
L 152.831232 87.183604 
L 153.353621 83.633106 
L 153.87611 81.742728 
L 154.224492 81.259295 
L 154.398699 81.2308 
L 154.572918 81.338666 
L 154.921389 81.952055 
L 155.269904 83.08515 
L 155.792759 85.760698 
L 156.315715 89.668874 
L 156.838771 94.994035 
L 157.361927 102.157908 
L 157.885184 112.103979 
L 158.40854 127.063117 
L 159.106504 154.066588 
L 159.281023 149.978846 
L 159.97921 120.944354 
L 160.502968 107.954689 
L 161.026825 99.237895 
L 161.725458 91.576007 
L 162.24955 87.97322 
L 162.773742 85.919555 
L 163.123259 85.376078 
L 163.298035 85.355759 
L 163.472821 85.508566 
L 163.822428 86.361222 
L 164.172079 88.012425 
L 164.521775 90.589334 
L 165.046403 96.677181 
L 165.571131 106.810109 
L 165.921005 117.682202 
L 166.270925 136.28451 
L 166.445901 153.411432 
L 166.620889 192.467777 
L 167.145919 130.958391 
L 167.495995 114.239669 
L 168.021193 99.993583 
L 168.546491 91.411437 
L 169.07189 85.975337 
L 169.597391 82.723091 
L 169.94778 81.544413 
L 170.298214 81.081157 
L 170.473448 81.108854 
L 170.648693 81.308384 
L 170.999217 82.230215 
L 171.349786 83.879187 
L 171.875723 87.869531 
L 172.401761 94.072494 
L 172.9279 103.319664 
L 173.45414 117.14041 
L 173.980481 134.147439 
L 174.15595 135.926374 
L 174.331431 133.315012 
L 175.384551 104.682532 
L 175.911263 96.588885 
L 176.438076 91.226162 
L 176.96499 87.774376 
L 177.492005 85.803189 
L 177.843405 85.196497 
L 178.194849 85.115174 
L 178.546339 85.548322 
L 178.897874 86.504682 
L 179.425261 88.99233 
L 179.952749 92.949252 
L 180.480338 98.821156 
L 181.008029 107.531187 
L 181.535821 121.29446 
L 181.887739 136.194566 
L 182.4157 161.823697 
L 183.119807 123.444007 
L 183.648005 108.751889 
L 184.176305 99.636377 
L 184.704706 93.627458 
L 185.233209 89.746792 
L 185.761814 87.552617 
L 186.114274 86.92661 
L 186.290521 86.855867 
L 186.466779 86.946414 
L 186.819329 87.618985 
L 187.171924 88.972529 
L 187.700902 92.389874 
L 188.229982 97.670997 
L 188.93558 107.601366 
L 189.464897 114.627302 
L 189.641359 115.614031 
L 189.817832 115.463492 
L 189.994316 114.191287 
L 190.523837 106.519627 
L 191.406599 93.74159 
L 192.113013 87.110281 
L 192.642942 84.018538 
L 193.172973 82.31839 
L 193.526384 81.901169 
L 193.703107 81.901319 
L 194.056586 82.317854 
L 194.41011 83.297315 
L 194.940482 85.870367 
L 195.470956 89.876448 
L 196.001532 95.457861 
L 196.886053 107.857615 
L 197.416903 114.144806 
L 197.593875 114.994778 
L 197.770859 114.972835 
L 197.947854 114.129723 
L 198.301878 110.753965 
L 199.364225 99.078284 
L 199.895552 95.239477 
L 200.426981 92.889466 
L 200.781325 92.086408 
L 201.135714 91.861951 
L 201.312925 91.962135 
L 201.667382 92.585809 
L 202.021885 93.781995 
L 202.553725 96.700512 
L 203.085667 101.07773 
L 203.795083 109.301198 
L 204.68211 120.01078 
L 204.85955 120.752937 
L 205.037001 120.569106 
L 205.214464 119.471062 
L 205.569423 115.292966 
L 206.81214 98.147245 
L 207.522516 91.469627 
L 208.233074 87.043587 
L 208.766113 85.001235 
L 209.12153 84.19831 
L 209.476992 83.823889 
L 209.8325 83.866795 
L 210.188054 84.315199 
L 210.543654 85.15001 
L 211.077139 87.038793 
L 212.500272 92.798497 
L 212.856169 93.175582 
L 213.034135 93.064486 
L 213.390102 92.269508 
L 213.924138 90.050736 
L 214.992519 85.165412 
L 215.526865 83.67953 
L 215.883153 83.237195 
L 216.061314 83.197084 
L 216.239486 83.283718 
L 216.595866 83.854671 
L 216.952292 84.986462 
L 217.487017 87.827186 
L 218.021845 92.182884 
L 218.735111 100.521469 
L 219.626951 112.429342 
L 219.983768 114.466799 
L 220.162194 114.275934 
L 220.51908 111.859519 
L 221.947084 98.292222 
L 222.482776 95.666909 
L 222.839962 94.720556 
L 223.197193 94.353167 
L 223.375826 94.370921 
L 223.733127 94.78191 
L 224.090474 95.661465 
L 224.626581 97.781881 
L 225.341552 101.885166 
L 226.593196 109.957265 
L 226.950912 110.927872 
L 227.129788 110.873319 
L 227.308675 110.402743 
L 227.666484 108.238041 
L 228.203284 102.753221 
L 229.814309 84.805678 
L 230.530621 79.371735 
L 231.067976 76.547227 
L 231.605436 74.778916 
L 231.963801 74.184661 
L 232.322211 74.064537 
L 232.680669 74.431167 
L 233.039172 75.302516 
L 233.577014 77.598516 
L 234.114961 81.101429 
L 235.729427 93.64636 
L 235.908871 93.980247 
L 236.088325 93.885875 
L 236.267792 93.395548 
L 236.626759 91.533427 
L 237.883512 83.960272 
L 238.242689 82.892414 
L 238.601913 82.536003 
L 238.781542 82.642091 
L 239.140835 83.461305 
L 239.500175 85.158829 
L 239.859561 87.854854 
L 240.398728 94.217535 
L 240.937999 104.547027 
L 241.297572 114.970996 
L 242.016856 141.726495 
L 242.196707 137.808741 
L 242.916224 110.453893 
L 243.455985 98.998391 
L 243.995851 92.041268 
L 244.535821 87.818083 
L 245.075897 85.403913 
L 245.616078 84.165234 
L 246.156364 83.583824 
L 247.057073 83.088302 
L 247.777851 82.878993 
L 248.138311 82.968342 
L 248.498817 83.302662 
L 248.859369 83.976488 
L 249.219969 85.083522 
L 249.760956 87.744065 
L 250.302048 91.740354 
L 251.204102 99.112793 
L 251.384548 99.642473 
L 251.565006 99.44686 
L 251.745476 98.464299 
L 252.10645 94.536922 
L 253.550814 75.161017 
L 254.092645 70.563326 
L 254.63458 67.581688 
L 254.995929 66.433204 
L 255.357325 65.936234 
L 255.538041 65.932832 
L 255.718768 66.09601 
L 256.080258 66.941126 
L 256.441795 68.528324 
L 256.803379 70.951176 
L 257.345843 76.496765 
L 257.888413 85.221043 
L 258.250185 93.831721 
L 258.612004 106.519768 
L 258.973869 128.800798 
L 259.335782 187.120756 
L 259.697742 126.914508 
L 260.059749 107.704248 
L 260.602848 93.195885 
L 261.146053 85.445293 
L 261.689363 81.341242 
L 262.051629 80.068422 
L 262.23278 79.80951 
L 262.413942 79.786859 
L 262.595117 79.993199 
L 262.9575 81.076994 
L 263.319931 83.051424 
L 263.863666 87.74391 
L 264.407507 94.73384 
L 264.951454 104.485026 
L 265.676881 122.597768 
L 266.221076 134.932823 
L 266.402498 135.533641 
L 266.583932 133.932007 
L 270.033416 79.386211 
L 270.760167 72.164011 
L 271.305354 68.41384 
L 271.850648 66.044878 
L 272.214237 65.207826 
L 272.577872 64.959597 
L 272.759708 65.059292 
L 273.123415 65.722084 
L 273.487169 67.03948 
L 273.850971 69.077891 
L 274.396763 73.707862 
L 274.942661 80.649603 
L 275.670691 94.00401 
L 276.216839 102.747476 
L 276.398912 103.050642 
L 276.580996 101.625858 
L 277.127322 92.375042 
L 277.855922 81.376887 
L 278.402496 76.321492 
L 278.766939 74.275141 
L 279.131429 73.169428 
L 279.313692 72.950697 
L 279.495967 72.949913 
L 279.678253 73.166541 
L 280.042862 74.262141 
L 280.407519 76.284278 
L 280.954593 81.285632 
L 281.501774 89.27976 
L 282.049062 101.740034 
L 282.596458 121.091118 
L 282.961448 131.04091 
L 283.14396 128.134629 
L 284.056703 100.277286 
L 284.604491 91.267158 
L 285.152387 85.795993 
L 285.70039 82.602534 
L 286.248501 80.949487 
L 286.613967 80.431682 
L 286.979482 80.221511 
L 287.527843 80.252814 
L 288.076311 80.535525 
L 288.624887 81.105781 
L 288.990665 81.75514 
L 289.356489 82.732249 
L 289.905316 85.063987 
L 290.454251 88.846847 
L 291.003293 94.672078 
L 291.552443 103.114481 
L 292.101701 112.259617 
L 292.28481 113.572053 
L 292.467932 112.947716 
L 292.834212 106.637582 
L 293.75012 86.724402 
L 294.483062 76.258307 
L 295.032894 71.211521 
L 295.582835 68.073176 
L 295.949521 66.903904 
L 296.316256 66.417832 
L 296.499642 66.424319 
L 296.683039 66.596854 
L 297.04987 67.449622 
L 297.416749 69.015018 
L 297.967157 72.879865 
L 298.517673 79.035859 
L 299.068297 88.552499 
L 299.43544 97.92531 
L 299.802632 111.700011 
L 300.353508 144.700569 
L 300.537158 140.131762 
L 301.088179 110.151282 
L 301.639308 95.577288 
L 302.190546 87.778843 
L 302.741891 83.730272 
L 303.109515 82.542112 
L 303.293345 82.340893 
L 303.477188 82.388409 
L 303.661042 82.680253 
L 304.028786 83.998492 
L 304.396579 86.336839 
L 304.948358 92.024756 
L 305.500246 101.15803 
L 305.868232 110.205933 
L 306.236265 123.591432 
L 306.604347 147.604739 
L 306.972477 198.625609 
L 307.340656 141.243433 
L 307.708883 123.179537 
L 308.261313 109.233783 
L 308.813852 101.418403 
L 309.3665 96.472718 
L 310.287822 90.656451 
L 312.500227 77.785753 
L 313.0536 76.201856 
L 313.422576 75.794706 
L 313.607082 75.795921 
L 313.791601 75.937394 
L 314.160674 76.654015 
L 314.529795 77.977247 
L 315.083568 81.206846 
L 315.63745 86.119833 
L 316.376129 95.289891 
L 316.930266 101.956292 
L 317.115002 103.098855 
L 317.299751 103.305206 
L 317.484512 102.542323 
L 317.854069 98.888162 
L 318.963034 86.235887 
L 319.51768 82.668155 
L 319.887505 81.41435 
L 320.257379 81.017384 
L 320.442334 81.1372 
L 320.81228 82.030303 
L 321.182275 83.856493 
L 321.552319 86.753463 
L 321.922411 90.967201 
L 322.292552 96.936373 
L 322.662742 105.507996 
L 323.03298 118.613007 
L 323.403267 142.041556 
L 323.588429 160.73303 
L 323.773603 159.20048 
L 324.143987 128.118062 
L 324.51442 112.204076 
L 325.070161 99.11777 
L 325.626011 91.964742 
L 326.181972 88.185653 
L 326.552673 87.022712 
L 326.738041 86.787319 
L 326.923422 86.766466 
L 327.108816 86.951987 
L 327.479639 87.920938 
L 327.85051 89.666993 
L 328.40691 93.70708 
L 329.148946 101.501473 
L 330.819242 121.036374 
L 331.747612 130.56699 
L 332.119046 136.802096 
L 332.490528 146.839776 
L 332.862059 164.478521 
L 333.047843 174.99321 
L 333.23364 172.534572 
L 333.791102 136.682516 
L 334.348674 116.193515 
L 334.906357 102.964323 
L 335.46415 93.778233 
L 336.022053 87.42587 
L 336.580066 83.299951 
L 337.138189 81.025985 
L 337.510333 80.416091 
L 337.696423 80.36557 
L 337.882526 80.480661 
L 338.254768 81.206239 
L 338.627058 82.609675 
L 338.999398 84.743592 
L 339.558 89.543617 
L 340.116713 96.841474 
L 340.675536 107.901426 
L 341.234469 125.504805 
L 341.793513 148.852302 
L 341.979886 147.998084 
L 342.911933 118.89789 
L 343.471309 111.103689 
L 343.844288 108.453326 
L 344.217316 107.31627 
L 344.403849 107.249196 
L 344.590394 107.501037 
L 344.96352 108.96568 
L 345.336696 111.805387 
L 345.709921 116.287829 
L 346.083195 122.974534 
L 346.456519 133.094434 
L 346.829892 150.028531 
L 347.016597 164.473042 
L 347.203314 190.217942 
L 347.390043 195.951447 
L 347.76354 152.567921 
L 348.137085 135.381858 
L 348.697496 121.909546 
L 349.258017 114.782185 
L 349.63176 112.059402 
L 350.005552 110.498269 
L 350.379394 109.860141 
L 350.566333 109.827242 
L 350.940249 110.214385 
L 352.062292 112.47971 
L 352.249342 112.515493 
L 352.436405 112.329113 
L 352.810568 111.250653 
L 353.371905 108.309443 
L 354.307713 103.311014 
L 354.682123 102.161701 
L 355.056583 101.697562 
L 355.243831 101.736572 
L 355.431092 101.959831 
L 355.805651 102.963554 
L 356.180259 104.710665 
L 356.742264 108.674164 
L 358.054043 119.328936 
L 358.241489 119.519505 
L 358.428948 119.031697 
L 358.803903 116.299665 
L 360.30422 101.393858 
L 360.867043 98.434378 
L 361.242321 97.449521 
L 361.429978 97.245393 
L 361.617648 97.230961 
L 361.805331 97.40582 
L 362.180733 98.330114 
L 362.556184 100.053257 
L 362.931686 102.654676 
L 363.495031 108.545472 
L 364.058488 117.758121 
L 364.434188 126.814269 
L 364.809938 139.866037 
L 365.373656 167.030601 
L 365.561587 164.452676 
L 366.125455 139.292464 
L 366.689435 125.629833 
L 367.253526 118.583118 
L 367.62965 116.114403 
L 368.005823 114.983414 
L 368.193929 114.855519 
L 368.382046 114.998789 
L 368.758319 116.067612 
L 369.134642 118.169835 
L 369.69922 123.369865 
L 370.26391 131.378511 
L 371.017005 146.853747 
L 371.581957 157.635425 
L 371.7703 158.8148 
L 371.958655 158.448125 
L 372.335402 155.143245 
L 372.900616 150.310932 
L 373.277488 148.799174 
L 373.465943 148.507975 
L 374.219887 148.054901 
L 374.408404 147.333708 
L 374.785477 144.207015 
L 375.351179 135.951398 
L 376.671588 115.524689 
L 377.426383 107.465631 
L 377.99261 103.393427 
L 378.558951 101.008113 
L 378.936574 100.355776 
L 379.125404 100.312113 
L 379.314247 100.458135 
L 379.69197 101.327784 
L 380.069744 102.994546 
L 380.447567 105.518733 
L 381.014397 111.175732 
L 381.581339 119.809162 
L 382.148394 133.193785 
L 383.093738 161.365052 
L 383.471963 148.943328 
L 384.039395 132.178278 
L 384.60694 122.733368 
L 384.985367 119.046702 
L 385.363843 116.886455 
L 385.74237 115.99099 
L 385.931653 115.966164 
L 386.120948 116.205587 
L 386.499575 117.446368 
L 386.878253 119.68062 
L 387.446365 124.887061 
L 388.772398 140.124806 
L 388.961882 140.233433 
L 389.151379 139.269764 
L 389.530409 135.069522 
L 390.478206 123.129424 
L 391.047036 118.66403 
L 391.426319 116.922883 
L 391.805652 116.065111 
L 391.995337 115.937749 
L 392.185036 115.996024 
L 392.56447 116.623488 
L 392.943955 117.848966 
L 393.513276 120.518352 
L 394.462399 125.127712 
L 394.842136 125.965329 
L 395.032024 126.023475 
L 395.221924 125.846523 
L 395.601762 124.94095 
L 396.55158 122.206115 
L 396.741581 122.008302 
L 396.931596 122.01776 
L 397.121622 122.262661 
L 397.501714 123.562869 
L 397.881856 126.13226 
L 398.262049 130.286732 
L 398.642292 136.597056 
L 399.022586 146.307043 
L 399.402931 162.953908 
L 399.593122 177.632006 
L 399.783326 205.571965 
L 399.973543 205.846828 
L 400.354015 161.299267 
L 400.734537 143.075503 
L 401.305415 127.531268 
L 401.876408 118.078919 
L 402.447514 112.091738 
L 403.018735 108.599654 
L 403.399613 107.420126 
L 403.780541 107.059397 
L 403.971024 107.167861 
L 404.352028 107.938391 
L 404.733083 109.43157 
L 405.304761 113.038294 
L 405.876554 118.384914 
L 406.257813 122.980345 
L 406.257813 122.980345 
" style="fill:none;stroke:#1f77b4;stroke-linecap:square;stroke-width:1.5;"/>
   </g>
   <g id="line2d_14">
    <path clip-path="url(#pd9dc63b80b)" d="M 48.982813 90.745542 
L 49.653122 93.207909 
L 50.323599 96.484967 
L 50.994244 100.792361 
L 51.665057 106.467105 
L 52.336038 114.144611 
L 52.839384 122.023218 
L 53.342824 133.233797 
L 53.678503 144.353993 
L 54.014225 162.541978 
L 54.182101 178.733034 
L 54.349988 214.68011 
L 54.517886 204.99867 
L 54.853712 159.636053 
L 55.357531 135.465788 
L 55.861444 121.87066 
L 56.533475 109.790086 
L 57.373752 99.382356 
L 58.214291 91.8336 
L 59.055094 86.043231 
L 60.064404 80.664426 
L 61.074095 76.569379 
L 61.915794 73.978618 
L 62.757756 72.058084 
L 63.431516 70.96685 
L 64.105445 70.248856 
L 64.611003 69.950589 
L 65.116656 69.861722 
L 65.622404 69.991526 
L 66.128247 70.3539 
L 66.634186 70.965695 
L 67.308918 72.200814 
L 67.98382 73.956648 
L 68.658892 76.28804 
L 69.50297 80.150771 
L 70.178423 84.212157 
L 70.854045 89.498049 
L 71.529838 96.654025 
L 72.036793 104.004844 
L 72.543844 114.356114 
L 72.881932 124.338352 
L 73.220061 139.666657 
L 73.389142 151.85374 
L 73.558233 172.432034 
L 73.727335 231.9 
L 74.065571 152.438801 
L 74.40385 130.738933 
L 74.911347 113.242861 
L 75.588159 99.138441 
L 76.265141 89.487089 
L 77.111608 80.600341 
L 77.958341 73.868973 
L 78.80534 68.649489 
L 79.652605 64.594409 
L 80.500137 61.452559 
L 81.347936 59.040332 
L 82.196001 57.262631 
L 82.874645 56.287868 
L 83.553461 55.72337 
L 84.062684 55.572199 
L 84.572004 55.648653 
L 85.08142 55.942346 
L 85.760791 56.656218 
L 86.440332 57.742176 
L 87.120046 59.251842 
L 87.79993 61.29581 
L 88.479986 64.035684 
L 89.160213 67.669506 
L 89.840611 72.43755 
L 90.521181 78.69425 
L 91.201923 87.133061 
L 91.712592 95.838997 
L 92.223357 108.508059 
L 92.563921 121.69789 
L 92.904528 145.976306 
L 93.245178 189.185667 
L 93.585871 133.845008 
L 93.926606 114.743774 
L 94.43779 98.327388 
L 95.11952 84.76853 
L 95.801421 75.540298 
L 96.65404 67.238195 
L 97.506928 61.074604 
L 98.360084 56.284393 
L 99.21351 52.509566 
L 100.067206 49.589184 
L 100.921171 47.413525 
L 101.775405 45.859527 
L 102.458987 44.992967 
L 103.142742 44.446211 
L 103.655671 44.267407 
L 104.168698 44.31938 
L 104.681821 44.635289 
L 105.195042 45.241503 
L 105.879488 46.520014 
L 106.564108 48.322599 
L 107.420125 51.273279 
L 108.276413 55.054778 
L 109.132971 59.998779 
L 109.818413 65.288401 
L 110.504029 72.50813 
L 111.018354 79.941969 
L 111.532777 90.335354 
L 112.047298 106.742732 
L 112.390365 126.527896 
L 112.561916 144.94576 
L 112.733477 192.988628 
L 113.076632 132.992982 
L 113.41983 109.938035 
L 113.934709 91.98632 
L 114.621366 77.715513 
L 115.308197 67.997803 
L 116.166981 59.109301 
L 117.026036 52.478328 
L 117.885363 47.433516 
L 118.744963 43.581077 
L 119.604835 40.665575 
L 120.464979 38.542136 
L 121.153291 37.363567 
L 121.841777 36.615723 
L 122.358256 36.314648 
L 122.874834 36.213896 
L 123.391509 36.293471 
L 124.080563 36.657898 
L 124.769792 37.323006 
L 125.459195 38.345822 
L 126.148773 39.834688 
L 126.838527 41.927691 
L 127.528455 44.763871 
L 128.218559 48.470635 
L 129.081434 54.557068 
L 129.771932 60.932477 
L 130.462605 69.358062 
L 130.980725 77.964026 
L 131.498944 90.398438 
L 131.844478 103.204806 
L 132.190056 126.141834 
L 132.535677 184.009458 
L 132.881343 118.705606 
L 133.227053 98.825509 
L 133.745699 82.18356 
L 134.437382 68.693953 
L 135.12924 59.635546 
L 135.99431 51.560266 
L 136.859656 45.609496 
L 137.725276 41.012168 
L 138.764383 36.764202 
L 139.630609 34.077765 
L 140.49711 32.075528 
L 141.19051 30.937092 
L 141.884086 30.204909 
L 142.404383 29.927729 
L 142.92478 29.890889 
L 143.445277 30.100135 
L 143.965872 30.557952 
L 144.660155 31.551735 
L 145.354614 32.973728 
L 146.222936 35.3507 
L 147.091535 38.461251 
L 147.960411 42.526434 
L 148.655711 46.759878 
L 149.351187 52.272444 
L 150.046842 59.697827 
L 150.568698 67.219505 
L 151.090655 77.589193 
L 151.612712 93.729899 
L 151.960805 112.832885 
L 152.134868 130.091265 
L 152.308942 170.928207 
L 153.00535 98.681157 
L 153.527773 80.351333 
L 154.050296 68.978681 
L 154.747148 58.437196 
L 155.618463 49.098435 
L 156.490056 42.269403 
L 157.361927 37.144712 
L 158.234077 33.298498 
L 159.106504 30.447374 
L 159.97921 28.385468 
L 160.677576 27.206466 
L 161.376119 26.394143 
L 162.074842 25.923524 
L 162.599 25.790411 
L 163.123259 25.849436 
L 163.647619 26.109676 
L 164.172079 26.585426 
L 164.871516 27.588741 
L 165.571131 29.065995 
L 166.270925 31.081912 
L 166.970898 33.708814 
L 167.846115 37.99163 
L 168.721613 43.656538 
L 169.422213 49.556075 
L 170.122991 57.312734 
L 170.648693 65.105997 
L 171.174496 75.947468 
L 171.525087 86.383901 
L 171.875723 102.577888 
L 172.051058 115.766999 
L 172.226404 139.279947 
L 172.401761 182.822117 
L 172.577129 130.235771 
L 172.9279 99.266653 
L 173.45414 78.642142 
L 173.980481 66.500064 
L 174.682426 55.62081 
L 175.384551 47.888337 
L 176.26246 40.734469 
L 177.14065 35.335255 
L 178.019121 31.139205 
L 178.897874 27.877915 
L 179.776908 25.426674 
L 180.480338 24.006648 
L 181.183948 23.041247 
L 181.711774 22.600002 
L 182.239702 22.388019 
L 182.767731 22.393855 
L 183.295861 22.608131 
L 183.824093 23.025282 
L 184.528561 23.897698 
L 185.233209 25.14965 
L 185.938038 26.824184 
L 186.643048 28.991749 
L 187.524565 32.553199 
L 188.229982 36.266201 
L 188.93558 40.989751 
L 189.641359 47.092308 
L 190.347319 55.249188 
L 190.876908 63.54461 
L 191.406599 75.244988 
L 191.759783 86.765077 
L 192.113013 105.536916 
L 192.289645 122.315169 
L 192.466288 160.59663 
L 192.642942 145.457621 
L 192.996285 102.196099 
L 193.349673 84.784302 
L 193.879841 69.430507 
L 194.58689 56.589781 
L 195.29412 47.760209 
L 196.178414 39.771194 
L 197.062992 33.90915 
L 197.947854 29.506305 
L 198.833001 26.178514 
L 199.718432 23.67849 
L 200.604147 21.850853 
L 201.312925 20.817731 
L 202.021885 20.15294 
L 202.553725 19.901072 
L 203.085667 19.86962 
L 203.617712 20.068065 
L 204.14986 20.505098 
L 204.85955 21.470315 
L 205.569423 22.883084 
L 206.279478 24.757648 
L 207.167305 27.801962 
L 208.055417 31.770534 
L 208.943816 36.981008 
L 209.65474 42.439263 
L 210.365848 49.643368 
L 211.077139 59.714212 
L 211.610728 70.702577 
L 211.966511 81.248805 
L 212.32234 97.528216 
L 212.500272 110.71489 
L 212.678215 134.062527 
L 212.856169 179.52399 
L 213.034135 125.94399 
L 213.390102 94.86362 
L 213.924138 74.286937 
L 214.458277 62.160779 
L 215.170623 51.213769 
L 215.883153 43.343637 
L 216.774073 36.01504 
L 217.665282 30.545692 
L 218.556777 26.439075 
L 219.44856 23.3972 
L 220.340631 21.205937 
L 221.054495 19.960253 
L 221.768543 19.10881 
L 222.482776 18.621158 
L 223.018572 18.483611 
L 223.554471 18.537709 
L 224.090474 18.783984 
L 224.805307 19.422163 
L 225.520324 20.44598 
L 226.235526 21.914372 
L 226.950912 23.911972 
L 227.666484 26.542556 
L 228.382241 29.919631 
L 229.277197 35.385588 
L 230.172442 42.604882 
L 230.888846 50.231268 
L 231.605436 60.73033 
L 232.143 72.292175 
L 232.501434 83.721087 
L 232.859914 102.478001 
L 233.039172 119.3894 
L 233.218441 158.70019 
L 234.114961 80.994571 
L 234.653012 65.735013 
L 235.370576 53.166145 
L 236.088325 44.750546 
L 236.806261 38.599242 
L 237.703941 32.768117 
L 238.781542 27.400424 
L 239.679862 23.901062 
L 240.578473 21.224252 
L 241.297572 19.67713 
L 242.016856 18.637491 
L 242.556442 18.164819 
L 243.096133 17.931516 
L 243.635929 17.920068 
L 244.175829 18.121307 
L 244.715835 18.535653 
L 245.436006 19.432324 
L 246.156364 20.737729 
L 247.057073 22.947069 
L 247.958075 25.805463 
L 248.859369 29.432133 
L 249.760956 34.17995 
L 250.482435 39.235475 
L 251.204102 46.02462 
L 251.925957 55.536655 
L 252.46747 65.662279 
L 253.00909 80.867215 
L 253.370228 97.644282 
L 253.550814 111.266382 
L 253.912023 173.856728 
L 254.092645 124.473049 
L 254.453923 94.410321 
L 254.995929 74.163721 
L 255.538041 62.063633 
L 256.261021 50.943338 
L 256.984189 42.83495 
L 257.888413 35.341604 
L 258.612004 30.914373 
L 259.335782 27.569484 
L 260.059749 25.053992 
L 260.964973 22.732405 
L 261.87049 21.035193 
L 262.776303 19.841642 
L 263.501164 19.269058 
L 264.044934 19.084589 
L 264.588811 19.117311 
L 265.132793 19.365753 
L 265.676881 19.826695 
L 266.402498 20.77687 
L 267.128304 22.147158 
L 267.854298 24.020684 
L 268.580481 26.516868 
L 269.306854 29.759406 
L 270.215086 35.001282 
L 271.123613 41.726606 
L 271.850648 48.505231 
L 272.577872 57.335667 
L 273.123415 66.417693 
L 273.669064 79.865033 
L 274.03289 94.33226 
L 274.396763 123.265326 
L 274.578717 167.707114 
L 275.124651 99.277526 
L 275.488666 82.448487 
L 276.034778 67.61932 
L 276.580996 58.041345 
L 277.309454 49.245268 
L 278.038101 42.948152 
L 278.949178 36.991256 
L 280.042862 31.453547 
L 280.954593 27.853127 
L 281.866621 25.161484 
L 282.596458 23.653055 
L 283.326485 22.668897 
L 283.874131 22.235922 
L 284.421883 22.0366 
L 284.969743 22.054704 
L 285.517711 22.285377 
L 286.065785 22.734181 
L 286.796719 23.690024 
L 287.527843 25.066204 
L 288.442017 27.355234 
L 289.356489 30.249068 
L 290.271261 33.844365 
L 291.186331 38.478812 
L 291.918603 43.3657 
L 292.651066 49.876794 
L 293.383721 58.887773 
L 293.933337 68.270477 
L 294.483062 81.75577 
L 294.849605 95.451059 
L 295.216196 119.817673 
L 295.582835 169.44606 
L 295.949521 110.854039 
L 296.316256 91.888944 
L 296.866448 75.836212 
L 297.600206 62.511565 
L 298.334156 53.242538 
L 299.068297 46.288248 
L 299.802632 41.002658 
L 300.537158 37.057052 
L 301.271877 34.187852 
L 302.006788 32.125382 
L 302.925697 30.29481 
L 303.844908 28.977705 
L 304.580493 28.220328 
L 305.316271 27.766561 
L 305.868232 27.661377 
L 306.4203 27.776223 
L 306.972477 28.117041 
L 307.524763 28.685056 
L 308.261313 29.803843 
L 308.998056 31.373282 
L 309.734993 33.481589 
L 310.472123 36.262187 
L 311.209446 39.850642 
L 312.131372 45.578662 
L 313.0536 52.732315 
L 313.976131 61.736565 
L 314.714374 71.412056 
L 315.268183 81.695823 
L 315.63745 91.497688 
L 316.006765 106.465936 
L 316.191441 118.273455 
L 316.376129 137.85268 
L 316.560829 193.798354 
L 316.930266 121.109291 
L 317.299751 99.006033 
L 317.854069 81.800675 
L 318.408497 71.4384 
L 319.147904 62.44256 
L 319.887505 56.303491 
L 320.81228 50.551661 
L 322.107476 44.075877 
L 323.03298 40.360924 
L 323.773603 38.138924 
L 324.329197 36.971606 
L 324.884902 36.214777 
L 325.440716 35.810322 
L 325.996639 35.682546 
L 326.552673 35.761123 
L 327.294221 36.110379 
L 328.035965 36.726807 
L 328.777903 37.677986 
L 329.520037 39.045183 
L 330.44798 41.352298 
L 331.561914 44.871669 
L 332.490528 48.484894 
L 333.23364 52.096072 
L 333.976947 56.779001 
L 334.72045 63.13309 
L 335.46415 72.000112 
L 336.022053 81.10447 
L 336.580066 93.681624 
L 336.952136 105.645152 
L 337.324255 124.337637 
L 337.510333 140.265434 
L 337.696423 173.194332 
L 337.882526 173.628801 
L 338.254768 125.468124 
L 338.627058 107.560049 
L 339.185587 91.874526 
L 339.930463 78.502889 
L 340.675536 69.11665 
L 341.420805 62.224264 
L 342.166271 57.243939 
L 342.911933 53.754832 
L 343.657793 51.332065 
L 344.403849 49.580701 
L 345.336696 47.901978 
L 346.269851 46.58274 
L 347.016597 45.850329 
L 347.576785 45.56802 
L 348.137085 45.551777 
L 348.697496 45.801843 
L 349.258017 46.295071 
L 350.005552 47.282565 
L 350.753285 48.620837 
L 351.501215 50.354023 
L 352.249342 52.609397 
L 352.997668 55.563026 
L 353.746191 59.35905 
L 354.682123 65.33297 
L 355.618365 72.636491 
L 356.554916 81.729917 
L 357.30438 91.566652 
L 357.866609 102.166003 
L 358.241489 112.409431 
L 358.61642 128.3688 
L 358.803903 141.357509 
L 358.991399 164.313422 
L 359.178908 212.461638 
L 359.366429 157.249818 
L 359.741508 125.925687 
L 360.116637 110.948769 
L 360.679423 97.479358 
L 361.242321 88.842213 
L 361.993025 81.040174 
L 362.743929 75.473888 
L 363.682837 70.041763 
L 364.809938 64.723603 
L 365.749531 61.267258 
L 366.501429 59.289198 
L 367.065483 58.278599 
L 367.62965 57.631852 
L 368.193929 57.288019 
L 368.758319 57.184712 
L 369.322822 57.273795 
L 370.075668 57.654492 
L 370.828713 58.355093 
L 371.581957 59.447684 
L 372.335402 60.987488 
L 373.277488 63.504345 
L 374.408404 67.241284 
L 375.351179 71.03772 
L 376.105623 74.820117 
L 376.860268 79.701807 
L 377.615113 86.275241 
L 378.370158 95.384393 
L 378.936574 104.723786 
L 379.503102 117.704573 
L 379.880851 130.231309 
L 380.258649 150.431043 
L 380.447567 168.732181 
L 380.636498 214.495422 
L 381.014397 159.0047 
L 381.392346 135.886714 
L 381.959363 117.984061 
L 382.526494 106.64222 
L 383.282844 95.928353 
L 384.039395 88.148972 
L 384.796147 82.470618 
L 385.553101 78.444179 
L 386.310255 75.658272 
L 387.067611 73.704841 
L 388.014589 71.923497 
L 389.151379 70.307672 
L 389.90949 69.566315 
L 390.478206 69.273896 
L 391.047036 69.253413 
L 391.615979 69.508737 
L 392.185036 70.013005 
L 392.943955 71.008916 
L 393.892887 72.711896 
L 394.652261 74.49901 
L 395.411837 76.82851 
L 396.171615 79.903989 
L 396.931596 83.864424 
L 397.881856 90.026856 
L 399.022586 99.049175 
L 399.783326 106.492645 
L 400.544269 116.42014 
L 401.11511 127.339396 
L 401.495733 138.125759 
L 401.876408 155.485303 
L 402.066764 170.363675 
L 402.257133 200.000884 
L 402.447514 210.795464 
L 402.828315 157.921423 
L 403.209167 139.670391 
L 403.780541 124.55997 
L 404.352028 115.275374 
L 405.114189 107.057129 
L 405.876554 101.221621 
L 406.257813 98.783984 
L 406.257813 98.783984 
" style="fill:none;stroke:#ff7f0e;stroke-linecap:square;stroke-width:1.5;"/>
   </g>
   <g id="line2d_15">
    <path clip-path="url(#pd9dc63b80b)" d="M 48.982813 90.745542 
L 49.653122 93.207909 
L 50.323599 96.484967 
L 50.994244 100.792361 
L 51.665057 106.467105 
L 52.336038 114.144611 
L 52.839384 122.023218 
L 53.342824 133.233797 
L 53.678503 144.353993 
L 54.014225 162.541978 
L 54.182101 178.733034 
L 54.349988 214.68011 
L 54.517886 204.99867 
L 54.853712 159.636053 
L 55.357531 135.465788 
L 55.861444 121.87066 
L 56.533475 109.790086 
L 57.373752 99.382356 
L 58.214291 91.8336 
L 59.055094 86.043231 
L 60.064404 80.664426 
L 61.074095 76.569379 
L 61.915794 73.978618 
L 62.757756 72.058084 
L 63.431516 70.96685 
L 64.105445 70.248856 
L 64.611003 69.950589 
L 65.116656 69.861722 
L 65.622404 69.991526 
L 66.128247 70.3539 
L 66.634186 70.965695 
L 67.308918 72.200814 
L 67.98382 73.956648 
L 68.658892 76.28804 
L 69.50297 80.150771 
L 70.178423 84.212157 
L 70.854045 89.498049 
L 71.529838 96.654025 
L 72.036793 104.004844 
L 72.543844 114.356114 
L 72.881932 124.338352 
L 73.220061 139.666657 
L 73.389142 151.85374 
L 73.558233 172.432034 
L 73.727335 231.9 
L 74.065571 152.438801 
L 74.40385 130.738933 
L 74.911347 113.242861 
L 75.588159 99.138441 
L 76.265141 89.487089 
L 77.111608 80.600341 
L 77.958341 73.868973 
L 78.80534 68.649489 
L 79.652605 64.594409 
L 80.500137 61.452559 
L 81.347936 59.040332 
L 82.196001 57.262631 
L 82.874645 56.287868 
L 83.553461 55.72337 
L 84.062684 55.572199 
L 84.572004 55.648653 
L 85.08142 55.942346 
L 85.760791 56.656218 
L 86.440332 57.742176 
L 87.120046 59.251842 
L 87.79993 61.29581 
L 88.479986 64.035684 
L 89.160213 67.669506 
L 89.840611 72.43755 
L 90.521181 78.69425 
L 91.201923 87.133061 
L 91.712592 95.838997 
L 92.223357 108.508059 
L 92.563921 121.69789 
L 92.904528 145.976306 
L 93.245178 189.185667 
L 93.585871 133.845008 
L 93.926606 114.743774 
L 94.43779 98.327388 
L 95.11952 84.76853 
L 95.801421 75.540298 
L 96.65404 67.238195 
L 97.506928 61.074604 
L 98.360084 56.284393 
L 99.21351 52.509566 
L 100.067206 49.589184 
L 100.921171 47.413525 
L 101.775405 45.859527 
L 102.458987 44.992967 
L 103.142742 44.446211 
L 103.655671 44.267407 
L 104.168698 44.31938 
L 104.681821 44.635289 
L 105.195042 45.241503 
L 105.879488 46.520014 
L 106.564108 48.322599 
L 107.420125 51.273279 
L 108.276413 55.054778 
L 109.132971 59.998779 
L 109.818413 65.288401 
L 110.504029 72.50813 
L 111.018354 79.941969 
L 111.532777 90.335354 
L 112.047298 106.742732 
L 112.390365 126.527896 
L 112.561916 144.94576 
L 112.733477 192.988628 
L 113.076632 132.992982 
L 113.41983 109.938035 
L 113.934709 91.98632 
L 114.621366 77.715513 
L 115.308197 67.997803 
L 116.166981 59.109301 
L 117.026036 52.478328 
L 117.885363 47.433516 
L 118.744963 43.581077 
L 119.604835 40.665575 
L 120.464979 38.542136 
L 121.153291 37.363567 
L 121.841777 36.615723 
L 122.358256 36.314648 
L 122.874834 36.213896 
L 123.391509 36.293471 
L 124.080563 36.657898 
L 124.769792 37.323006 
L 125.459195 38.345822 
L 126.148773 39.834688 
L 126.838527 41.927691 
L 127.528455 44.763871 
L 128.218559 48.470635 
L 129.081434 54.557068 
L 129.771932 60.932477 
L 130.462605 69.358062 
L 130.980725 77.964026 
L 131.498944 90.398438 
L 131.844478 103.204806 
L 132.190056 126.141834 
L 132.535677 184.009458 
L 132.881343 118.705606 
L 133.227053 98.825509 
L 133.745699 82.18356 
L 134.437382 68.693953 
L 135.12924 59.635546 
L 135.99431 51.560266 
L 136.859656 45.609496 
L 137.725276 41.012168 
L 138.764383 36.764202 
L 139.630609 34.077765 
L 140.49711 32.075528 
L 141.19051 30.937092 
L 141.884086 30.204909 
L 142.404383 29.927729 
L 142.92478 29.890889 
L 143.445277 30.100135 
L 143.965872 30.557952 
L 144.660155 31.551735 
L 145.354614 32.973728 
L 146.222936 35.3507 
L 147.091535 38.461251 
L 147.960411 42.526434 
L 148.655711 46.759878 
L 149.351187 52.272444 
L 150.046842 59.697827 
L 150.568698 67.219505 
L 151.090655 77.589193 
L 151.612712 93.729899 
L 151.960805 112.832885 
L 152.134868 130.091265 
L 152.308942 170.928207 
L 153.00535 98.681157 
L 153.527773 80.351333 
L 154.050296 68.978681 
L 154.747148 58.437196 
L 155.618463 49.098435 
L 156.490056 42.269403 
L 157.361927 37.144712 
L 158.234077 33.298498 
L 159.106504 30.447374 
L 159.97921 28.385468 
L 160.677576 27.206466 
L 161.376119 26.394143 
L 162.074842 25.923524 
L 162.599 25.790411 
L 163.123259 25.849436 
L 163.647619 26.109676 
L 164.172079 26.585426 
L 164.871516 27.588741 
L 165.571131 29.065995 
L 166.270925 31.081912 
L 166.970898 33.708814 
L 167.846115 37.99163 
L 168.721613 43.656538 
L 169.422213 49.556075 
L 170.122991 57.312734 
L 170.648693 65.105997 
L 171.174496 75.947468 
L 171.525087 86.383901 
L 171.875723 102.577888 
L 172.051058 115.766999 
L 172.226404 139.279947 
L 172.401761 182.822117 
L 172.577129 130.235771 
L 172.9279 99.266653 
L 173.45414 78.642142 
L 173.980481 66.500064 
L 174.682426 55.62081 
L 175.384551 47.888337 
L 176.26246 40.734469 
L 177.14065 35.335255 
L 178.019121 31.139205 
L 178.897874 27.877915 
L 179.776908 25.426674 
L 180.480338 24.006648 
L 181.183948 23.041247 
L 181.711774 22.600002 
L 182.239702 22.388019 
L 182.767731 22.393855 
L 183.295861 22.608131 
L 183.824093 23.025282 
L 184.528561 23.897698 
L 185.233209 25.14965 
L 185.938038 26.824184 
L 186.643048 28.991749 
L 187.524565 32.553199 
L 188.229982 36.266201 
L 188.93558 40.989751 
L 189.641359 47.092308 
L 190.347319 55.249188 
L 190.876908 63.54461 
L 191.406599 75.244988 
L 191.759783 86.765077 
L 192.113013 105.536916 
L 192.289645 122.315169 
L 192.466288 160.59663 
L 192.642942 145.457621 
L 192.996285 102.196099 
L 193.349673 84.784302 
L 193.879841 69.430507 
L 194.58689 56.589781 
L 195.29412 47.760209 
L 196.178414 39.771194 
L 197.062992 33.90915 
L 197.947854 29.506305 
L 198.833001 26.178514 
L 199.718432 23.67849 
L 200.604147 21.850853 
L 201.312925 20.817731 
L 202.021885 20.15294 
L 202.553725 19.901072 
L 203.085667 19.86962 
L 203.617712 20.068065 
L 204.14986 20.505098 
L 204.85955 21.470315 
L 205.569423 22.883084 
L 206.279478 24.757648 
L 207.167305 27.801962 
L 208.055417 31.770534 
L 208.943816 36.981008 
L 209.65474 42.439263 
L 210.365848 49.643368 
L 211.077139 59.714212 
L 211.610728 70.702577 
L 211.966511 81.248805 
L 212.32234 97.528216 
L 212.500272 110.71489 
L 212.678215 134.062527 
L 212.856169 179.52399 
L 213.034135 125.94399 
L 213.390102 94.86362 
L 213.924138 74.286937 
L 214.458277 62.160779 
L 215.170623 51.213769 
L 215.883153 43.343637 
L 216.774073 36.01504 
L 217.665282 30.545692 
L 218.556777 26.439075 
L 219.44856 23.3972 
L 220.340631 21.205937 
L 221.054495 19.960253 
L 221.768543 19.10881 
L 222.482776 18.621158 
L 223.018572 18.483611 
L 223.554471 18.537709 
L 224.090474 18.783984 
L 224.805307 19.422163 
L 225.520324 20.44598 
L 226.235526 21.914372 
L 226.950912 23.911972 
L 227.666484 26.542556 
L 228.382241 29.919631 
L 229.277197 35.385588 
L 230.172442 42.604882 
L 230.888846 50.231268 
L 231.605436 60.73033 
L 232.143 72.292175 
L 232.501434 83.721087 
L 232.859914 102.478001 
L 233.039172 119.3894 
L 233.218441 158.70019 
L 234.114961 80.994571 
L 234.653012 65.735013 
L 235.370576 53.166145 
L 236.088325 44.750546 
L 236.806261 38.599242 
L 237.703941 32.768117 
L 238.781542 27.400424 
L 239.679862 23.901062 
L 240.578473 21.224252 
L 241.297572 19.67713 
L 242.016856 18.637491 
L 242.556442 18.164819 
L 243.096133 17.931516 
L 243.635929 17.920068 
L 244.175829 18.121307 
L 244.715835 18.535653 
L 245.436006 19.432324 
L 246.156364 20.737729 
L 247.057073 22.947069 
L 247.958075 25.805463 
L 248.859369 29.432133 
L 249.760956 34.17995 
L 250.482435 39.235475 
L 251.204102 46.02462 
L 251.925957 55.536655 
L 252.46747 65.662279 
L 253.00909 80.867215 
L 253.370228 97.644282 
L 253.550814 111.266382 
L 253.912023 173.856728 
L 254.092645 124.473049 
L 254.453923 94.410321 
L 254.995929 74.163721 
L 255.538041 62.063633 
L 256.261021 50.943338 
L 256.984189 42.83495 
L 257.888413 35.341604 
L 258.612004 30.914373 
L 259.335782 27.569484 
L 260.059749 25.053992 
L 260.964973 22.732405 
L 261.87049 21.035193 
L 262.776303 19.841642 
L 263.501164 19.269058 
L 264.044934 19.084589 
L 264.588811 19.117311 
L 265.132793 19.365753 
L 265.676881 19.826695 
L 266.402498 20.77687 
L 267.128304 22.147158 
L 267.854298 24.020684 
L 268.580481 26.516868 
L 269.306854 29.759406 
L 270.215086 35.001282 
L 271.123613 41.726606 
L 271.850648 48.505231 
L 272.577872 57.335667 
L 273.123415 66.417693 
L 273.669064 79.865033 
L 274.03289 94.33226 
L 274.396763 123.265326 
L 274.578717 167.707114 
L 275.124651 99.277526 
L 275.488666 82.448487 
L 276.034778 67.61932 
L 276.580996 58.041345 
L 277.309454 49.245268 
L 278.038101 42.948152 
L 278.949178 36.991256 
L 280.042862 31.453547 
L 280.954593 27.853127 
L 281.866621 25.161484 
L 282.596458 23.653055 
L 283.326485 22.668897 
L 283.874131 22.235922 
L 284.421883 22.0366 
L 284.969743 22.054704 
L 285.517711 22.285377 
L 286.065785 22.734181 
L 286.796719 23.690024 
L 287.527843 25.066204 
L 288.442017 27.355234 
L 289.356489 30.249068 
L 290.271261 33.844365 
L 291.186331 38.478812 
L 291.918603 43.3657 
L 292.651066 49.876794 
L 293.383721 58.887773 
L 293.933337 68.270477 
L 294.483062 81.75577 
L 294.849605 95.451059 
L 295.216196 119.817673 
L 295.582835 169.44606 
L 295.949521 110.854039 
L 296.316256 91.888944 
L 296.866448 75.836212 
L 297.600206 62.511565 
L 298.334156 53.242538 
L 299.068297 46.288248 
L 299.802632 41.002658 
L 300.537158 37.057052 
L 301.271877 34.187852 
L 302.006788 32.125382 
L 302.925697 30.29481 
L 303.844908 28.977705 
L 304.580493 28.220328 
L 305.316271 27.766561 
L 305.868232 27.661377 
L 306.4203 27.776223 
L 306.972477 28.117041 
L 307.524763 28.685056 
L 308.261313 29.803843 
L 308.998056 31.373282 
L 309.734993 33.481589 
L 310.472123 36.262187 
L 311.209446 39.850642 
L 312.131372 45.578662 
L 313.0536 52.732315 
L 313.976131 61.736565 
L 314.714374 71.412056 
L 315.268183 81.695823 
L 315.63745 91.497688 
L 316.006765 106.465936 
L 316.191441 118.273455 
L 316.376129 137.85268 
L 316.560829 193.798354 
L 316.930266 121.109291 
L 317.299751 99.006033 
L 317.854069 81.800675 
L 318.408497 71.4384 
L 319.147904 62.44256 
L 319.887505 56.303491 
L 320.81228 50.551661 
L 322.107476 44.075877 
L 323.03298 40.360924 
L 323.773603 38.138924 
L 324.329197 36.971606 
L 324.884902 36.214777 
L 325.440716 35.810322 
L 325.996639 35.682546 
L 326.552673 35.761123 
L 327.294221 36.110379 
L 328.035965 36.726807 
L 328.777903 37.677986 
L 329.520037 39.045183 
L 330.44798 41.352298 
L 331.561914 44.871669 
L 332.490528 48.484894 
L 333.23364 52.096072 
L 333.976947 56.779001 
L 334.72045 63.13309 
L 335.46415 72.000112 
L 336.022053 81.10447 
L 336.580066 93.681624 
L 336.952136 105.645152 
L 337.324255 124.337637 
L 337.510333 140.265434 
L 337.696423 173.194332 
L 337.882526 173.628801 
L 338.254768 125.468124 
L 338.627058 107.560049 
L 339.185587 91.874526 
L 339.930463 78.502889 
L 340.675536 69.11665 
L 341.420805 62.224264 
L 342.166271 57.243939 
L 342.911933 53.754832 
L 343.657793 51.332065 
L 344.403849 49.580701 
L 345.336696 47.901978 
L 346.269851 46.58274 
L 347.016597 45.850329 
L 347.576785 45.56802 
L 348.137085 45.551777 
L 348.697496 45.801843 
L 349.258017 46.295071 
L 350.005552 47.282565 
L 350.753285 48.620837 
L 351.501215 50.354023 
L 352.249342 52.609397 
L 352.997668 55.563026 
L 353.746191 59.35905 
L 354.682123 65.33297 
L 355.618365 72.636491 
L 356.554916 81.729917 
L 357.30438 91.566652 
L 357.866609 102.166003 
L 358.241489 112.409431 
L 358.61642 128.3688 
L 358.803903 141.357509 
L 358.991399 164.313422 
L 359.178908 212.461638 
L 359.366429 157.249818 
L 359.741508 125.925687 
L 360.116637 110.948769 
L 360.679423 97.479358 
L 361.242321 88.842213 
L 361.993025 81.040174 
L 362.743929 75.473888 
L 363.682837 70.041763 
L 364.809938 64.723603 
L 365.749531 61.267258 
L 366.501429 59.289198 
L 367.065483 58.278599 
L 367.62965 57.631852 
L 368.193929 57.288019 
L 368.758319 57.184712 
L 369.322822 57.273795 
L 370.075668 57.654492 
L 370.828713 58.355093 
L 371.581957 59.447684 
L 372.335402 60.987488 
L 373.277488 63.504345 
L 374.408404 67.241284 
L 375.351179 71.03772 
L 376.105623 74.820117 
L 376.860268 79.701807 
L 377.615113 86.275241 
L 378.370158 95.384393 
L 378.936574 104.723786 
L 379.503102 117.704573 
L 379.880851 130.231309 
L 380.258649 150.431043 
L 380.447567 168.732181 
L 380.636498 214.495422 
L 381.014397 159.0047 
L 381.392346 135.886714 
L 381.959363 117.984061 
L 382.526494 106.64222 
L 383.282844 95.928353 
L 384.039395 88.148972 
L 384.796147 82.470618 
L 385.553101 78.444179 
L 386.310255 75.658272 
L 387.067611 73.704841 
L 388.014589 71.923497 
L 389.151379 70.307672 
L 389.90949 69.566315 
L 390.478206 69.273896 
L 391.047036 69.253413 
L 391.615979 69.508737 
L 392.185036 70.013005 
L 392.943955 71.008916 
L 393.892887 72.711896 
L 394.652261 74.49901 
L 395.411837 76.82851 
L 396.171615 79.903989 
L 396.931596 83.864424 
L 397.881856 90.026856 
L 399.022586 99.049175 
L 399.783326 106.492645 
L 400.544269 116.42014 
L 401.11511 127.339396 
L 401.495733 138.125759 
L 401.876408 155.485303 
L 402.066764 170.363675 
L 402.257133 200.000884 
L 402.447514 210.795464 
L 402.828315 157.921423 
L 403.209167 139.670391 
L 403.780541 124.55997 
L 404.352028 115.275374 
L 405.114189 107.057129 
L 405.876554 101.221621 
L 406.257813 98.783984 
L 406.257813 98.783984 
" style="fill:none;stroke:#2ca02c;stroke-linecap:square;stroke-width:1.5;"/>
   </g>
   <g id="line2d_16">
    <path clip-path="url(#pd9dc63b80b)" d="M 48.982813 155.837444 
L 49.317946 157.082691 
L 49.653122 159.550758 
L 49.98834 163.447367 
L 50.491245 172.639092 
L 51.161932 188.47288 
L 51.32963 188.878484 
L 51.497338 186.192004 
L 52.671591 155.534699 
L 53.175 148.004446 
L 53.678503 143.026711 
L 54.182101 140.05335 
L 54.517886 139.035554 
L 54.853712 138.733087 
L 55.021641 138.842171 
L 55.357531 139.57435 
L 55.693462 140.992387 
L 56.197439 144.423668 
L 56.70151 149.433986 
L 57.541838 160.587566 
L 58.046162 166.701394 
L 58.38243 168.67956 
L 58.55058 168.806195 
L 58.718741 168.414766 
L 59.055094 166.570759 
L 60.064404 159.89708 
L 60.737489 157.02924 
L 61.410743 154.308644 
L 61.915794 151.451046 
L 63.094615 142.687981 
L 63.76846 138.524098 
L 64.273954 136.56935 
L 64.611003 135.938766 
L 64.779543 135.84102 
L 64.948094 135.894095 
L 65.285228 136.46737 
L 65.622404 137.680295 
L 66.128247 140.676962 
L 67.308918 149.110646 
L 67.477628 149.315936 
L 67.646348 148.991791 
L 67.98382 146.860162 
L 68.827686 137.799812 
L 69.50297 131.875245 
L 70.009544 129.288809 
L 70.347312 128.529092 
L 70.516213 128.451061 
L 70.685124 128.582366 
L 71.022977 129.509187 
L 71.360874 131.410394 
L 71.698812 134.449885 
L 72.2058 141.769736 
L 72.712883 154.013841 
L 73.389142 176.387304 
L 73.558233 174.879326 
L 74.573005 141.620323 
L 75.080534 132.676885 
L 75.588159 127.071359 
L 76.095879 123.821932 
L 76.434413 122.693238 
L 76.772989 122.261778 
L 76.942293 122.274916 
L 77.280933 122.686033 
L 77.788973 123.975778 
L 78.466508 125.791449 
L 78.80534 126.159059 
L 78.974772 126.126788 
L 79.313667 125.631552 
L 79.82209 124.144737 
L 80.500137 122.155726 
L 80.839225 121.691043 
L 81.008784 121.668569 
L 81.178355 121.809678 
L 81.517528 122.649446 
L 81.856743 124.348754 
L 82.196001 127.068969 
L 82.704968 133.513868 
L 83.214032 143.32651 
L 83.723191 153.365915 
L 83.892932 154.1016 
L 84.062684 152.559535 
L 84.572004 140.950442 
L 85.251246 127.263942 
L 85.760791 120.864355 
L 86.270431 117.132955 
L 86.610245 115.923926 
L 86.780168 115.680041 
L 86.950101 115.67293 
L 87.120046 115.902769 
L 87.459966 117.0831 
L 87.79993 119.249749 
L 88.309956 124.342836 
L 89.160213 133.997991 
L 89.330296 134.435834 
L 89.500391 133.851094 
L 89.840611 130.056646 
L 91.031721 112.563852 
L 91.542358 107.968524 
L 92.053091 105.258581 
L 92.393634 104.4185 
L 92.563921 104.277601 
L 92.734219 104.320832 
L 93.074847 104.960545 
L 93.415519 106.348938 
L 93.926606 109.886248 
L 94.43779 115.223448 
L 95.971923 134.204847 
L 96.142436 134.563573 
L 96.31296 134.350029 
L 96.65404 132.776808 
L 97.506928 128.15983 
L 97.848158 127.209162 
L 98.360084 126.529416 
L 98.701422 125.97501 
L 99.042804 124.692594 
L 99.384228 122.286744 
L 99.896445 116.800626 
L 101.091996 103.057733 
L 101.775405 97.942268 
L 102.288076 95.827427 
L 102.62991 95.274067 
L 102.800843 95.26542 
L 102.971787 95.443063 
L 103.313707 96.389758 
L 103.655671 98.200471 
L 103.997678 101.005385 
L 104.510769 107.524507 
L 105.023958 117.779835 
L 105.879488 138.887177 
L 106.050627 137.731088 
L 106.564108 124.238352 
L 107.077685 112.604269 
L 107.591361 105.228916 
L 108.105134 101.007046 
L 108.447703 99.607695 
L 108.619004 99.295827 
L 108.790315 99.236742 
L 108.961638 99.431169 
L 109.304316 100.603613 
L 109.647037 102.90357 
L 109.989801 106.507209 
L 110.504029 115.058882 
L 111.018354 128.937427 
L 111.532777 143.736653 
L 111.704273 142.641165 
L 113.076632 106.596557 
L 113.591445 100.219458 
L 114.106357 96.24574 
L 114.621366 94.021525 
L 114.96476 93.29858 
L 115.308197 93.062927 
L 115.651678 93.214285 
L 116.166981 93.935554 
L 118.057261 97.646924 
L 118.573021 99.28149 
L 119.088879 102.074161 
L 119.604835 106.811693 
L 120.120889 114.736884 
L 120.464979 122.960724 
L 120.809113 135.18619 
L 121.325396 154.885151 
L 121.669639 139.654421 
L 122.186086 118.148456 
L 122.70263 105.332624 
L 123.219273 97.157568 
L 123.736014 91.938371 
L 124.252854 88.951979 
L 124.597468 88.042671 
L 124.769792 87.899553 
L 124.942126 87.964732 
L 125.114472 88.241927 
L 125.459195 89.461022 
L 125.803962 91.645604 
L 126.321195 97.084075 
L 126.838527 105.952904 
L 127.355957 119.431736 
L 127.700965 128.911605 
L 127.873485 130.688571 
L 128.046016 128.887585 
L 129.426661 96.34717 
L 129.944584 90.449526 
L 130.462605 86.956 
L 130.808008 85.718375 
L 131.153454 85.266587 
L 131.326193 85.324683 
L 131.671705 86.005459 
L 132.017261 87.456667 
L 132.535677 91.195344 
L 133.054192 97.128268 
L 133.572806 105.952339 
L 134.091519 119.1302 
L 134.956259 148.677171 
L 135.12924 145.782611 
L 135.99431 118.284179 
L 136.513485 108.783877 
L 137.205871 100.497428 
L 137.898433 94.798226 
L 138.764383 89.64941 
L 139.457342 86.799957 
L 139.977177 85.530069 
L 140.323788 85.191702 
L 140.49711 85.1985 
L 140.843788 85.609379 
L 141.19051 86.620666 
L 141.537276 88.336342 
L 142.057507 92.550554 
L 142.577838 99.453299 
L 143.098268 110.656341 
L 143.445277 122.248587 
L 143.965872 145.392887 
L 144.139426 144.112375 
L 145.007362 108.906102 
L 145.528256 97.933122 
L 146.04925 91.152012 
L 146.570343 87.142375 
L 146.917793 85.694962 
L 147.265288 85.131031 
L 147.439052 85.172125 
L 147.612827 85.430305 
L 147.960411 86.621766 
L 148.308039 88.789679 
L 148.655711 92.094406 
L 149.177302 99.868594 
L 149.525084 107.87715 
L 149.872911 120.010842 
L 150.220783 141.946278 
L 150.568698 197.209685 
L 150.916659 137.405159 
L 151.264663 117.700296 
L 151.786753 102.06469 
L 152.308942 92.939524 
L 152.831232 87.183604 
L 153.353621 83.633106 
L 153.87611 81.742728 
L 154.224492 81.259295 
L 154.398699 81.2308 
L 154.572918 81.338666 
L 154.921389 81.952055 
L 155.269904 83.08515 
L 155.792759 85.760698 
L 156.315715 89.668874 
L 156.838771 94.994035 
L 157.361927 102.157908 
L 157.885184 112.103979 
L 158.40854 127.063117 
L 159.106504 154.066588 
L 159.281023 149.978846 
L 159.97921 120.944354 
L 160.502968 107.954689 
L 161.026825 99.237895 
L 161.725458 91.576007 
L 162.24955 87.97322 
L 162.773742 85.919555 
L 163.123259 85.376078 
L 163.298035 85.355759 
L 163.472821 85.508566 
L 163.822428 86.361222 
L 164.172079 88.012425 
L 164.521775 90.589334 
L 165.046403 96.677181 
L 165.571131 106.810109 
L 165.921005 117.682202 
L 166.270925 136.28451 
L 166.445901 153.411432 
L 166.620889 192.467777 
L 167.145919 130.958391 
L 167.495995 114.239669 
L 168.021193 99.993583 
L 168.546491 91.411437 
L 169.07189 85.975337 
L 169.597391 82.723091 
L 169.94778 81.544413 
L 170.298214 81.081157 
L 170.473448 81.108854 
L 170.648693 81.308384 
L 170.999217 82.230215 
L 171.349786 83.879187 
L 171.875723 87.869531 
L 172.401761 94.072494 
L 172.9279 103.319664 
L 173.45414 117.14041 
L 173.980481 134.147439 
L 174.15595 135.926374 
L 174.331431 133.315012 
L 175.384551 104.682532 
L 175.911263 96.588885 
L 176.438076 91.226162 
L 176.96499 87.774376 
L 177.492005 85.803189 
L 177.843405 85.196497 
L 178.194849 85.115174 
L 178.546339 85.548322 
L 178.897874 86.504682 
L 179.425261 88.99233 
L 179.952749 92.949252 
L 180.480338 98.821156 
L 181.008029 107.531187 
L 181.535821 121.29446 
L 181.887739 136.194566 
L 182.4157 161.823697 
L 183.119807 123.444007 
L 183.648005 108.751889 
L 184.176305 99.636377 
L 184.704706 93.627458 
L 185.233209 89.746792 
L 185.761814 87.552617 
L 186.114274 86.92661 
L 186.290521 86.855867 
L 186.466779 86.946414 
L 186.819329 87.618985 
L 187.171924 88.972529 
L 187.700902 92.389874 
L 188.229982 97.670997 
L 188.93558 107.601366 
L 189.464897 114.627302 
L 189.641359 115.614031 
L 189.817832 115.463492 
L 189.994316 114.191287 
L 190.523837 106.519627 
L 191.406599 93.74159 
L 192.113013 87.110281 
L 192.642942 84.018538 
L 193.172973 82.31839 
L 193.526384 81.901169 
L 193.703107 81.901319 
L 194.056586 82.317854 
L 194.41011 83.297315 
L 194.940482 85.870367 
L 195.470956 89.876448 
L 196.001532 95.457861 
L 196.886053 107.857615 
L 197.416903 114.144806 
L 197.593875 114.994778 
L 197.770859 114.972835 
L 197.947854 114.129723 
L 198.301878 110.753965 
L 199.364225 99.078284 
L 199.895552 95.239477 
L 200.426981 92.889466 
L 200.781325 92.086408 
L 201.135714 91.861951 
L 201.312925 91.962135 
L 201.667382 92.585809 
L 202.021885 93.781995 
L 202.553725 96.700512 
L 203.085667 101.07773 
L 203.795083 109.301198 
L 204.68211 120.01078 
L 204.85955 120.752937 
L 205.037001 120.569106 
L 205.214464 119.471062 
L 205.569423 115.292966 
L 206.81214 98.147245 
L 207.522516 91.469627 
L 208.233074 87.043587 
L 208.766113 85.001235 
L 209.12153 84.19831 
L 209.476992 83.823889 
L 209.8325 83.866795 
L 210.188054 84.315199 
L 210.543654 85.15001 
L 211.077139 87.038793 
L 212.500272 92.798497 
L 212.856169 93.175582 
L 213.034135 93.064486 
L 213.390102 92.269508 
L 213.924138 90.050736 
L 214.992519 85.165412 
L 215.526865 83.67953 
L 215.883153 83.237195 
L 216.061314 83.197084 
L 216.239486 83.283718 
L 216.595866 83.854671 
L 216.952292 84.986462 
L 217.487017 87.827186 
L 218.021845 92.182884 
L 218.735111 100.521469 
L 219.626951 112.429342 
L 219.983768 114.466799 
L 220.162194 114.275934 
L 220.51908 111.859519 
L 221.947084 98.292222 
L 222.482776 95.666909 
L 222.839962 94.720556 
L 223.197193 94.353167 
L 223.375826 94.370921 
L 223.733127 94.78191 
L 224.090474 95.661465 
L 224.626581 97.781881 
L 225.341552 101.885166 
L 226.593196 109.957265 
L 226.950912 110.927872 
L 227.129788 110.873319 
L 227.308675 110.402743 
L 227.666484 108.238041 
L 228.203284 102.753221 
L 229.814309 84.805678 
L 230.530621 79.371735 
L 231.067976 76.547227 
L 231.605436 74.778916 
L 231.963801 74.184661 
L 232.322211 74.064537 
L 232.680669 74.431167 
L 233.039172 75.302516 
L 233.577014 77.598516 
L 234.114961 81.101429 
L 235.729427 93.64636 
L 235.908871 93.980247 
L 236.088325 93.885875 
L 236.267792 93.395548 
L 236.626759 91.533427 
L 237.883512 83.960272 
L 238.242689 82.892414 
L 238.601913 82.536003 
L 238.781542 82.642091 
L 239.140835 83.461305 
L 239.500175 85.158829 
L 239.859561 87.854854 
L 240.398728 94.217535 
L 240.937999 104.547027 
L 241.297572 114.970996 
L 242.016856 141.726495 
L 242.196707 137.808741 
L 242.916224 110.453893 
L 243.455985 98.998391 
L 243.995851 92.041268 
L 244.535821 87.818083 
L 245.075897 85.403913 
L 245.616078 84.165234 
L 246.156364 83.583824 
L 247.057073 83.088302 
L 247.777851 82.878993 
L 248.138311 82.968342 
L 248.498817 83.302662 
L 248.859369 83.976488 
L 249.219969 85.083522 
L 249.760956 87.744065 
L 250.302048 91.740354 
L 251.204102 99.112793 
L 251.384548 99.642473 
L 251.565006 99.44686 
L 251.745476 98.464299 
L 252.10645 94.536922 
L 253.550814 75.161017 
L 254.092645 70.563326 
L 254.63458 67.581688 
L 254.995929 66.433204 
L 255.357325 65.936234 
L 255.538041 65.932832 
L 255.718768 66.09601 
L 256.080258 66.941126 
L 256.441795 68.528324 
L 256.803379 70.951176 
L 257.345843 76.496765 
L 257.888413 85.221043 
L 258.250185 93.831721 
L 258.612004 106.519768 
L 258.973869 128.800798 
L 259.335782 187.120756 
L 259.697742 126.914508 
L 260.059749 107.704248 
L 260.602848 93.195885 
L 261.146053 85.445293 
L 261.689363 81.341242 
L 262.051629 80.068422 
L 262.23278 79.80951 
L 262.413942 79.786859 
L 262.595117 79.993199 
L 262.9575 81.076994 
L 263.319931 83.051424 
L 263.863666 87.74391 
L 264.407507 94.73384 
L 264.951454 104.485026 
L 265.676881 122.597768 
L 266.221076 134.932823 
L 266.402498 135.533641 
L 266.583932 133.932007 
L 270.033416 79.386211 
L 270.760167 72.164011 
L 271.305354 68.41384 
L 271.850648 66.044878 
L 272.214237 65.207826 
L 272.577872 64.959597 
L 272.759708 65.059292 
L 273.123415 65.722084 
L 273.487169 67.03948 
L 273.850971 69.077891 
L 274.396763 73.707862 
L 274.942661 80.649603 
L 275.670691 94.00401 
L 276.216839 102.747476 
L 276.398912 103.050642 
L 276.580996 101.625858 
L 277.127322 92.375042 
L 277.855922 81.376887 
L 278.402496 76.321492 
L 278.766939 74.275141 
L 279.131429 73.169428 
L 279.313692 72.950697 
L 279.495967 72.949913 
L 279.678253 73.166541 
L 280.042862 74.262141 
L 280.407519 76.284278 
L 280.954593 81.285632 
L 281.501774 89.27976 
L 282.049062 101.740034 
L 282.596458 121.091118 
L 282.961448 131.04091 
L 283.14396 128.134629 
L 284.056703 100.277286 
L 284.604491 91.267158 
L 285.152387 85.795993 
L 285.70039 82.602534 
L 286.248501 80.949487 
L 286.613967 80.431682 
L 286.979482 80.221511 
L 287.527843 80.252814 
L 288.076311 80.535525 
L 288.624887 81.105781 
L 288.990665 81.75514 
L 289.356489 82.732249 
L 289.905316 85.063987 
L 290.454251 88.846847 
L 291.003293 94.672078 
L 291.552443 103.114481 
L 292.101701 112.259617 
L 292.28481 113.572053 
L 292.467932 112.947716 
L 292.834212 106.637582 
L 293.75012 86.724402 
L 294.483062 76.258307 
L 295.032894 71.211521 
L 295.582835 68.073176 
L 295.949521 66.903904 
L 296.316256 66.417832 
L 296.499642 66.424319 
L 296.683039 66.596854 
L 297.04987 67.449622 
L 297.416749 69.015018 
L 297.967157 72.879865 
L 298.517673 79.035859 
L 299.068297 88.552499 
L 299.43544 97.92531 
L 299.802632 111.700011 
L 300.353508 144.700569 
L 300.537158 140.131762 
L 301.088179 110.151282 
L 301.639308 95.577288 
L 302.190546 87.778843 
L 302.741891 83.730272 
L 303.109515 82.542112 
L 303.293345 82.340893 
L 303.477188 82.388409 
L 303.661042 82.680253 
L 304.028786 83.998492 
L 304.396579 86.336839 
L 304.948358 92.024756 
L 305.500246 101.15803 
L 305.868232 110.205933 
L 306.236265 123.591432 
L 306.604347 147.604739 
L 306.972477 198.625609 
L 307.340656 141.243433 
L 307.708883 123.179537 
L 308.261313 109.233783 
L 308.813852 101.418403 
L 309.3665 96.472718 
L 310.287822 90.656451 
L 312.500227 77.785753 
L 313.0536 76.201856 
L 313.422576 75.794706 
L 313.607082 75.795921 
L 313.791601 75.937394 
L 314.160674 76.654015 
L 314.529795 77.977247 
L 315.083568 81.206846 
L 315.63745 86.119833 
L 316.376129 95.289891 
L 316.930266 101.956292 
L 317.115002 103.098855 
L 317.299751 103.305206 
L 317.484512 102.542323 
L 317.854069 98.888162 
L 318.963034 86.235887 
L 319.51768 82.668155 
L 319.887505 81.41435 
L 320.257379 81.017384 
L 320.442334 81.1372 
L 320.81228 82.030303 
L 321.182275 83.856493 
L 321.552319 86.753463 
L 321.922411 90.967201 
L 322.292552 96.936373 
L 322.662742 105.507996 
L 323.03298 118.613007 
L 323.403267 142.041556 
L 323.588429 160.73303 
L 323.773603 159.20048 
L 324.143987 128.118062 
L 324.51442 112.204076 
L 325.070161 99.11777 
L 325.626011 91.964742 
L 326.181972 88.185653 
L 326.552673 87.022712 
L 326.738041 86.787319 
L 326.923422 86.766466 
L 327.108816 86.951987 
L 327.479639 87.920938 
L 327.85051 89.666993 
L 328.40691 93.70708 
L 329.148946 101.501473 
L 330.819242 121.036374 
L 331.747612 130.56699 
L 332.119046 136.802096 
L 332.490528 146.839776 
L 332.862059 164.478521 
L 333.047843 174.99321 
L 333.23364 172.534572 
L 333.791102 136.682516 
L 334.348674 116.193515 
L 334.906357 102.964323 
L 335.46415 93.778233 
L 336.022053 87.42587 
L 336.580066 83.299951 
L 337.138189 81.025985 
L 337.510333 80.416091 
L 337.696423 80.36557 
L 337.882526 80.480661 
L 338.254768 81.206239 
L 338.627058 82.609675 
L 338.999398 84.743592 
L 339.558 89.543617 
L 340.116713 96.841474 
L 340.675536 107.901426 
L 341.234469 125.504805 
L 341.793513 148.852302 
L 341.979886 147.998084 
L 342.911933 118.89789 
L 343.471309 111.103689 
L 343.844288 108.453326 
L 344.217316 107.31627 
L 344.403849 107.249196 
L 344.590394 107.501037 
L 344.96352 108.96568 
L 345.336696 111.805387 
L 345.709921 116.287829 
L 346.083195 122.974534 
L 346.456519 133.094434 
L 346.829892 150.028531 
L 347.016597 164.473042 
L 347.203314 190.217942 
L 347.390043 195.951447 
L 347.76354 152.567921 
L 348.137085 135.381858 
L 348.697496 121.909546 
L 349.258017 114.782185 
L 349.63176 112.059402 
L 350.005552 110.498269 
L 350.379394 109.860141 
L 350.566333 109.827242 
L 350.940249 110.214385 
L 352.062292 112.47971 
L 352.249342 112.515493 
L 352.436405 112.329113 
L 352.810568 111.250653 
L 353.371905 108.309443 
L 354.307713 103.311014 
L 354.682123 102.161701 
L 355.056583 101.697562 
L 355.243831 101.736572 
L 355.431092 101.959831 
L 355.805651 102.963554 
L 356.180259 104.710665 
L 356.742264 108.674164 
L 358.054043 119.328936 
L 358.241489 119.519505 
L 358.428948 119.031697 
L 358.803903 116.299665 
L 360.30422 101.393858 
L 360.867043 98.434378 
L 361.242321 97.449521 
L 361.429978 97.245393 
L 361.617648 97.230961 
L 361.805331 97.40582 
L 362.180733 98.330114 
L 362.556184 100.053257 
L 362.931686 102.654676 
L 363.495031 108.545472 
L 364.058488 117.758121 
L 364.434188 126.814269 
L 364.809938 139.866037 
L 365.373656 167.030601 
L 365.561587 164.452676 
L 366.125455 139.292464 
L 366.689435 125.629833 
L 367.253526 118.583118 
L 367.62965 116.114403 
L 368.005823 114.983414 
L 368.193929 114.855519 
L 368.382046 114.998789 
L 368.758319 116.067612 
L 369.134642 118.169835 
L 369.69922 123.369865 
L 370.26391 131.378511 
L 371.017005 146.853747 
L 371.581957 157.635425 
L 371.7703 158.8148 
L 371.958655 158.448125 
L 372.335402 155.143245 
L 372.900616 150.310932 
L 373.277488 148.799174 
L 373.465943 148.507975 
L 374.219887 148.054901 
L 374.408404 147.333708 
L 374.785477 144.207015 
L 375.351179 135.951398 
L 376.671588 115.524689 
L 377.426383 107.465631 
L 377.99261 103.393427 
L 378.558951 101.008113 
L 378.936574 100.355776 
L 379.125404 100.312113 
L 379.314247 100.458135 
L 379.69197 101.327784 
L 380.069744 102.994546 
L 380.447567 105.518733 
L 381.014397 111.175732 
L 381.581339 119.809162 
L 382.148394 133.193785 
L 383.093738 161.365052 
L 383.471963 148.943328 
L 384.039395 132.178278 
L 384.60694 122.733368 
L 384.985367 119.046702 
L 385.363843 116.886455 
L 385.74237 115.99099 
L 385.931653 115.966164 
L 386.120948 116.205587 
L 386.499575 117.446368 
L 386.878253 119.68062 
L 387.446365 124.887061 
L 388.772398 140.124806 
L 388.961882 140.233433 
L 389.151379 139.269764 
L 389.530409 135.069522 
L 390.478206 123.129424 
L 391.047036 118.66403 
L 391.426319 116.922883 
L 391.805652 116.065111 
L 391.995337 115.937749 
L 392.185036 115.996024 
L 392.56447 116.623488 
L 392.943955 117.848966 
L 393.513276 120.518352 
L 394.462399 125.127712 
L 394.842136 125.965329 
L 395.032024 126.023475 
L 395.221924 125.846523 
L 395.601762 124.94095 
L 396.55158 122.206115 
L 396.741581 122.008302 
L 396.931596 122.01776 
L 397.121622 122.262661 
L 397.501714 123.562869 
L 397.881856 126.13226 
L 398.262049 130.286732 
L 398.642292 136.597056 
L 399.022586 146.307043 
L 399.402931 162.953908 
L 399.593122 177.632006 
L 399.783326 205.571965 
L 399.973543 205.846828 
L 400.354015 161.299267 
L 400.734537 143.075503 
L 401.305415 127.531268 
L 401.876408 118.078919 
L 402.447514 112.091738 
L 403.018735 108.599654 
L 403.399613 107.420126 
L 403.780541 107.059397 
L 403.971024 107.167861 
L 404.352028 107.938391 
L 404.733083 109.43157 
L 405.304761 113.038294 
L 405.876554 118.384914 
L 406.257813 122.980345 
L 406.257813 122.980345 
" style="fill:none;stroke:#d62728;stroke-linecap:square;stroke-width:1.5;"/>
   </g>
   <g id="patch_3">
    <path d="M 48.982813 242.6 
L 48.982813 7.2 
" style="fill:none;stroke:#000000;stroke-linecap:square;stroke-linejoin:miter;stroke-width:0.8;"/>
   </g>
   <g id="patch_4">
    <path d="M 406.257812 242.6 
L 406.257812 7.2 
" style="fill:none;stroke:#000000;stroke-linecap:square;stroke-linejoin:miter;stroke-width:0.8;"/>
   </g>
   <g id="patch_5">
    <path d="M 48.982813 242.6 
L 406.257813 242.6 
" style="fill:none;stroke:#000000;stroke-linecap:square;stroke-linejoin:miter;stroke-width:0.8;"/>
   </g>
   <g id="patch_6">
    <path d="M 48.982813 7.2 
L 406.257813 7.2 
" style="fill:none;stroke:#000000;stroke-linecap:square;stroke-linejoin:miter;stroke-width:0.8;"/>
   </g>
   <g id="legend_1">
    <g id="patch_7">
     <path d="M 197.083594 237.6 
L 258.157031 237.6 
Q 260.157031 237.6 260.157031 235.6 
L 260.157031 176.775 
Q 260.157031 174.775 258.157031 174.775 
L 197.083594 174.775 
Q 195.083594 174.775 195.083594 176.775 
L 195.083594 235.6 
Q 195.083594 237.6 197.083594 237.6 
z
" style="fill:#ffffff;opacity:0.8;stroke:#cccccc;stroke-linejoin:miter;"/>
    </g>
    <g id="line2d_17">
     <path d="M 199.083594 182.873437 
L 219.083594 182.873437 
" style="fill:none;stroke:#1f77b4;stroke-linecap:square;stroke-width:1.5;"/>
    </g>
    <g id="line2d_18"/>
    <g id="text_15">
     <!-- S_0_0 -->
     <g transform="translate(227.083594 186.373437)scale(0.1 -0.1)">
      <defs>
       <path d="M 3425 4513 
L 3425 3897 
Q 3066 4069 2747 4153 
Q 2428 4238 2131 4238 
Q 1616 4238 1336 4038 
Q 1056 3838 1056 3469 
Q 1056 3159 1242 3001 
Q 1428 2844 1947 2747 
L 2328 2669 
Q 3034 2534 3370 2195 
Q 3706 1856 3706 1288 
Q 3706 609 3251 259 
Q 2797 -91 1919 -91 
Q 1588 -91 1214 -16 
Q 841 59 441 206 
L 441 856 
Q 825 641 1194 531 
Q 1563 422 1919 422 
Q 2459 422 2753 634 
Q 3047 847 3047 1241 
Q 3047 1584 2836 1778 
Q 2625 1972 2144 2069 
L 1759 2144 
Q 1053 2284 737 2584 
Q 422 2884 422 3419 
Q 422 4038 858 4394 
Q 1294 4750 2059 4750 
Q 2388 4750 2728 4690 
Q 3069 4631 3425 4513 
z
" id="DejaVuSans-53" transform="scale(0.015625)"/>
       <path d="M 3263 -1063 
L 3263 -1509 
L -63 -1509 
L -63 -1063 
L 3263 -1063 
z
" id="DejaVuSans-5f" transform="scale(0.015625)"/>
      </defs>
      <use xlink:href="#DejaVuSans-53"/>
      <use x="63.476562" xlink:href="#DejaVuSans-5f"/>
      <use x="113.476562" xlink:href="#DejaVuSans-30"/>
      <use x="177.099609" xlink:href="#DejaVuSans-5f"/>
      <use x="227.099609" xlink:href="#DejaVuSans-30"/>
     </g>
    </g>
    <g id="line2d_19">
     <path d="M 199.083594 197.829687 
L 219.083594 197.829687 
" style="fill:none;stroke:#ff7f0e;stroke-linecap:square;stroke-width:1.5;"/>
    </g>
    <g id="line2d_20"/>
    <g id="text_16">
     <!-- S_0_1 -->
     <g transform="translate(227.083594 201.329687)scale(0.1 -0.1)">
      <use xlink:href="#DejaVuSans-53"/>
      <use x="63.476562" xlink:href="#DejaVuSans-5f"/>
      <use x="113.476562" xlink:href="#DejaVuSans-30"/>
      <use x="177.099609" xlink:href="#DejaVuSans-5f"/>
      <use x="227.099609" xlink:href="#DejaVuSans-31"/>
     </g>
    </g>
    <g id="line2d_21">
     <path d="M 199.083594 212.785937 
L 219.083594 212.785937 
" style="fill:none;stroke:#2ca02c;stroke-linecap:square;stroke-width:1.5;"/>
    </g>
    <g id="line2d_22"/>
    <g id="text_17">
     <!-- S_1_0 -->
     <g transform="translate(227.083594 216.285937)scale(0.1 -0.1)">
      <use xlink:href="#DejaVuSans-53"/>
      <use x="63.476562" xlink:href="#DejaVuSans-5f"/>
      <use x="113.476562" xlink:href="#DejaVuSans-31"/>
      <use x="177.099609" xlink:href="#DejaVuSans-5f"/>
      <use x="227.099609" xlink:href="#DejaVuSans-30"/>
     </g>
    </g>
    <g id="line2d_23">
     <path d="M 199.083594 227.742188 
L 219.083594 227.742188 
" style="fill:none;stroke:#d62728;stroke-linecap:square;stroke-width:1.5;"/>
    </g>
    <g id="line2d_24"/>
    <g id="text_18">
     <!-- S_1_1 -->
     <g transform="translate(227.083594 231.242188)scale(0.1 -0.1)">
      <use xlink:href="#DejaVuSans-53"/>
      <use x="63.476562" xlink:href="#DejaVuSans-5f"/>
      <use x="113.476562" xlink:href="#DejaVuSans-31"/>
      <use x="177.099609" xlink:href="#DejaVuSans-5f"/>
      <use x="227.099609" xlink:href="#DejaVuSans-31"/>
     </g>
    </g>
   </g>
  </g>
 </g>
 <defs>
  <clipPath id="pd9dc63b80b">
   <rect height="235.4" width="357.275" x="48.982813" y="7.2"/>
  </clipPath>
 </defs>
</svg>
