<svg version="1.1" viewBox="0.0 0.0 930.498687664042 639.6456692913385" fill="none" stroke="none" stroke-linecap="square" stroke-miterlimit="10" xmlns:xlink="http://www.w3.org/1999/xlink" xmlns="http://www.w3.org/2000/svg"><clipPath id="p.0"><path d="m0 0l930.49866 0l0 639.6457l-930.49866 0l0 -639.6457z" clip-rule="nonzero"/></clipPath><g clip-path="url(#p.0)"><path fill="#000000" fill-opacity="0.0" d="m0 0l930.49866 0l0 639.6457l-930.49866 0z" fill-rule="evenodd"/><path fill="#ea9999" d="m156.84808 303.95926c-12.404083 6.444092 -27.22792 3.533142 -36.06314 -7.081665c-8.835213 -10.614838 -9.45163 -26.254211 -1.4996185 -38.04712c7.9520187 -11.792923 22.46524 -16.762665 35.30748 -12.090286z" fill-rule="evenodd"/><path stroke="#b6d7a8" stroke-width="1.0" stroke-linejoin="round" stroke-linecap="butt" d="m156.84808 303.95926c-12.404083 6.444092 -27.22792 3.533142 -36.06314 -7.081665c-8.835213 -10.614838 -9.45163 -26.254211 -1.4996185 -38.04712c7.9520187 -11.792923 22.46524 -16.762665 35.30748 -12.090286z" fill-rule="evenodd"/><path fill="#ea9999" d="m149.56917 245.3789l63.959793 23.940674l0 14.962891l-62.65547 22.443237z" fill-rule="evenodd"/><path stroke="#b6d7a8" stroke-width="1.0" stroke-linejoin="round" stroke-linecap="butt" d="m149.56917 245.3789l63.959793 23.940674l0 14.962891l-62.65547 22.443237z" fill-rule="evenodd"/><path fill="#ea9999" d="m117.060005 320.3092l0 0c-17.085526 -8.353027 -27.927795 -25.326172 -28.073845 -43.948486c-0.14604187 -18.622345 10.428749 -35.754883 27.381279 -44.36125l5.9322205 11.089554l0 0c-12.832596 6.4020386 -20.850006 19.225952 -20.740227 33.174164c0.10977936 13.948242 8.328125 26.652985 21.26001 32.865906z" fill-rule="evenodd"/><path stroke="#b6d7a8" stroke-width="1.0" stroke-linejoin="round" stroke-linecap="butt" d="m117.060005 320.3092l0 0c-17.085526 -8.353027 -27.927795 -25.326172 -28.073845 -43.948486c-0.14604187 -18.622345 10.428749 -35.754883 27.381279 -44.36125l5.9322205 11.089554l0 0c-12.832596 6.4020386 -20.850006 19.225952 -20.740227 33.174164c0.10977936 13.948242 8.328125 26.652985 21.26001 32.865906z" fill-rule="evenodd"/><path fill="#ea9999" d="m98.33288 331.82278l0 0c-18.67537 -10.306641 -30.3806 -33.12607 -29.680023 -57.86142c0.7005844 -24.735321 13.669716 -46.540207 32.88479 -55.28888l3.7675323 12.012817l0 0c-14.143631 7.1719513 -23.620384 24.289963 -24.159325 43.639435c-0.53894806 19.349457 7.96167 37.27704 21.670845 45.70331z" fill-rule="evenodd"/><path stroke="#b6d7a8" stroke-width="1.0" stroke-linejoin="round" stroke-linecap="butt" d="m98.33288 331.82278l0 0c-18.67537 -10.306641 -30.3806 -33.12607 -29.680023 -57.86142c0.7005844 -24.735321 13.669716 -46.540207 32.88479 -55.28888l3.7675323 12.012817l0 0c-14.143631 7.1719513 -23.620384 24.289963 -24.159325 43.639435c-0.53894806 19.349457 7.96167 37.27704 21.670845 45.70331z" fill-rule="evenodd"/><path fill="#ea9999" d="m76.41837 339.28442l0 0c-19.028538 -12.731934 -30.258892 -41.094086 -27.979599 -70.6622c2.279293 -29.568115 17.567856 -53.850998 38.090324 -60.49904l1.9167786 11.807495l0 0c-15.166199 5.858246 -26.398487 25.58493 -28.20776 49.53981c-1.8092766 23.954865 6.1822243 47.136353 20.069134 58.21591z" fill-rule="evenodd"/><path stroke="#b6d7a8" stroke-width="1.0" stroke-linejoin="round" stroke-linecap="butt" d="m76.41837 339.28442l0 0c-19.028538 -12.731934 -30.258892 -41.094086 -27.979599 -70.6622c2.279293 -29.568115 17.567856 -53.850998 38.090324 -60.49904l1.9167786 11.807495l0 0c-15.166199 5.858246 -26.398487 25.58493 -28.20776 49.53981c-1.8092766 23.954865 6.1822243 47.136353 20.069134 58.21591z" fill-rule="evenodd"/><path fill="#ea9999" d="m803.1494 303.96024c12.404053 6.444092 27.227905 3.533142 36.06311 -7.081665c8.835205 -10.614838 9.45166 -26.254211 1.4996338 -38.04712c-7.9520264 -11.792923 -22.465271 -16.762665 -35.307495 -12.090286z" fill-rule="evenodd"/><path stroke="#b6d7a8" stroke-width="1.0" stroke-linejoin="round" stroke-linecap="butt" d="m803.1494 303.96024c12.404053 6.444092 27.227905 3.533142 36.06311 -7.081665c8.835205 -10.614838 9.45166 -26.254211 1.4996338 -38.04712c-7.9520264 -11.792923 -22.465271 -16.762665 -35.307495 -12.090286z" fill-rule="evenodd"/><path fill="#ea9999" d="m810.4283 245.37988l-63.959778 23.940674l0 14.962891l62.655457 22.443237z" fill-rule="evenodd"/><path stroke="#b6d7a8" stroke-width="1.0" stroke-linejoin="round" stroke-linecap="butt" d="m810.4283 245.37988l-63.959778 23.940674l0 14.962891l62.655457 22.443237z" fill-rule="evenodd"/><path fill="#ea9999" d="m842.93744 320.31018l0 0c17.085571 -8.353027 27.927795 -25.326172 28.073853 -43.948486c0.14605713 -18.622345 -10.428711 -35.754883 -27.381287 -44.36125l-5.93219 11.089554l0 0c12.832581 6.4020386 20.850037 19.225952 20.740234 33.174194c-0.109802246 13.948212 -8.328125 26.652954 -21.26001 32.865875z" fill-rule="evenodd"/><path stroke="#b6d7a8" stroke-width="1.0" stroke-linejoin="round" stroke-linecap="butt" d="m842.93744 320.31018l0 0c17.085571 -8.353027 27.927795 -25.326172 28.073853 -43.948486c0.14605713 -18.622345 -10.428711 -35.754883 -27.381287 -44.36125l-5.93219 11.089554l0 0c12.832581 6.4020386 20.850037 19.225952 20.740234 33.174194c-0.109802246 13.948212 -8.328125 26.652954 -21.26001 32.865875z" fill-rule="evenodd"/><path fill="#ea9999" d="m861.6646 331.82376l0 0c18.675354 -10.306641 30.380554 -33.12607 29.679993 -57.86142c-0.7005615 -24.735321 -13.669678 -46.540207 -32.884766 -55.28888l-3.767517 12.012817l0 0c14.143616 7.1719513 23.620361 24.289963 24.159302 43.639435c0.5389404 19.349457 -7.96167 37.27704 -21.670837 45.70331z" fill-rule="evenodd"/><path stroke="#b6d7a8" stroke-width="1.0" stroke-linejoin="round" stroke-linecap="butt" d="m861.6646 331.82376l0 0c18.675354 -10.306641 30.380554 -33.12607 29.679993 -57.86142c-0.7005615 -24.735321 -13.669678 -46.540207 -32.884766 -55.28888l-3.767517 12.012817l0 0c14.143616 7.1719513 23.620361 24.289963 24.159302 43.639435c0.5389404 19.349457 -7.96167 37.27704 -21.670837 45.70331z" fill-rule="evenodd"/><path fill="#ea9999" d="m883.5791 339.2854l0 0c19.028503 -12.731934 30.258911 -41.094086 27.979614 -70.6622c-2.2792969 -29.568115 -17.567871 -53.850998 -38.090332 -60.49904l-1.9168091 11.807495l0 0c15.166199 5.858246 26.398499 25.58493 28.207764 49.53981c1.8092651 23.954865 -6.18219 47.136353 -20.069092 58.21591z" fill-rule="evenodd"/><path stroke="#b6d7a8" stroke-width="1.0" stroke-linejoin="round" stroke-linecap="butt" d="m883.5791 339.2854l0 0c19.028503 -12.731934 30.258911 -41.094086 27.979614 -70.6622c-2.2792969 -29.568115 -17.567871 -53.850998 -38.090332 -60.49904l-1.9168091 11.807495l0 0c15.166199 5.858246 26.398499 25.58493 28.207764 49.53981c1.8092651 23.954865 -6.18219 47.136353 -20.069092 58.21591z" fill-rule="evenodd"/><path fill="#000000" fill-opacity="0.0" d="m315.5328 52.107613l218.83463 0l0 95.30709l-218.83463 0z" fill-rule="evenodd"/><path stroke="#ea9999" stroke-width="4.0" stroke-linejoin="round" stroke-linecap="butt" d="m315.5328 52.107613l218.83463 0l0 95.30709l-218.83463 0z" fill-rule="evenodd"/><path fill="#ea9999" d="m376.59857 78.99949l9.0625 0l0 11.84375q-2.203125 0.71875 -4.15625 1.0q-1.9375 0.296875 -3.96875 0.296875q-5.171875 0 -7.90625 -3.03125q-2.71875 -3.046875 -2.71875 -8.734375q0 -5.53125 3.15625 -8.625q3.171875 -3.09375 8.78125 -3.09375q3.515625 0 6.78125 1.40625l-1.609375 3.875q-2.5 -1.25 -5.203125 -1.25q-3.140625 0 -5.03125 2.109375q-1.890625 2.109375 -1.890625 5.671875q0 3.71875 1.515625 5.6875q1.53125 1.953125 4.4375 1.953125q1.515625 0 3.078125 -0.3125l0 -4.765625l-4.328125 0l0 -4.03125zm23.875 -4.96875q0.96875 0 1.609375 0.140625l-0.359375 4.46875q-0.578125 -0.15625 -1.40625 -0.15625q-2.28125 0 -3.5625 1.171875q-1.265625 1.171875 -1.265625 3.28125l0 8.890625l-4.765625 0l0 -17.46875l3.609375 0l0.703125 2.9375l0.234375 0q0.8125 -1.46875 2.1875 -2.359375q1.390625 -0.90625 3.015625 -0.90625zm15.875 17.796875l-0.921875 -2.375l-0.125 0q-1.203125 1.515625 -2.484375 2.109375q-1.265625 0.578125 -3.3125 0.578125q-2.515625 0 -3.96875 -1.4375q-1.4375 -1.4375 -1.4375 -4.09375q0 -2.78125 1.9375 -4.09375q1.953125 -1.328125 5.875 -1.46875l3.03125 -0.09375l0 -0.765625q0 -2.65625 -2.71875 -2.65625q-2.09375 0 -4.921875 1.265625l-1.578125 -3.21875q3.015625 -1.578125 6.6875 -1.578125q3.515625 0 5.390625 1.53125q1.875 1.53125 1.875 4.65625l0 11.640625l-3.328125 0zm-1.40625 -8.09375l-1.84375 0.0625q-2.078125 0.0625 -3.09375 0.75q-1.015625 0.6875 -1.015625 2.09375q0 2.015625 2.3125 2.015625q1.65625 0 2.640625 -0.953125q1.0 -0.953125 1.0 -2.53125l0 -1.4375zm17.0 4.609375q1.25 0 3.0 -0.546875l0 3.546875q-1.78125 0.796875 -4.375 0.796875q-2.859375 0 -4.171875 -1.4375q-1.296875 -1.453125 -1.296875 -4.34375l0 -8.421875l-2.28125 0l0 -2.015625l2.625 -1.59375l1.375 -3.6875l3.046875 0l0 3.71875l4.890625 0l0 3.578125l-4.890625 0l0 8.421875q0 1.015625 0.5625 1.5q0.578125 0.484375 1.515625 0.484375zm6.328125 -18.5q0 -2.328125 2.59375 -2.328125q2.59375 0 2.59375 2.328125q0 1.109375 -0.65625 1.734375q-0.640625 0.609375 -1.9375 0.609375q-2.59375 0 -2.59375 -2.34375zm4.96875 21.984375l-4.765625 0l0 -17.46875l4.765625 0l0 17.46875zm21.125 0l-4.765625 0l0 -10.203125q0 -1.890625 -0.671875 -2.828125q-0.671875 -0.953125 -2.140625 -0.953125q-2.0 0 -2.890625 1.34375q-0.890625 1.328125 -0.890625 4.421875l0 8.21875l-4.765625 0l0 -17.46875l3.640625 0l0.640625 2.234375l0.265625 0q0.796875 -1.265625 2.1875 -1.90625q1.40625 -0.65625 3.1875 -0.65625q3.046875 0 4.625 1.65625q1.578125 1.640625 1.578125 4.75l0 11.390625zm20.109375 -17.46875l0 2.421875l-2.734375 0.703125q0.75 1.171875 0.75 2.625q0 2.8125 -1.96875 4.390625q-1.953125 1.5625 -5.4375 1.5625l-0.859375 -0.046875l-0.703125 -0.078125q-0.734375 0.5625 -0.734375 1.25q0 1.03125 2.625 1.03125l2.96875 0q2.875 0 4.375 1.234375q1.515625 1.234375 1.515625 3.625q0 3.0625 -2.5625 4.75q-2.546875 1.6875 -7.328125 1.6875q-3.65625 0 -5.59375 -1.28125q-1.921875 -1.265625 -1.921875 -3.5625q0 -1.578125 0.984375 -2.640625q0.984375 -1.0625 2.890625 -1.515625q-0.734375 -0.3125 -1.28125 -1.015625q-0.546875 -0.71875 -0.546875 -1.515625q0 -1.0 0.578125 -1.65625q0.578125 -0.671875 1.671875 -1.3125q-1.375 -0.59375 -2.1875 -1.90625q-0.796875 -1.3125 -0.796875 -3.09375q0 -2.859375 1.859375 -4.421875q1.859375 -1.5625 5.3125 -1.5625q0.734375 0 1.734375 0.140625q1.015625 0.125 1.296875 0.1875l6.09375 0zm-13.484375 19.9375q0 0.984375 0.9375 1.546875q0.953125 0.5625 2.65625 0.5625q2.5625 0 4.015625 -0.703125q1.453125 -0.703125 1.453125 -1.921875q0 -0.984375 -0.859375 -1.359375q-0.859375 -0.375 -2.65625 -0.375l-2.46875 0q-1.3125 0 -2.203125 0.609375q-0.875 0.625 -0.875 1.640625zm1.734375 -14.21875q0 1.421875 0.640625 2.25q0.65625 0.828125 1.984375 0.828125q1.34375 0 1.96875 -0.828125q0.625 -0.828125 0.625 -2.25q0 -3.15625 -2.59375 -3.15625q-2.625 0 -2.625 3.15625z" fill-rule="nonzero"/><path fill="#ea9999" d="m367.23138 110.68699q-2.734375 0 -4.234375 2.0625q-1.5 2.046875 -1.5 5.71875q0 7.640625 5.734375 7.640625q2.40625 0 5.828125 -1.203125l0 4.0624924q-2.8125 1.171875 -6.28125 1.171875q-4.984375 0 -7.625 -3.0156174q-2.640625 -3.03125 -2.640625 -8.6875q0 -3.5625 1.296875 -6.234375q1.296875 -2.6875 3.71875 -4.109375q2.4375 -1.4375 5.703125 -1.4375q3.328125 0 6.6875 1.609375l-1.5625 3.9375q-1.28125 -0.609375 -2.578125 -1.0625q-1.296875 -0.453125 -2.546875 -0.453125zm14.109375 10.375q0 2.59375 0.84375 3.921875q0.859375 1.328125 2.78125 1.328125q1.90625 0 2.734375 -1.3125q0.84375 -1.328125 0.84375 -3.9375q0 -2.59375 -0.84375 -3.890625q-0.84375 -1.296875 -2.765625 -1.296875q-1.90625 0 -2.75 1.296875q-0.84375 1.28125 -0.84375 3.890625zm12.078125 0q0 4.265625 -2.25 6.671875q-2.25 2.4062424 -6.265625 2.4062424q-2.515625 0 -4.4375 -1.09375q-1.921875 -1.1093674 -2.953125 -3.1718674q-1.03125 -2.0625 -1.03125 -4.8125q0 -4.28125 2.234375 -6.65625q2.234375 -2.375 6.28125 -2.375q2.515625 0 4.4375 1.09375q1.921875 1.09375 2.953125 3.140625q1.03125 2.046875 1.03125 4.796875zm16.3125 8.765617l-0.640625 -2.2343674l-0.25 0q-0.765625 1.2187424 -2.171875 1.8906174q-1.40625 0.65625 -3.203125 0.65625q-3.078125 0 -4.640625 -1.640625q-1.5625 -1.6562424 -1.5625 -4.7499924l0 -11.390625l4.765625 0l0 10.203125q0 1.890625 0.671875 2.84375q0.671875 0.9375 2.140625 0.9375q2.0 0 2.890625 -1.328125q0.890625 -1.34375 0.890625 -4.4375l0 -8.21875l4.765625 0l0 17.468742l-3.65625 0zm18.25 0.3125q-3.078125 0 -4.828125 -2.2343674l-0.25 0q0.25 2.1874924 0.25 2.5312424l0 7.078125l-4.765625 0l0 -25.156242l3.875 0l0.671875 2.265625l0.21875 0q1.671875 -2.59375 4.953125 -2.59375q3.09375 0 4.84375 2.390625q1.75 2.390625 1.75 6.640625q0 2.796875 -0.828125 4.859375q-0.8125 2.0625 -2.328125 3.1406174q-1.515625 1.078125 -3.5625 1.078125zm-1.40625 -14.296867q-1.765625 0 -2.578125 1.09375q-0.8125 1.078125 -0.84375 3.578125l0 0.515625q0 2.8125 0.828125 4.03125q0.84375 1.21875 2.65625 1.21875q3.203125 0 3.203125 -5.28125q0 -2.578125 -0.796875 -3.859375q-0.78125 -1.296875 -2.46875 -1.296875zm16.828125 13.984367l-4.765625 0l0 -24.312492l4.765625 0l0 24.312492zm12.234375 -14.406242q-1.515625 0 -2.375 0.96875q-0.859375 0.953125 -0.984375 2.71875l6.6875 0q-0.03125 -1.765625 -0.921875 -2.71875q-0.890625 -0.96875 -2.40625 -0.96875zm0.671875 14.718742q-4.21875 0 -6.59375 -2.3281174q-2.375 -2.328125 -2.375 -6.59375q0 -4.390625 2.1875 -6.78125q2.203125 -2.40625 6.078125 -2.40625q3.703125 0 5.765625 2.109375q2.0625 2.109375 2.0625 5.828125l0 2.3125l-11.265625 0q0.078125 2.03125 1.203125 3.171875q1.125 1.140625 3.15625 1.140625q1.578125 0 2.984375 -0.328125q1.40625 -0.328125 2.9375 -1.046875l0 3.6874924q-1.25 0.625 -2.671875 0.921875q-1.421875 0.3125 -3.46875 0.3125zm20.75 -18.109367q0.96875 0 1.609375 0.140625l-0.359375 4.46875q-0.578125 -0.15625 -1.40625 -0.15625q-2.28125 0 -3.5625 1.171875q-1.265625 1.171875 -1.265625 3.28125l0 8.890617l-4.765625 0l0 -17.468742l3.609375 0l0.703125 2.9375l0.234375 0q0.8125 -1.46875 2.1875 -2.359375q1.390625 -0.90625 3.015625 -0.90625zm16.96875 12.609375q0 2.6875 -1.875 4.0937424q-1.859375 1.40625 -5.578125 1.40625q-1.90625 0 -3.25 -0.265625q-1.34375 -0.25 -2.515625 -0.75l0 -3.9374924q1.328125 0.625 2.984375 1.046875q1.671875 0.421875 2.9375 0.421875q2.59375 0 2.59375 -1.5q0 -0.5625 -0.34375 -0.90625q-0.34375 -0.359375 -1.1875 -0.796875q-0.84375 -0.453125 -2.25 -1.046875q-2.015625 -0.84375 -2.96875 -1.5625q-0.9375 -0.71875 -1.375 -1.640625q-0.421875 -0.9375 -0.421875 -2.296875q0 -2.328125 1.796875 -3.59375q1.8125 -1.28125 5.125 -1.28125q3.15625 0 6.140625 1.375l-1.4375 3.4375q-1.3125 -0.5625 -2.453125 -0.921875q-1.140625 -0.359375 -2.328125 -0.359375q-2.109375 0 -2.109375 1.140625q0 0.640625 0.671875 1.109375q0.6875 0.46875 2.984375 1.390625q2.046875 0.828125 3.0 1.546875q0.953125 0.71875 1.40625 1.65625q0.453125 0.9375 0.453125 2.234375z" fill-rule="nonzero"/><path fill="#000000" fill-opacity="0.0" d="m135.27034 490.47375l199.59056 0l0 65.4173l-199.59056 0z" fill-rule="evenodd"/><path stroke="#a4c2f4" stroke-width="4.0" stroke-linejoin="round" stroke-linecap="butt" d="m135.27034 490.47375l199.59056 0l0 65.4173l-199.59056 0z" fill-rule="evenodd"/><path fill="#a4c2f4" d="m172.48749 530.1937l-5.515625 0l-3.09375 -12.0q-0.171875 -0.640625 -0.59375 -2.640625q-0.40625 -2.015625 -0.46875 -2.703125q-0.09375 0.84375 -0.46875 2.71875q-0.375 1.859375 -0.578125 2.65625l-3.078125 11.96875l-5.5 0l-5.828125 -22.84372l4.765625 0l2.921875 12.4687195q0.765625 3.453125 1.109375 5.984375q0.09375 -0.890625 0.421875 -2.75q0.34375 -1.875 0.640625 -2.90625l3.328125 -12.7968445l4.578125 0l3.328125 12.7968445q0.21875 0.859375 0.546875 2.625q0.328125 1.765625 0.5 3.03125q0.15625 -1.21875 0.5 -3.03125q0.34375 -1.828125 0.625 -2.953125l2.90625 -12.4687195l4.765625 0l-5.8125 22.84372zm19.40625 0l-0.921875 -2.375l-0.125 0q-1.203125 1.515625 -2.484375 2.109375q-1.265625 0.578125 -3.3125 0.578125q-2.515625 0 -3.96875 -1.4375q-1.4375 -1.4375 -1.4375 -4.09375q0 -2.78125 1.9375 -4.09375q1.953125 -1.328125 5.875 -1.46875l3.03125 -0.09375l0 -0.765625q0 -2.65625 -2.71875 -2.65625q-2.09375 0 -4.921875 1.265625l-1.578125 -3.21875q3.015625 -1.578125 6.6875 -1.578125q3.515625 0 5.390625 1.53125q1.875 1.53125 1.875 4.65625l0 11.640625l-3.328125 0zm-1.40625 -8.09375l-1.84375 0.0625q-2.078125 0.0625 -3.09375 0.75q-1.015625 0.6875 -1.015625 2.09375q0 2.015625 2.3125 2.015625q1.65625 0 2.640625 -0.953125q1.0 -0.953125 1.0 -2.53125l0 -1.4375zm13.796875 8.09375l-6.65625 -17.46875l4.984375 0l3.375 9.953125q0.5625 1.890625 0.703125 3.578125l0.09375 0q0.078125 -1.5 0.703125 -3.578125l3.359375 -9.953125l4.984375 0l-6.65625 17.46875l-4.890625 0zm21.28125 -14.40625q-1.515625 0 -2.375 0.96875q-0.859375 0.953125 -0.984375 2.71875l6.6875 0q-0.03125 -1.765625 -0.921875 -2.71875q-0.890625 -0.96875 -2.40625 -0.96875zm0.671875 14.71875q-4.21875 0 -6.59375 -2.328125q-2.375 -2.328125 -2.375 -6.59375q0 -4.390625 2.1875 -6.78125q2.203125 -2.40625 6.078125 -2.40625q3.703125 0 5.765625 2.109375q2.0625 2.109375 2.0625 5.828125l0 2.3125l-11.265625 0q0.078125 2.03125 1.203125 3.171875q1.125 1.140625 3.15625 1.140625q1.578125 0 2.984375 -0.328125q1.40625 -0.328125 2.9375 -1.046875l0 3.6875q-1.25 0.625 -2.671875 0.921875q-1.421875 0.3125 -3.46875 0.3125zm26.203125 -17.78125l0 2.421875l-2.734375 0.703125q0.75 1.171875 0.75 2.625q0 2.8125 -1.96875 4.390625q-1.953125 1.5625 -5.4375 1.5625l-0.859375 -0.046875l-0.703125 -0.078125q-0.734375 0.5625 -0.734375 1.25q0 1.03125 2.625 1.03125l2.96875 0q2.875 0 4.375 1.234375q1.515625 1.234375 1.515625 3.625q0 3.0625 -2.5625 4.75q-2.546875 1.6875 -7.328125 1.6875q-3.65625 0 -5.59375 -1.28125q-1.921875 -1.265625 -1.921875 -3.5625q0 -1.578125 0.984375 -2.640625q0.984375 -1.0625 2.890625 -1.515625q-0.734375 -0.3125 -1.28125 -1.015625q-0.546875 -0.71875 -0.546875 -1.515625q0 -1.0 0.578125 -1.65625q0.578125 -0.671875 1.671875 -1.3125q-1.375 -0.59375 -2.1875 -1.90625q-0.796875 -1.3125 -0.796875 -3.09375q0 -2.859375 1.859375 -4.421875q1.859375 -1.5625 5.3125 -1.5625q0.734375 0 1.734375 0.140625q1.015625 0.125 1.296875 0.1875l6.09375 0zm-13.484375 19.9375q0 0.984375 0.9375 1.546875q0.953125 0.5625 2.65625 0.5625q2.5625 0 4.015625 -0.703125q1.453125 -0.703125 1.453125 -1.921875q0 -0.984375 -0.859375 -1.359375q-0.859375 -0.375 -2.65625 -0.375l-2.46875 0q-1.3125 0 -2.203125 0.609375q-0.875 0.625 -0.875 1.640625zm1.734375 -14.21875q0 1.421875 0.640625 2.25q0.65625 0.828125 1.984375 0.828125q1.34375 0 1.96875 -0.828125q0.625 -0.828125 0.625 -2.25q0 -3.15625 -2.59375 -3.15625q-2.625 0 -2.625 3.15625zm27.0 11.75l-0.640625 -2.234375l-0.25 0q-0.765625 1.21875 -2.171875 1.890625q-1.40625 0.65625 -3.203125 0.65625q-3.078125 0 -4.640625 -1.640625q-1.5625 -1.65625 -1.5625 -4.75l0 -11.390625l4.765625 0l0 10.203125q0 1.890625 0.671875 2.84375q0.671875 0.9375 2.140625 0.9375q2.0 0 2.890625 -1.328125q0.890625 -1.34375 0.890625 -4.4375l0 -8.21875l4.765625 0l0 17.46875l-3.65625 0zm8.453125 -21.984344q0 -2.328125 2.59375 -2.328125q2.59375 0 2.59375 2.328125q0 1.109375 -0.65625 1.734375q-0.640625 0.609375 -1.9375 0.609375q-2.59375 0 -2.59375 -2.34375zm4.96875 21.984344l-4.765625 0l0 -17.46875l4.765625 0l0 17.46875zm10.53125 0.3125q-3.078125 0 -4.84375 -2.390625q-1.75 -2.390625 -1.75 -6.625q0 -4.296875 1.78125 -6.6875q1.796875 -2.40625 4.9375 -2.40625q3.296875 0 5.03125 2.5625l0.15625 0q-0.359375 -1.953125 -0.359375 -3.4843445l0 -5.59375l4.78125 0l0 24.31247l-3.65625 0l-0.921875 -2.265625l-0.203125 0q-1.625 2.578125 -4.953125 2.578125zm1.671875 -3.796875q1.828125 0 2.671875 -1.0625q0.859375 -1.0625 0.9375 -3.609375l0 -0.515625q0 -2.8125 -0.875 -4.03125q-0.859375 -1.21875 -2.8125 -1.21875q-1.59375 0 -2.484375 1.359375q-0.875 1.34375 -0.875 3.921875q0 2.578125 0.890625 3.875q0.890625 1.28125 2.546875 1.28125zm20.28125 -10.921875q-1.515625 0 -2.375 0.96875q-0.859375 0.953125 -0.984375 2.71875l6.6875 0q-0.03125 -1.765625 -0.921875 -2.71875q-0.890625 -0.96875 -2.40625 -0.96875zm0.671875 14.71875q-4.21875 0 -6.59375 -2.328125q-2.375 -2.328125 -2.375 -6.59375q0 -4.390625 2.1875 -6.78125q2.203125 -2.40625 6.078125 -2.40625q3.703125 0 5.765625 2.109375q2.0625 2.109375 2.0625 5.828125l0 2.3125l-11.265625 0q0.078125 2.03125 1.203125 3.171875q1.125 1.140625 3.15625 1.140625q1.578125 0 2.984375 -0.328125q1.40625 -0.328125 2.9375 -1.046875l0 3.6875q-1.25 0.625 -2.671875 0.921875q-1.421875 0.3125 -3.46875 0.3125z" fill-rule="nonzero"/><path fill="#000000" fill-opacity="0.0" d="m674.74805 412.13123l227.08661 0l0 65.41733l-227.08661 0z" fill-rule="evenodd"/><path stroke="#b6d7a8" stroke-width="4.0" stroke-linejoin="round" stroke-linecap="butt" d="m674.74805 412.13123l227.08661 0l0 65.41733l-227.08661 0z" fill-rule="evenodd"/><path fill="#b6d7a8" d="m720.9632 440.2106q0 5.640625 -3.21875 8.640625q-3.203125 3.0 -9.265625 3.0l-6.46875 0l0 -22.84375l7.171875 0q5.59375 0 8.6875 2.953125q3.09375 2.953125 3.09375 8.25zm-5.03125 0.125q0 -7.359375 -6.5 -7.359375l-2.578125 0l0 14.875l2.078125 0q7.0 0 7.0 -7.515625zm19.46875 -7.625q-2.734375 0 -4.234375 2.0625q-1.5 2.046875 -1.5 5.71875q0 7.640625 5.734375 7.640625q2.40625 0 5.828125 -1.203125l0 4.0625q-2.8125 1.171875 -6.28125 1.171875q-4.984375 0 -7.625 -3.015625q-2.640625 -3.03125 -2.640625 -8.6875q0 -3.5625 1.296875 -6.234375q1.296875 -2.6875 3.71875 -4.109375q2.4375 -1.4375 5.703125 -1.4375q3.328125 0 6.6875 1.609375l-1.5625 3.9375q-1.28125 -0.609375 -2.578125 -1.0625q-1.296875 -0.453125 -2.546875 -0.453125zm34.75 19.140625l-4.765625 0l0 -10.203125q0 -3.78125 -2.8125 -3.78125q-2.0 0 -2.890625 1.359375q-0.890625 1.359375 -0.890625 4.40625l0 8.21875l-4.765625 0l0 -24.3125l4.765625 0l0 4.953125q0 0.578125 -0.109375 2.71875l-0.109375 1.40625l0.25 0q1.59375 -2.5625 5.0625 -2.5625q3.078125 0 4.671875 1.65625q1.59375 1.65625 1.59375 4.75l0 11.390625zm16.0 0l-0.921875 -2.375l-0.125 0q-1.203125 1.515625 -2.484375 2.109375q-1.265625 0.578125 -3.3125 0.578125q-2.515625 0 -3.96875 -1.4375q-1.4375 -1.4375 -1.4375 -4.09375q0 -2.78125 1.9375 -4.09375q1.953125 -1.328125 5.875 -1.46875l3.03125 -0.09375l0 -0.765625q0 -2.65625 -2.71875 -2.65625q-2.09375 0 -4.921875 1.265625l-1.578125 -3.21875q3.015625 -1.578125 6.6875 -1.578125q3.515625 0 5.390625 1.53125q1.875 1.53125 1.875 4.65625l0 11.640625l-3.328125 0zm-1.40625 -8.09375l-1.84375 0.0625q-2.078125 0.0625 -3.09375 0.75q-1.015625 0.6875 -1.015625 2.09375q0 2.015625 2.3125 2.015625q1.65625 0 2.640625 -0.953125q1.0 -0.953125 1.0 -2.53125l0 -1.4375zm14.40625 8.09375l-4.765625 0l0 -24.3125l4.765625 0l0 24.3125zm14.65625 -13.890625l-4.125 0l0 13.890625l-4.765625 0l0 -13.890625l-2.625 0l0 -2.296875l2.625 -1.28125l0 -1.28125q0 -2.984375 1.46875 -4.359375q1.46875 -1.375 4.703125 -1.375q2.46875 0 4.390625 0.734375l-1.21875 3.5q-1.4375 -0.453125 -2.65625 -0.453125q-1.015625 0 -1.46875 0.609375q-0.453125 0.59375 -0.453125 1.53125l0 1.09375l4.125 0l0 3.578125zm12.484375 -3.90625q0.96875 0 1.609375 0.140625l-0.359375 4.46875q-0.578125 -0.15625 -1.40625 -0.15625q-2.28125 0 -3.5625 1.171875q-1.265625 1.171875 -1.265625 3.28125l0 8.890625l-4.765625 0l0 -17.46875l3.609375 0l0.703125 2.9375l0.234375 0q0.8125 -1.46875 2.1875 -2.359375q1.390625 -0.90625 3.015625 -0.90625zm4.578125 -4.1875q0 -2.328125 2.59375 -2.328125q2.59375 0 2.59375 2.328125q0 1.109375 -0.65625 1.734375q-0.640625 0.609375 -1.9375 0.609375q-2.59375 0 -2.59375 -2.34375zm4.96875 21.984375l-4.765625 0l0 -17.46875l4.765625 0l0 17.46875zm21.125 0l-4.765625 0l0 -10.203125q0 -1.890625 -0.671875 -2.828125q-0.671875 -0.953125 -2.140625 -0.953125q-2.0 0 -2.890625 1.34375q-0.890625 1.328125 -0.890625 4.421875l0 8.21875l-4.765625 0l0 -17.46875l3.640625 0l0.640625 2.234375l0.265625 0q0.796875 -1.265625 2.1875 -1.90625q1.40625 -0.65625 3.1875 -0.65625q3.046875 0 4.625 1.65625q1.578125 1.640625 1.578125 4.75l0 11.390625zm20.109375 -17.46875l0 2.421875l-2.734375 0.703125q0.75 1.171875 0.75 2.625q0 2.8125 -1.96875 4.390625q-1.953125 1.5625 -5.4375 1.5625l-0.859375 -0.046875l-0.703125 -0.078125q-0.734375 0.5625 -0.734375 1.25q0 1.03125 2.625 1.03125l2.96875 0q2.875 0 4.375 1.234375q1.515625 1.234375 1.515625 3.625q0 3.0625 -2.5625 4.75q-2.546875 1.6875 -7.328125 1.6875q-3.65625 0 -5.59375 -1.28125q-1.921875 -1.265625 -1.921875 -3.5625q0 -1.578125 0.984375 -2.640625q0.984375 -1.0625 2.890625 -1.515625q-0.734375 -0.3125 -1.28125 -1.015625q-0.546875 -0.71875 -0.546875 -1.515625q0 -1.0 0.578125 -1.65625q0.578125 -0.671875 1.671875 -1.3125q-1.375 -0.59375 -2.1875 -1.90625q-0.796875 -1.3125 -0.796875 -3.09375q0 -2.859375 1.859375 -4.421875q1.859375 -1.5625 5.3125 -1.5625q0.734375 0 1.734375 0.140625q1.015625 0.125 1.296875 0.1875l6.09375 0zm-13.484375 19.9375q0 0.984375 0.9375 1.546875q0.953125 0.5625 2.65625 0.5625q2.5625 0 4.015625 -0.703125q1.453125 -0.703125 1.453125 -1.921875q0 -0.984375 -0.859375 -1.359375q-0.859375 -0.375 -2.65625 -0.375l-2.46875 0q-1.3125 0 -2.203125 0.609375q-0.875 0.625 -0.875 1.640625zm1.734375 -14.21875q0 1.421875 0.640625 2.25q0.65625 0.828125 1.984375 0.828125q1.34375 0 1.96875 -0.828125q0.625 -0.828125 0.625 -2.25q0 -3.15625 -2.59375 -3.15625q-2.625 0 -2.625 3.15625z" fill-rule="nonzero"/><path fill="#000000" fill-opacity="0.0" d="m805.40466 246.74117l-271.02362 -146.99213" fill-rule="evenodd"/><path stroke="#ea9999" stroke-width="4.0" stroke-linejoin="round" stroke-linecap="butt" stroke-dasharray="16.0,12.0" d="m805.40466 246.74117l-271.02362 -146.99213" fill-rule="evenodd"/><path fill="#000000" fill-opacity="0.0" d="m235.06561 490.47375l135.24411 -39.3071" fill-rule="evenodd"/><path stroke="#a4c2f4" stroke-width="4.0" stroke-linejoin="round" stroke-linecap="butt" stroke-dasharray="16.0,12.0" d="m235.06561 490.47375l135.24411 -39.3071" fill-rule="evenodd"/><path fill="#000000" fill-opacity="0.0" d="m788.2913 412.13123l-207.81104 -124.59842" fill-rule="evenodd"/><path stroke="#b6d7a8" stroke-width="4.0" stroke-linejoin="round" stroke-linecap="butt" stroke-dasharray="16.0,12.0" d="m788.2913 412.13123l-207.81104 -124.59842" fill-rule="evenodd"/><path fill="#000000" fill-opacity="0.0" d="m214.84514 276.6483l529.57477 0" fill-rule="evenodd"/><path stroke="#b6d7a8" stroke-width="12.0" stroke-linejoin="round" stroke-linecap="butt" d="m214.84514 276.6483l529.57477 0" fill-rule="evenodd"/><path fill="#b6d7a8" d="m359.81302 409.63007l0 0c-1.8451233 -64.06351 47.392273 -117.54666 110.020325 -119.50745c62.628082 -1.9608154 114.9711 48.34198 116.95987 112.401c1.9887085 64.05902 -47.1286 117.65753 -109.752106 119.76526c-62.623505 2.107727 -115.07916 -48.072144 -117.21155 -112.12634l9.860931 -0.34344482l0 0c1.9429626 58.61264 49.837128 104.53302 107.01889 102.60846c57.181732 -1.9245605 102.03415 -50.966553 100.22208 -109.58359c-1.8120728 -58.617065 -49.603577 -104.64969 -106.78949 -102.85928c-57.185913 1.7904358 -102.147705 50.72705 -100.46649 109.348206z" fill-rule="evenodd"/><path stroke="#b6d7a8" stroke-width="1.0" stroke-linejoin="round" stroke-linecap="butt" d="m359.81302 409.63007l0 0c-1.8451233 -64.06351 47.392273 -117.54666 110.020325 -119.50745c62.628082 -1.9608154 114.9711 48.34198 116.95987 112.401c1.9887085 64.05902 -47.1286 117.65753 -109.752106 119.76526c-62.623505 2.107727 -115.07916 -48.072144 -117.21155 -112.12634l9.860931 -0.34344482l0 0c1.9429626 58.61264 49.837128 104.53302 107.01889 102.60846c57.181732 -1.9245605 102.03415 -50.966553 100.22208 -109.58359c-1.8120728 -58.617065 -49.603577 -104.64969 -106.78949 -102.85928c-57.185913 1.7904358 -102.147705 50.72705 -100.46649 109.348206z" fill-rule="evenodd"/><path fill="#000000" fill-opacity="0.0" d="m154.5928 246.74019l160.94489 -146.99213" fill-rule="evenodd"/><path stroke="#ea9999" stroke-width="4.0" stroke-linejoin="round" stroke-linecap="butt" stroke-dasharray="16.0,12.0" d="m154.5928 246.74019l160.94489 -146.99213" fill-rule="evenodd"/><path fill="#a4c2f4" d="m586.8491 406.76474l0 0c-0.2954712 63.2641 -50.038086 114.64896 -111.88083 115.574554c-61.842773 0.92559814 -113.033875 -48.948578 -115.13873 -112.17676l9.860931 -0.34344482l0 0c1.9179382 57.8584 48.659912 103.49957 105.13022 102.65436c56.470306 -0.8451843 101.892365 -47.865784 102.16159 -105.7569z" fill-rule="evenodd"/><path stroke="#b6d7a8" stroke-width="1.0" stroke-linejoin="round" stroke-linecap="butt" d="m586.8491 406.76474l0 0c-0.2954712 63.2641 -50.038086 114.64896 -111.88083 115.574554c-61.842773 0.92559814 -113.033875 -48.948578 -115.13873 -112.17676l9.860931 -0.34344482l0 0c1.9179382 57.8584 48.659912 103.49957 105.13022 102.65436c56.470306 -0.8451843 101.892365 -47.865784 102.16159 -105.7569z" fill-rule="evenodd"/></g></svg>
