<svg xmlns="http://www.w3.org/2000/svg" viewBox="0 0 586.45 169.04"><defs><style>.cls-1{fill:#588dee;}.cls-2{fill:#040404;}</style></defs><title>OPICS SVG LOGO</title><g id="Layer_2" data-name="Layer 2"><g id="Layer_1-2" data-name="Layer 1"><path class="cls-1" d="M565.91,84.91a37.74,37.74,0,0,1,14.4,5.75,9.14,9.14,0,0,1,3,4c1.2,2.81,2,5.78,3,8.69-.11.24-.32.49-.32.73,0,2.46,0,4.93,0,7.39,0,.24.31.47.47.71-.77,2.57-1.37,5.22-2.37,7.7A19.2,19.2,0,0,1,581,125a64.31,64.31,0,0,1-5.6,5.47c-.82.75-1.5.59-2.14-.45a31,31,0,0,0-11.7-10.7c-.86-.47-1.78-.81-2.68-1.21-1.11-1.77-3.33-.62-4.62-1.92a5.16,5.16,0,0,0,4,2.83,40.62,40.62,0,0,1,11.47,13c1,1.61.09,3.07-.32,4.47a29.78,29.78,0,0,1-6.71,12.35,24.21,24.21,0,0,1-11.49,7.3c-.81.21-1.62.45-2.43.67-.2-.83-.37-1.68-.6-2.5a53.27,53.27,0,0,0-2.15-7.39,16.34,16.34,0,0,0-6.42-7.54l-.2-.09.22.07c.8,1.51,1.58,3,2.42,4.53,1.72,3.07,2.32,6.46,2.9,9.85.11.67-.06,1.39.06,2.05.28,1.54-.65,2.65-1.44,3.64A19.89,19.89,0,0,1,528.58,167c-2,.14-4,0-6,.07-1.31.05-1.51-.61-1.06-1.56a13.58,13.58,0,0,0,1.09-6.73,31.63,31.63,0,0,0-.71-3.94l.27-.24-.41-.3c-.06-.21-.13-.41-.2-.62-.15-1-.3-2-.48-3.22l-1.42.68c.28,2.39.54,4.63.8,6.88-.51,2.27-1,4.53-1.51,6.81a2.67,2.67,0,0,1-2.21,2.24c-.73.11-1.46.22-2.19.31a30.72,30.72,0,0,1-4.15.42c-4.32-.11-8.63-.34-12.95-.52l-3.77-1.6a11,11,0,0,1,1.43-1.7,14.26,14.26,0,0,0,5.53-9,15,15,0,0,0-.16-3.17c-.47.39-.65.46-.66.56-.86,5.18-4.09,8.62-8.34,11.25a4.84,4.84,0,0,1-2.89.67,34.76,34.76,0,0,1-11.51-2.89c-2.32-1.12-4.62-2.28-6.35-4.72,4.86-1.23,9-3.24,11.26-8-1.09.65-2.22,1.23-3.24,2a19.45,19.45,0,0,1-6.61,2.89c-4.57,1.19-8.23-1.08-11.81-3.18a22.13,22.13,0,0,1-5.91-5.17,13.77,13.77,0,0,1-2.16-5.56c-.45-2-.35-4.08-.62-6.12a3.46,3.46,0,0,0-.9-1.95c-4.06-3.81-5.22-8.6-4.71-13.91a12.79,12.79,0,0,1,1.26-4,6,6,0,0,0,0-5c-2.19-5.62-2.31-11.13,1.51-16.2A17.62,17.62,0,0,1,451.4,90a4.47,4.47,0,0,0,1.65-3.39c.43-6.54,3.32-11.62,9.2-14.84a22.47,22.47,0,0,1,7.46-2.34A4.61,4.61,0,0,0,472.46,68c2.87-3.67,6.9-5.23,11.19-6,2.62-.47,5.4-.15,8.1-.08a4.12,4.12,0,0,1,1.82.69,4.42,4.42,0,0,0,4.21.27c3-1.44,6.13-1.11,9.18-.37a21.94,21.94,0,0,1,10.54,5.36,33.85,33.85,0,0,1,4.37,5.76,4.47,4.47,0,0,0,2.42,2c2.35.83,4.66,1.68,6.47,3.56a16.21,16.21,0,0,1,4.32,8.53,12.75,12.75,0,0,1-1,7.81,3.61,3.61,0,0,0,.1,3.71c2.62,4.21,2,8.56.3,12.87a17.28,17.28,0,0,1-8.09,9.08,3.71,3.71,0,0,1-1.16.51c-2.57.27-4.5,1.64-6.41,3.27-3.48,3-7.7,4-12.16,4.23a31.92,31.92,0,0,1-12.19-1.85c-4.24-1.44-7.25-4.48-9.57-8.19a36.89,36.89,0,0,1-2.9-5.62c-2.32-5.7-1.31-11.12,1.87-16.18A17.78,17.78,0,0,1,495,89.17a13.13,13.13,0,0,1,5.84.23,13.31,13.31,0,0,1,8.44,6.16c3.23,5.25,1.69,12.92-5.18,14.74a6.24,6.24,0,0,1-7.87-5.28c-.18-1.5.76-2.44,1.71-3.37a4,4,0,0,1,1.05-.71,1.41,1.41,0,0,0,.62-2A2.08,2.08,0,0,0,498,98a5.14,5.14,0,0,0-3.93,2.67c-2.41,4.12-.85,7.85,1.36,10.16a10,10,0,0,0,10.39,2.38c7.87-2.73,10.65-12.44,6.12-19.58a16.82,16.82,0,0,0-22.06-6.34,23,23,0,0,0-10.17,9.47,19.92,19.92,0,0,0-1.54,4.48,30.72,30.72,0,0,0-.74,3.8,19.77,19.77,0,0,0,1.81,10.76,29.27,29.27,0,0,0,8.52,11.25,23.29,23.29,0,0,0,9.77,4.22c5.84,1.33,11.65,1.45,17.36-.68a18.39,18.39,0,0,0,6.65-4.15,5.34,5.34,0,0,1,2.22-1.4c8.78-2.44,13.25-8.61,15-17.15a15.79,15.79,0,0,0-1.34-10,2.58,2.58,0,0,1-.16-1.86,16.21,16.21,0,0,0,.5-10.9c-1.41-5.33-4.27-9.57-9.35-12.11a13.91,13.91,0,0,1-5.17-4.64c-3.17-4.49-7.64-7.08-12.73-8.91a22.63,22.63,0,0,0-9.27-1.28,21.51,21.51,0,0,0-4.11.81,3.41,3.41,0,0,1-2.39-.14,16.12,16.12,0,0,0-5-1.23,24.76,24.76,0,0,0-8.1.7,26.18,26.18,0,0,0-8.33,3.58c-1.17.83-2.12,2-3.22,2.91a3.24,3.24,0,0,1-1.44.73c-6,1.08-11.09,3.61-15,8.46a23,23,0,0,0-3.87,8.35,8,8,0,0,0-.07,1.77,4.64,4.64,0,0,1-1.85,3.54,15.78,15.78,0,0,0-5.54,12.47,22.32,22.32,0,0,0,1.83,9.3,3.56,3.56,0,0,1,0,2.57c-2.52,5.83-1.81,11.47.84,17a11.07,11.07,0,0,0,2.21,3.06,4.4,4.4,0,0,1,1.17,3,51.87,51.87,0,0,0,1.3,7.52c.5,1.93.48,2.34-1.49,2.82-4.64,1.14-9.26,2.44-13.95,3.35A91.42,91.42,0,0,1,423.34,150a67.76,67.76,0,0,1-8.55,0c-3.5-.2-7-.6-10.49-1a53.45,53.45,0,0,1-17.52-5.81,60.54,60.54,0,0,1-7.72-4.68,8.34,8.34,0,0,1-2.29-3.3,28,28,0,0,1-2.59-14.27,34.34,34.34,0,0,1,.75-3.81c.58.38,1.15.57,1.42,1,1.94,2.86,4.78,4.63,7.64,6.35a50.76,50.76,0,0,0,5.54,2.72,12.89,12.89,0,0,0,2.43.6v0l.3.29h0l.28.33,2.92.67.34-.57c-.33-.41-.58-1-1-1.19a15.21,15.21,0,0,0-2.54-.63,41.08,41.08,0,0,1-14.41-13,18.56,18.56,0,0,1-3.22-13.33A27,27,0,0,1,377,91.44a23.8,23.8,0,0,1,1.54-2.68c.52-.8,1.12-.71,1.54.19,2.89,6.24,8,10.27,13.71,13.64l.14,0,1.73,1.14c.16.17.28.41.48.5a13,13,0,0,0,1.92.7,1.63,1.63,0,0,0,.37-.62c-.5-.44-1-.83-1.59-1.24l-2.53-1.46c-2-2.31-4.16-4.57-6.13-7a32.35,32.35,0,0,1-5.94-11,21.62,21.62,0,0,1-.3-10.64,29,29,0,0,1,4.83-11A30.48,30.48,0,0,1,393.91,55a6.44,6.44,0,0,1,1.46-.57c-.05,5.34,1.83,9.86,4.56,14.1,1.12,1.72,2.28,3.4,3.43,5.1,0,.87.32,1.41,1.32,1.08a7.24,7.24,0,0,0-.37-2,42.67,42.67,0,0,1-4.3-12,40.94,40.94,0,0,1-.35-15.79c.95-4.87,2.77-9.37,6.38-12.94a21.5,21.5,0,0,1,8-5c2.91-1,5.94-1.71,9.07-2.59.17.68.48,1.2.34,1.51a13.23,13.23,0,0,0-.82,6.46c.21,3.36.38,6.73.83,10a44.57,44.57,0,0,0,1.6,5.91c.12,2.61,1.95,4.79,3.49,4.25-.22-.65-.4-1.31-.67-1.93-.39-.9-.84-1.77-1.26-2.66,0-.17-.06-.35-.1-.52s-.09-.41-.14-.61c-.13-1.87-.26-3.75-.4-5.62.08-1.74.16-3.49.22-5.23,0-1,0-2,0-3,0-.65.07-1.29.11-1.94.63-.28,1-.62.23-1.17,0-.17.07-.35.11-.52l.15-.89c1.66-9,7.07-15.08,15.23-18.82,3.44-1.57,7-2.81,10.87-2.71a2.12,2.12,0,0,0,1-.21c1.16-.54,2.06-.07,3,.69-4.71,5.32-5.79,11.78-6.19,18.46-.14.12-.39.24-.39.36a20.31,20.31,0,0,0,.25,3.59,11.46,11.46,0,0,0,1.27,2.52l.58-.12V25.83c1.47-6.9,3.91-13.25,9.85-17.67a36.12,36.12,0,0,1,11.37-6c3.48-1,6.94-2.34,10.71-2.09,2.73.18,5.52-.21,8.21.2,3.36.52,6.64,1.6,10.35,2.53-.56.72-.77,1.19-1.13,1.42A28.07,28.07,0,0,0,493,13.37a56.64,56.64,0,0,0-2.7,5.4c-.56.85-1.22,1.61-1,2.8a4.71,4.71,0,0,1-.44,1.84c-.09.3-.23.59-.34.88,1.09-1.07,2.68-1.75,2.48-3.61-.05-.38.23-.79.36-1.19a98.38,98.38,0,0,1,6.37-8,23.49,23.49,0,0,1,9.57-6.07,28.05,28.05,0,0,1,5.14-.74,26.21,26.21,0,0,1,4.31-.42,38.09,38.09,0,0,1,6.39.79,64.3,64.3,0,0,1,9.85,2.61,27.18,27.18,0,0,1,11,8.13,6,6,0,0,1,.63,1.63c-8.74,1.82-15.68,6.31-21.68,12.44l-.51.64-.22.47-1.1,1.36.38.36a4.62,4.62,0,0,0,2.62-2.13A37,37,0,0,1,537,23.94a35.45,35.45,0,0,1,11-2c5.18,0,9.55,2.06,13.55,5.12a28.55,28.55,0,0,1,8,9.59c2,3.86,3.32,7.92,2.87,12.39a36.26,36.26,0,0,0-27,4l0,.41,1.34.16a.33.33,0,0,0-.13,0s0,.06,0,.09l.12-.16a47.13,47.13,0,0,1,10.51-1.75,34.36,34.36,0,0,1,11.65,1.07,20.4,20.4,0,0,1,11.07,7.61,25.45,25.45,0,0,1,5.22,14c.06,1.1.65,2.24.48,3.27-.5,3.06-1.23,6.07-2,9.08,0,.2-.84.43-1.17.32-1.66-.6-3.28-1.34-4.93-2a26.92,26.92,0,0,0-9.71-2c-1.39,0-2.77-.24-4.16-.37l-.7.35h-.46c-1,0-2-.12-3-.06-.28,0-.54.46-.8.72.28.26.55.73.84.75C561.62,84.79,563.77,84.84,565.91,84.91Zm-159.08-8,.32-.37c-.45-2-.64-2.09-2.43-1.41Z"/><path class="cls-2" d="M71.91,49.14l1.61,1.71c0,.18-.19.44-.12.53.86,1.17,1.76,2.31,2.64,3.47a3.59,3.59,0,0,1,.58.78c.46,1.09.84,2.22,1.33,3.3.25.56.74,1,1,1.58.5,1.17.91,2.38,1.33,3.58a48.93,48.93,0,0,1,2,6,49.36,49.36,0,0,1,.38,5.6c.09.95.46,1.87.6,2.82a6.14,6.14,0,0,1-.08,1.76c-.13.76-.46,1.5-.52,2.26-.16,2-.19,4-.33,6A5.61,5.61,0,0,1,81.9,90c-.59,1.77-1.18,3.55-1.82,5.3-.58,1.56-1.29,3.08-1.8,4.66-.4,1.24-1.86,2-1.51,3.58l-.29.45a2.61,2.61,0,0,0-2.07,2.8l-6.18,6.07c-.14-.2-.28-.58-.41-.58-.75,0-2.34,1.74-2.48,2.61-2.29,1.19-4.5,2.53-6.87,3.52a43.57,43.57,0,0,1-19,3,63.85,63.85,0,0,1-10.34-1.89,35.21,35.21,0,0,1-13.84-7,3.86,3.86,0,0,1-.5-.49c-.21-.86-.6-1.5-1.64-1.4l-.42-.45L12,109.6l-.31-.32a6.56,6.56,0,0,0-3.08-3.63l-.37-.5a15.14,15.14,0,0,0-.73-1.76,46.76,46.76,0,0,1-3.09-5.62,51.4,51.4,0,0,1-2.49-8.84C1.23,85.27.94,81.53.64,77.81a15.23,15.23,0,0,1,.49-3.3,50.53,50.53,0,0,1,1-6.9C3.41,63.26,4.88,59,7.58,55.23a6.31,6.31,0,0,0,.61-1.66l.35-.48a7.25,7.25,0,0,0,1-.7c1.58-1.54,3.15-3.09,4.67-4.68a7.11,7.11,0,0,0,.81-1.4l2-1.45,3.1-2,.88-.49c.72.45,1,0,1.12-.6l1.15-.52c.25,0,.54.18.76.11,2.31-.77,4.6-1.59,6.9-2.37A9.08,9.08,0,0,1,33,38.39c2.46-.16,4.92-.31,7.39-.3,3.38,0,6.76.18,10.14.28a1.55,1.55,0,0,1,.69.08,7.7,7.7,0,0,0,4.29,1.09c.24,0,.49.24.71.4,1.41,1,2.87,1.88,4.73,1.44.07,0,.12,0,.13.07.32,1.4,2.36,2.51,4.07,2.22l.46.33c-.06,1.75,1.7,1.79,2.54,2.94l.34-.91,2.16,1.89-.4.11,1.48,1.89Zm-48.86,52.1.07.07c-.41,1.27.42,1.26,1.28,1.22L25,103c-.14,1.45,1.05,1.93,2,2.45,1.56.89,3.22,1.59,4.86,2.34a12.11,12.11,0,0,0,1.84.63c.55.13,1.13.16,1.69.24l0,.25,2.34-.68,1.12.08a1.7,1.7,0,0,0,1.93,1c2.81-.3,5.63-.52,8.42-.93.66-.09,1.23-.81,1.84-1.24l.56,0c.93.27,3.62-1,4.24-2a57.66,57.66,0,0,0,5.32-4.36,23.72,23.72,0,0,0,6-11.75c1.88-8.53,1.68-16.89-2-25a22,22,0,0,0-13-12.19,29.82,29.82,0,0,0-19.37-.3c-7.5,2.34-12.37,7.54-15,14.77a39.12,39.12,0,0,0-1.94,16.63,30.74,30.74,0,0,0,6.62,17.65Z"/><path class="cls-2" d="M112,120.53l-1.12.07a10.51,10.51,0,0,0-1.35-.21q-4.38,0-8.75,0c-2.64,0-2.65,0-2.65-2.59V38.5a5.73,5.73,0,0,1,.74-.14c10.17.35,20.38-.77,30.52.62,2.87.39,5.9.14,8.55,1.75.26.16.85-.21,1.29-.34l.31.12c.12,1.44,1.69,1,2.31,1.79.18.18.33.44.55.54a13.25,13.25,0,0,1,3.11,1.36c1.86,1.51,3.52,3.26,5.26,4.91.54,1.18,1.06,2.37,1.65,3.52.08.16.54.12.82.17.11.55.17,1.11.33,1.64A15.37,15.37,0,0,1,154.67,58c.17,3.8.21,7.61.06,11.42-.06,1.55-.8,3.08-1.12,4.64a13.82,13.82,0,0,1-3.35,6.56c-1.51,1.69-3,3.36-4.58,5l-.45.33-.95.57-.26.17-1.72-.24.57.9-3.44,1.57c-1.09,0-2.18-.08-2.86,1l-.54.11a7.18,7.18,0,0,0-5.11,1l-.83.1a3.36,3.36,0,0,0-.79-.19c-5.27,0-10.53,0-15.8,0-1.33,0-1.8.44-1.78,1.82.07,5.73-.07,11.47.06,17.2C111.86,113.5,111.26,117,112,120.53Zm.24-55.89h0c0,4.48,0,9,0,13.42,0,1.21.33,1.69,1.6,1.67,3.48-.08,7-.13,10.45,0a20.19,20.19,0,0,0,9.9-2.25,11.51,11.51,0,0,0,6.12-7.92,18.79,18.79,0,0,0-.48-11.28c-1.69-4.4-5-6.6-9.22-7.67-5.48-1.4-11.13-.8-16.72-1-1.34-.05-1.67.52-1.66,1.76C112.26,55.79,112.22,60.22,112.22,64.64Z"/><path class="cls-2" d="M264.53,49.26c-1.41,1.92-2.83,3.85-4.25,5.76a3.38,3.38,0,0,1-4.71,1c-1.35-.76-2.67-1.58-4-2.4a23.94,23.94,0,0,0-12.46-3.39c-3.64-.08-7.3,0-10.64,1.52-2.51,1.17-4.81,2.8-7.2,4.22-1.34-.38-2.06.38-2.09,2.21-.5.65-1,1.29-1.51,1.93-.32.25-.79.44-.93.77-1.39,3.37-2.94,6.69-4,10.16a23.29,23.29,0,0,0-.56,6.43,71.56,71.56,0,0,0,.28,7.88c.21,2.06.76,4.09,1.16,6.13,0,.12.2.2.25.33.28.61.59,1.22.81,1.86.45,1.28.34,2.9,2.16,3.26l.53.8-.62.39c.49.78.59,2,1.95,1.85l3,2.9c.29.59.44,1.4.91,1.74a26.2,26.2,0,0,0,3.94,2.28c.47.23,1.14,0,1.71,0l.25.12a2.06,2.06,0,0,0,.31.59c1.86,1.56,4.3.89,6.44,1.56s4.37.14,6.58.13a3.47,3.47,0,0,0,.95-.18c.68-.2,1.34-.45,2-.64,1-.28,2-.52,3.06-.78a5.18,5.18,0,0,1,1.34-.34,1.15,1.15,0,0,0,1.35-1.09c2-1.43,4.08-2.81,6-4.31a2.61,2.61,0,0,1,3.31-.07,15.44,15.44,0,0,1,1.95,1.77l1,1,0,0c.57.9,1.09,1.83,1.73,2.67,1,1.24.94,2.07-.2,3.07s-2.28,1.81-3.37,2.78c-.21.19-.17.67-.24,1a9.63,9.63,0,0,1-1.12.81c-1.37.7-3,1.1-4.08,2.09-1.7,1.52-3.74,2-5.77,2.58a46.39,46.39,0,0,1-20.63,1.1,36.34,36.34,0,0,1-23.35-13.67l-.47-.65a.13.13,0,0,1-.11-.17,4.68,4.68,0,0,0-.58-1.65c-2.39-2.75-3.33-6.21-4.65-9.46a30.09,30.09,0,0,1-1.39-6.38c-.62-3.66-1.3-7.32-1-11.07.13-1.51.24-3,.42-4.54.08-.69.3-1.36.44-2a48.16,48.16,0,0,1,1.53-6.92c1.11-3,2.68-5.8,4-8.7.1-.23,0-.57-.07-.86l.79-1.07.48-.63h0a6.32,6.32,0,0,0,3.09-3.76l1.36-1.35a5,5,0,0,0,3.53-3,.14.14,0,0,1,.17-.12l1.21-.83.46-.32c.6.07,1.27.27,1.27-.72l2.14-1.24c1.54-.5,3.08-1,4.62-1.5a41.35,41.35,0,0,1,6-1.78,49.38,49.38,0,0,1,7.1-.35c4.8,0,9.61-.2,14.22,1.56.28.11.71-.19,1.07-.3l.24.14c.12.27.17.67.37.79C255,42,258,43.59,261,45.28c.59.34.92.47,1-.37l.62.48c-.82,1.52.64.61,1,.91l.33.31Z"/><path class="cls-2" d="M274.83,113.91l-.49-.37-.62-.5-.78-.69a2.88,2.88,0,0,1,0-3.84,3.16,3.16,0,0,0,.26-1.2.19.19,0,0,1,.11-.21c1.16-.21,1.36-1,1.31-2a.2.2,0,0,1,.13-.2l3.32-3.27.82-.14.27.28c.52.87.72.92,1.15.26l.56.29c.2.44.27,1,.6,1.28a59.85,59.85,0,0,0,5.72,3.75,23.31,23.31,0,0,0,5.06,1.94c1.13.3,2.42,0,3.42.88.06.06.26-.05.4-.08a9.7,9.7,0,0,1,2.29-.38,18,18,0,0,0,7.78-1.47c.42-.15.7-.66,1-1l.76-.42.64-.51c3.5-3.11,4.44-7.11,3.67-11.51a8.31,8.31,0,0,0-2.08-3.82c-2.79-3.09-6.64-4.2-10.5-5.37C293.42,83.68,287,82.1,281.75,78a19.19,19.19,0,0,1-6.93-11.62,23.32,23.32,0,0,1,.53-12.19,21.85,21.85,0,0,1,8.83-11.86c1.47.28,2.17-.7,2.85-1.72l.7-.35,1.88-.92,1.06-.31c.25.11.62.38.73.3,1.8-1.35,4-1.08,6-1.16,4-.15,7.95.12,11.93.24a2.85,2.85,0,0,1,.94.25c1.57.59,3.14,1.17,4.69,1.8A11.17,11.17,0,0,1,318.12,42a3.51,3.51,0,0,0,2.94.9.16.16,0,0,1,.19.1,7.55,7.55,0,0,0,1,1.64,30.11,30.11,0,0,0,2.39,2l-.7,1.08-.62,1.28-.32.48-.61.57-.23,1.14-.12.24c-.35.31-.74.6-1.06.94-.85.91-1.68,1.85-2.51,2.78h-.84c-.62-.38-1.21-.8-1.85-1.11-.84-.4-1.72-.7-2.58-1.05l-.93-.52A40.69,40.69,0,0,0,306,49.5c-1.84-.53-3.9-.24-5.86-.39-2.67-.22-4.88,1.1-7.19,2.07-.43.18-.72.66-1.08,1l-.86.87a4.17,4.17,0,0,0-2.64,3.3,33.86,33.86,0,0,0-.11,7c0,.74.44.92,1,.67l1.18,1.49.87.85.28.25c.4.55.68,1.3,1.22,1.62a37.32,37.32,0,0,0,4.43,2.21A45.45,45.45,0,0,0,301.53,72c1.58.5,3.2.84,4.77,1.38,1.82.62,3.61,1.34,5.37,2.1,1.43.62,2.79,1.42,4.22,2a4.83,4.83,0,0,0,1.54.11l.76.55a7.57,7.57,0,0,0,1.33,2c4.65,3.49,6.34,8.28,6.25,13.87a40.32,40.32,0,0,1-.3,5.61c-.31,2-1,3.93-1.47,5.89a.52.52,0,0,1-.06.13c-.92,1.45-1.24,3.27-2.76,4.38-.25.19-.13.88-.18,1.34l-3.9,4c-1.48-.34-2.28.19-2.9,1.92l-1.61.92-.69.36-1.2.58a3.78,3.78,0,0,0-.82,0,64.8,64.8,0,0,1-6.8,1.44c-2.86.28-5.76.19-8.64.21-1.52,0-3-.09-4.55-.14l-.55,0a6.33,6.33,0,0,0-1.29-.89c-2.71-1.06-5.44-2.08-8.17-3.09a11.63,11.63,0,0,0-1.47-.33L278,116l-1.53-1a.16.16,0,0,1-.17-.14C276.27,113.93,275.54,113.93,274.83,113.91Z"/><path class="cls-2" d="M183.19,120.64h-6.1c-2.45,0-4.9,0-7.35,0-1.75,0-1.79-.1-1.79-1.81q0-15.76.05-31.51,0-23.18,0-46.35V38.2h15.18Z"/><path class="cls-2" d="M139.21,40.39c-.44.13-1,.5-1.29.34-2.65-1.61-5.68-1.36-8.55-1.75-10.14-1.39-20.35-.27-30.52-.62a5.73,5.73,0,0,0-.74.14v79.28c0,2.62,0,2.6,2.65,2.59q4.36,0,8.75,0a10.51,10.51,0,0,1,1.35.21q-6.27.06-12.55.1c-.94,0-1.15-.6-1.15-1.41q.06-11.67.09-23.32,0-27.56.06-55.12c0-2.86,0-2.85,2.82-2.85,7.54,0,15.08.08,22.61,0A49,49,0,0,1,139.21,40.39Z"/><path class="cls-2" d="M76.77,103.58c-.35-1.55,1.11-2.34,1.51-3.58.51-1.58,1.22-3.1,1.8-4.66.64-1.75,1.23-3.53,1.82-5.3a5.61,5.61,0,0,0,.4-1.48c.14-2,.17-4,.33-6,.06-.76.39-1.5.52-2.26a6.14,6.14,0,0,0,.08-1.76c-.14-1-.51-1.87-.6-2.82a49.36,49.36,0,0,0-.38-5.6,48.93,48.93,0,0,0-2-6c-.42-1.2-.83-2.41-1.33-3.58-.23-.57-.72-1-1-1.58-.49-1.08-.87-2.21-1.33-3.3a3.59,3.59,0,0,0-.58-.78c-.88-1.16-1.78-2.3-2.64-3.47-.07-.09.08-.35.12-.53a101.15,101.15,0,0,1,5.72,8.66,39.89,39.89,0,0,1,4.27,15.26A44.57,44.57,0,0,1,81.05,94.9C79.91,97.9,78.21,100.69,76.77,103.58Z"/><path class="cls-2" d="M8.19,53.57a6.31,6.31,0,0,1-.61,1.66c-2.7,3.74-4.17,8-5.43,12.38a50.53,50.53,0,0,0-1,6.9,15.23,15.23,0,0,0-.49,3.3c.3,3.72.59,7.46,1.25,11.12a51.4,51.4,0,0,0,2.49,8.84,46.76,46.76,0,0,0,3.09,5.62,15.14,15.14,0,0,1,.73,1.76C7.14,103.52,6,102,5,100.23A40.55,40.55,0,0,1,.63,87.31,50.31,50.31,0,0,1,.85,70.13,41.72,41.72,0,0,1,3.61,62c1.15-2.68,2.66-5.21,4-7.79A2.92,2.92,0,0,1,8.19,53.57Z"/><path class="cls-2" d="M204,54.72c0,.29.17.63.07.86-1.34,2.9-2.91,5.71-4,8.7a48.16,48.16,0,0,0-1.53,6.92c-.14.68-.36,1.35-.44,2-.18,1.51-.29,3-.42,4.54-.33,3.75.35,7.41,1,11.07A30.09,30.09,0,0,0,200,95.23c1.32,3.25,2.26,6.71,4.65,9.46a4.68,4.68,0,0,1,.58,1.65c-1.14-1.8-2.43-3.53-3.41-5.43a42.71,42.71,0,0,1-4.63-17,50.55,50.55,0,0,1,1.85-18.65A40.94,40.94,0,0,1,204,54.72Z"/><path class="cls-2" d="M145.68,85.63c1.53-1.68,3.07-3.35,4.58-5A13.82,13.82,0,0,0,153.61,74c.32-1.56,1.06-3.09,1.12-4.64.15-3.81.11-7.62-.06-11.42a15.37,15.37,0,0,0-1.12-3.53c-.16-.53-.22-1.09-.33-1.64s-.49-1.37-.74-2a22.86,22.86,0,0,1,3.46,11A28.92,28.92,0,0,1,154.16,75C152.36,79.38,149.78,83.12,145.68,85.63Z"/><path class="cls-2" d="M112,120.53c-.72-3.5-.12-7-.2-10.55-.13-5.73,0-11.47-.06-17.2,0-1.38.45-1.83,1.78-1.82,5.27.05,10.53,0,15.8,0a3.36,3.36,0,0,1,.79.19c-1.07.06-2.15.18-3.22.18-4.33,0-8.66,0-13,0-1.18,0-1.59.46-1.58,1.54q.11,13,.17,26.1A5.49,5.49,0,0,1,112,120.53Z"/><path class="cls-2" d="M321,111.35c.05-.46-.07-1.15.18-1.34,1.52-1.11,1.84-2.93,2.76-4.38a.52.52,0,0,0,.06-.13c.51-2,1.16-3.9,1.47-5.89a40.32,40.32,0,0,0,.3-5.61c.09-5.59-1.6-10.38-6.25-13.87a7.57,7.57,0,0,1-1.33-2,16.42,16.42,0,0,1,7.53,10.14c2.23,8.2.56,15.79-4.29,22.71A1.62,1.62,0,0,1,321,111.35Z"/><path class="cls-2" d="M216.84,96.93c-1.82-.36-1.71-2-2.16-3.26-.22-.64-.53-1.25-.81-1.86-.05-.13-.22-.21-.25-.33-.4-2-1-4.07-1.16-6.13a71.56,71.56,0,0,1-.28-7.88,23.29,23.29,0,0,1,.56-6.43c1.07-3.47,2.62-6.79,4-10.16.14-.33.61-.52.93-.77a80.77,80.77,0,0,0-3.34,7.43c-1.79,5.25-1.91,10.72-1.38,16.19a38.7,38.7,0,0,0,1.4,7.14A58.41,58.41,0,0,0,216.84,96.93Z"/><path class="cls-2" d="M61,41.38c-1.86.44-3.32-.42-4.73-1.44-.22-.16-.47-.4-.71-.4a7.7,7.7,0,0,1-4.29-1.09,1.55,1.55,0,0,0-.69-.08c-3.38-.1-6.76-.27-10.14-.28-2.47,0-4.93.14-7.39.3a9.08,9.08,0,0,0-2.14.59c-2.3.78-4.59,1.6-6.9,2.37-.22.07-.51-.07-.76-.11A36.11,36.11,0,0,1,36.52,37.5a25.41,25.41,0,0,1,4.06-.36,81.34,81.34,0,0,1,11.17,1C54.92,38.78,57.91,40.27,61,41.38Z"/><path class="cls-2" d="M321.06,42.85a3.51,3.51,0,0,1-2.94-.9,11.17,11.17,0,0,0-3.21-1.51c-1.55-.63-3.12-1.21-4.69-1.8a2.85,2.85,0,0,0-.94-.25c-4-.12-8-.39-11.93-.24-2,.08-4.15-.19-6,1.16-.11.08-.48-.19-.73-.3A27.48,27.48,0,0,1,305,37.41a52.59,52.59,0,0,1,8.65,1.84A59.94,59.94,0,0,1,321.06,42.85Z"/><path class="cls-2" d="M251.47,39.34c-.36.11-.79.41-1.07.3-4.61-1.76-9.42-1.59-14.22-1.56a49.38,49.38,0,0,0-7.1.35,41.35,41.35,0,0,0-6,1.78c-1.54.48-3.08,1-4.62,1.5,2.6-1,5.14-2.23,7.8-3a39,39,0,0,1,14.48-1.52A35.75,35.75,0,0,1,251.47,39.34Z"/><path class="cls-2" d="M307.15,107.19c-.35.34-.63.85-1,1a18,18,0,0,1-7.78,1.47A9.7,9.7,0,0,0,296,110c-.14,0-.34.14-.4.08-1-.89-2.29-.58-3.42-.88a23.31,23.31,0,0,1-5.06-1.94,59.85,59.85,0,0,1-5.72-3.75c-.33-.23-.4-.84-.6-1.28,1.92,1.17,3.85,2.32,5.76,3.5a21.94,21.94,0,0,0,14.82,3.17A35.39,35.39,0,0,0,307.15,107.19Z"/><path class="cls-2" d="M317.43,77.61a4.83,4.83,0,0,1-1.54-.11c-1.43-.62-2.79-1.42-4.22-2-1.76-.76-3.55-1.48-5.37-2.1-1.57-.54-3.19-.88-4.77-1.38a45.45,45.45,0,0,1-4.28-1.55,37.32,37.32,0,0,1-4.43-2.21c-.54-.32-.82-1.07-1.22-1.62,3.94,2.65,8.45,3.9,12.87,5.41,4.11,1.4,8.07,3.25,12.08,4.92A4.33,4.33,0,0,1,317.43,77.61Z"/><path class="cls-1" d="M497.45,167.28c4.32.18,8.63.41,12.95.52a30.72,30.72,0,0,0,4.15-.42c.73-.09,1.46-.2,2.19-.31-2.83,1.4-5.72,2.4-9,1.79a14.89,14.89,0,0,0-3.18.13A14.27,14.27,0,0,1,497.45,167.28Z"/><path class="cls-2" d="M250.58,106.29a1.15,1.15,0,0,1-1.35,1.09,5.18,5.18,0,0,0-1.34.34c-1,.26-2,.5-3.06.78-.68.19-1.34.44-2,.64a3.47,3.47,0,0,1-.95.18c-2.21,0-4.57.51-6.58-.13s-4.58,0-6.44-1.56a2.06,2.06,0,0,1-.31-.59,33.74,33.74,0,0,0,4.91,1.1C239.25,108.58,245.07,108.8,250.58,106.29Z"/><path class="cls-2" d="M289.89,120.58c1.52,0,3,.15,4.55.14,2.88,0,5.78.07,8.64-.21a64.8,64.8,0,0,0,6.8-1.44,3.78,3.78,0,0,1,.82,0c-2.19.65-4.34,1.44-6.56,1.92A30.79,30.79,0,0,1,289.89,120.58Z"/><path class="cls-2" d="M291.84,52.19c.36-.35.65-.83,1.08-1,2.31-1,4.52-2.29,7.19-2.07,2,.15,4-.14,5.86.39a40.69,40.69,0,0,1,6.27,2.89,27.93,27.93,0,0,0-8.8-2.75A17,17,0,0,0,292.35,52,2.91,2.91,0,0,1,291.84,52.19Z"/><path class="cls-2" d="M261.94,44.91c-.06.84-.39.71-1,.37-2.95-1.69-5.93-3.32-8.88-5-.2-.12-.25-.52-.37-.79A32.4,32.4,0,0,1,261.94,44.91Z"/><path class="cls-2" d="M150.75,49.11c-1.74-1.65-3.4-3.4-5.26-4.91a13.25,13.25,0,0,0-3.11-1.36c-.22-.1-.37-.36-.55-.54l.46-.6c4.25,1.92,7.81,4.64,10.06,8.85Z"/><path class="cls-2" d="M289.27,64c-.6.25-1,.07-1-.67a33.86,33.86,0,0,1,.11-7,4.17,4.17,0,0,1,2.64-3.3,10.24,10.24,0,0,0-2.2,9.53A14,14,0,0,0,289.27,64Z"/><path class="cls-2" d="M228.28,106.92c-.57,0-1.24.2-1.71,0a26.2,26.2,0,0,1-3.94-2.28c-.47-.34-.62-1.15-.91-1.74Z"/><path class="cls-2" d="M264.41,110.45c1.14-1,1.16-1.83.2-3.07-.64-.84-1.16-1.77-1.73-2.67,1.08,1.09,2.15,2.18,3.24,3.25.53.51.63,1,.05,1.53s-1.14,1.07-1.72,1.61Z"/><path class="cls-2" d="M278.41,116.24a11.63,11.63,0,0,1,1.47.33c2.73,1,5.46,2,8.17,3.09a6.33,6.33,0,0,1,1.29.89A36.47,36.47,0,0,1,278.41,116.24Z"/><path class="cls-2" d="M15,46.31a7.11,7.11,0,0,1-.81,1.4c-1.52,1.59-3.09,3.14-4.67,4.68a7.25,7.25,0,0,1-1,.7Z"/><path class="cls-1" d="M586.45,112.16c-.16-.24-.47-.47-.47-.71,0-2.46,0-4.93,0-7.39,0-.24.21-.49.32-.73Z"/><path class="cls-1" d="M426.2,33c0,1,0,2,0,3-.06,1.74-.14,3.49-.22,5.23-.1-1.65-.28-3.3-.26-4.94A21.35,21.35,0,0,1,426.2,33Z"/><path class="cls-2" d="M324.61,46.56a30.11,30.11,0,0,1-2.39-2,7.55,7.55,0,0,1-1-1.64c1,.71,2,1.45,3.09,2.12C325,45.5,325,46,324.61,46.56Z"/><path class="cls-2" d="M273.16,107.31a3.16,3.16,0,0,1-.26,1.2,2.88,2.88,0,0,0,0,3.84c-2.12-1-2.28-1.57-1-3.38C272.34,108.41,272.75,107.87,273.16,107.31Z"/><path class="cls-2" d="M65.18,43.67c-1.71.29-3.75-.82-4.07-2.22Z"/><path class="cls-2" d="M264.41,110.45l0,.65-3.65,3.15c.07-.35,0-.83.24-1C262.13,112.26,263.28,111.37,264.41,110.45Z"/><path class="cls-2" d="M318.44,55.07c.83-.93,1.66-1.87,2.51-2.78.32-.34.71-.63,1.06-.94C321.25,53,320.82,55,318.44,55.07Z"/><path class="cls-2" d="M68.52,46l-.34.91c-.84-1.15-2.6-1.19-2.54-2.94Z"/><path class="cls-2" d="M130.92,91.07a7.18,7.18,0,0,1,5.11-1Z"/><path class="cls-2" d="M65.34,114.93c.14-.87,1.73-2.6,2.48-2.61.13,0,.27.38.41.58Z"/><path class="cls-2" d="M208.37,49.27A6.32,6.32,0,0,1,205.28,53Z"/><path class="cls-2" d="M213.26,44.94a5,5,0,0,1-3.53,3Z"/><path class="cls-2" d="M150.75,49.11l1.6,1.44a.18.18,0,0,1,.13.2c.25.68.49,1.37.74,2-.28,0-.74,0-.82-.17C151.81,51.48,151.29,50.29,150.75,49.11Z"/><path class="cls-2" d="M8.57,105.65a6.56,6.56,0,0,1,3.08,3.63Z"/><path class="cls-2" d="M313.17,52.91c.86.35,1.74.65,2.58,1.05.64.31,1.23.73,1.85,1.11a15.32,15.32,0,0,1-2.26-.74A20.21,20.21,0,0,1,313.17,52.91Z"/><path class="cls-2" d="M314.2,117.24c.62-1.73,1.42-2.26,2.9-1.92Z"/><path class="cls-2" d="M278,101.58l-3.32,3.27A4.94,4.94,0,0,1,278,101.58Z"/><path class="cls-2" d="M74.41,106.83a2.61,2.61,0,0,1,2.07-2.8Z"/><path class="cls-2" d="M219.19,58.18c0-1.83.75-2.59,2.09-2.21Z"/><path class="cls-2" d="M142.29,41.7l-.46.6c-.62-.79-2.19-.35-2.31-1.79Z"/><path class="cls-2" d="M264.53,49.26l-.68-2.65C265.88,47.21,266,47.71,264.53,49.26Z"/><path class="cls-2" d="M218.7,100c-1.36.12-1.46-1.07-1.95-1.85l.62-.39Z"/><path class="cls-2" d="M287,40.59c-.68,1-1.38,2-2.85,1.72Z"/><path class="cls-2" d="M20.08,42.85l-3.1,2Z"/><path class="cls-2" d="M71.91,49.14l-.15.78L70.28,48l.4-.11Z"/><path class="cls-2" d="M136.57,90c.68-1.1,1.77-1,2.86-1Z"/><path class="cls-2" d="M274.58,105.05c.05,1-.15,1.84-1.31,2Z"/><path class="cls-2" d="M13.11,110.74c1-.1,1.43.54,1.64,1.4Z"/><path class="cls-2" d="M142.87,87.36l-.57-.9,1.72.24Z"/><path class="cls-1" d="M404.68,74.68c-1,.33-1.29-.21-1.32-1.08Z"/><path class="cls-2" d="M289.61,39.32l-1.88.92Z"/><path class="cls-2" d="M276.5,115.05l1.53,1Z"/><path class="cls-2" d="M274.83,113.91c.71,0,1.44,0,1.5,1Z"/><path class="cls-2" d="M263.52,46.3c-.32-.3-1.78.61-1-.91Z"/><path class="cls-2" d="M323.29,48.92l.62-1.28Z"/><path class="cls-2" d="M216.37,43c0,1-.67.79-1.27.72Z"/><path class="cls-1" d="M426.54,29.89c.74.55.4.89-.23,1.17C426.38,30.67,426.46,30.28,426.54,29.89Z"/><path class="cls-2" d="M280.27,102c-.43.66-.63.61-1.15-.26l.44-.08Z"/><path class="cls-2" d="M322.13,51.11c.08-.38.16-.76.23-1.14l.54-.29C322.65,50.16,322.39,50.64,322.13,51.11Z"/><path class="cls-2" d="M22.08,41.76c-.13.65-.4,1.05-1.12.6Z"/><path class="cls-2" d="M262.85,104.68l-1-1Z"/><path class="cls-2" d="M214.64,44l-1.21.83Z"/><path class="cls-2" d="M291.32,66.35l-.87-.85Z"/><path class="cls-1" d="M426.8,28.48l-.15.89Z"/><path class="cls-2" d="M322.9,49.68l-.54.29.61-.57Z"/><path class="cls-2" d="M144.28,86.53l.95-.57Z"/><path class="cls-2" d="M12,109.6l.73.69Z"/><path class="cls-2" d="M308.55,106.26l-.64.51Z"/><path class="cls-2" d="M205.38,106.51l.47.65Z"/><path class="cls-1" d="M563,83.24l.7-.36Z"/><path class="cls-1" d="M522.4,30.53l.51-.64,0,.57v0Z"/><path class="cls-2" d="M205.29,53l-.48.63Z"/><path class="cls-2" d="M311.9,118.52l.69-.36Z"/><path class="cls-1" d="M426.36,46.8c.05.2.1.41.14.61C426.46,47.21,426.41,47,426.36,46.8Z"/><path class="cls-2" d="M279.56,101.64l-.44.08-.27-.28Z"/><path class="cls-1" d="M521.76,154.3l.41.3-.27.24C521.85,154.66,521.81,154.48,521.76,154.3Z"/><path class="cls-2" d="M273.72,113l.62.5Z"/><path class="cls-1" d="M522.4,30.53l.5-.09-.72.56Z"/><path class="cls-1" d="M392.23,128l.28.33Z"/><path class="cls-1" d="M546.64,53.62l-.12.16s0-.08,0-.09a.33.33,0,0,1,.13,0Z"/><path class="cls-1" d="M392,127.73l.3.29Z"/><path class="cls-1" d="M539.59,139.31l-.22-.07.2.09Z"/><path class="cls-2" d="M25,103a32.72,32.72,0,0,0,4.82,2.84c2.54,1,5.22,1.61,7.85,2.39l-2.34.68,0-.25c-.56-.08-1.14-.11-1.69-.24a12.11,12.11,0,0,1-1.84-.63c-1.64-.75-3.3-1.45-4.86-2.34C26,104.94,24.82,104.46,25,103Z"/><path class="cls-2" d="M38.75,108.32c2.24,0,4.49,0,6.72-.2,1.83-.16,3.65-.62,5.47-1-.61.43-1.18,1.15-1.84,1.24-2.79.41-5.61.63-8.42.93A1.7,1.7,0,0,1,38.75,108.32Z"/><path class="cls-2" d="M51.5,107.12l4.24-2C55.12,106.15,52.43,107.39,51.5,107.12Z"/><path class="cls-2" d="M23.12,101.31l1.28,1.22C23.54,102.57,22.71,102.58,23.12,101.31Z"/><path class="cls-2" d="M22.38,100.56l.67.68Z"/></g></g></svg>